<svg id="Layer_1" data-name="Layer 1" xmlns="http://www.w3.org/2000/svg" viewBox="0 0 492.28 624.89"><defs><style>.cls-1,.cls-4,.cls-6{fill:#018eca;}.cls-10,.cls-16,.cls-17,.cls-19,.cls-2,.cls-21,.cls-22,.cls-23,.cls-25,.cls-26,.cls-3,.cls-4,.cls-5,.cls-6,.cls-8,.cls-9{isolation:isolate;}.cls-2,.cls-25,.cls-4{font-size:17px;}.cls-16,.cls-17,.cls-2,.cls-28,.cls-3{fill:#06179e;}.cls-16,.cls-19,.cls-2,.cls-22,.cls-25,.cls-4,.cls-8,.cls-9{font-family:ProximaNova-Bold, Proxima Nova;font-weight:700;}.cls-26,.cls-3,.cls-6{font-size:8px;}.cls-10,.cls-17,.cls-21,.cls-23,.cls-26,.cls-3,.cls-6{font-family:ProximaNova-Regular, Proxima Nova;}.cls-11,.cls-12,.cls-13,.cls-14,.cls-15,.cls-24,.cls-7{fill:none;}.cls-7{stroke:#646363;stroke-width:0.5px;}.cls-11,.cls-12,.cls-13,.cls-15,.cls-24,.cls-7{stroke-miterlimit:10;}.cls-8{font-size:31px;}.cls-10,.cls-8,.cls-9{fill:#646363;}.cls-9{font-size:18.07px;}.cls-10{font-size:11.08px;}.cls-11,.cls-13{stroke:#018eca;}.cls-11,.cls-12{stroke-linecap:round;stroke-width:28px;}.cls-12,.cls-15{stroke:#06179e;}.cls-13,.cls-15,.cls-24{stroke-width:0.68px;}.cls-16,.cls-19,.cls-22{font-size:10.02px;}.cls-17,.cls-21,.cls-23{font-size:9px;}.cls-18{letter-spacing:-0.02em;}.cls-19,.cls-21{fill:#0097d1;}.cls-20{letter-spacing:-0.02em;}.cls-22,.cls-23,.cls-27{fill:#73519d;}.cls-24{stroke:#73519d;}.cls-25,.cls-26{fill:#fff;}</style></defs><g id="all-floods"><path class="cls-1" d="M0,454.9a30.8,30.8,0,1,1,30.8,30.9A30.81,30.81,0,0,1,0,454.9"/></g><g id="all-weather-related"><path class="cls-1" d="M148.9,186.2A59.85,59.85,0,1,0,208.8,246a59.86,59.86,0,0,0-59.9-59.8"/></g><g id="all"><text class="cls-2" transform="translate(299.21 135.99)">11.8m</text><text class="cls-3" transform="translate(299.16 145.59)">Geophysical</text><text class="cls-4" transform="translate(228.82 135.99)">213.5m</text><g class="cls-5"><text class="cls-6" transform="translate(228.96 145.59)">W</text><text class="cls-6" transform="translate(235.66 145.59)">eather related</text></g><line class="cls-7" x1="291" y1="124.7" x2="291" y2="145.7"/><text class="cls-8" transform="translate(230.43 89.24)">225.3m</text><text class="cls-9" transform="translate(339.02 78.92)">*</text><text class="cls-10" transform="translate(231.64 105.71)">Disaster displacements </text><circle class="cls-11" cx="287.5" cy="109.1" r="95.1"/><path class="cls-12" d="M290.4,14.1a90.29,90.29,0,0,1,30.8,6.1"/><path class="cls-13" d="M149.7,399.3V345.1c-2.4,30.6-27.4,31.1-81.4,31.1-26.5,0-35.3,15.5-37.9,29.4a31.79,31.79,0,0,0-.6,6.2v62.3"/><line class="cls-14" x1="149.7" y1="360.6" x2="149.7" y2="481.8"/><line class="cls-13" x1="149.7" y1="360.6" x2="149.7" y2="481.8"/><path class="cls-13" d="M149.7,344v54.2c.8,13.1,9.8,12.9,28.2,13.2a24,24,0,0,1,9.1,1.9c6.3,3,10.4,10.8,10.4,19.3v46.1"/><path class="cls-13" d="M149.7,372.2c1.9,25.3,22.2,21.2,65.4,25.7,31.2,3.2,30.6,27.6,30.6,27.6v53.3"/><path class="cls-13" d="M149.7,255.5v91.1c2.9,25.3,32.9,28.3,97.7,25.7,54.9-2.2,47.2,41.6,48.5,42.8l.5,19v47.7"/><text class="cls-2" transform="translate(396.61 279.45)">11.8m</text><text class="cls-3" transform="translate(396.56 289.05)">Geophysical</text><path class="cls-15" d="M416,295.3v10.8c1,10.3,12.3,9.4,33.7,9.6a35.56,35.56,0,0,1,10.6,1.5c7.4,2.4,11.2,9.3,11.2,16v27.3"/><line class="cls-15" x1="416" y1="306.5" x2="416" y2="354.4"/><g class="cls-5"><text class="cls-16" transform="translate(342.47 377.76)"><tspan xml:space="preserve"> 1</tspan></text><text class="cls-16" transform="translate(349.17 377.76)">0</text><text class="cls-16" transform="translate(355.17 377.76)">.2m</text></g><g class="cls-5"><text class="cls-17" transform="translate(332.88 388.56)">Earthqua</text><text class="cls-17" transform="translate(368.18 388.56)">k</text><text class="cls-17" transform="translate(372.58 388.56)">es</text></g><g class="cls-5"><text class="cls-17" transform="translate(330.45 399.36)">and </text><text class="cls-17" transform="translate(347.65 399.36)">T</text><text class="cls-17" transform="translate(351.95 399.36)">sunamis</text></g><text class="cls-16" transform="translate(403.17 377.68)"><tspan xml:space="preserve"> 1</tspan><tspan class="cls-18" x="6.7" y="0">.</tspan><tspan x="9.06" y="0">6m</tspan></text><g class="cls-5"><text class="cls-17" transform="translate(398.52 388.48)">V</text><text class="cls-17" transform="translate(403.92 388.48)">olcanic </text></g><text class="cls-17" transform="translate(396.56 399.28)">eruptions</text><text class="cls-16" transform="translate(455.76 377.68)">12<tspan class="cls-18" x="10.13" y="0">,</tspan><tspan x="12.48" y="0">000 </tspan></text><g class="cls-5"><text class="cls-17" transform="translate(450.43 388.48)">L</text><text class="cls-17" transform="translate(454.73 388.48)">andslides</text></g><path class="cls-13" d="M149.6,345.1v54.2c-.9,13.1-28.2,12.1-37.5,12.4a31.13,31.13,0,0,0-10.4,1.9c-7.2,3-6.5,11.7-6.5,20.2v35.8"/><text class="cls-19" transform="translate(14.11 499.13)">113<tspan class="cls-20" x="14.12" y="0">.</tspan><tspan x="16.49" y="0">6m</tspan></text><text class="cls-21" transform="translate(16.46 509.93)">Floods</text><text class="cls-22" transform="translate(80.59 499.13)">98.2m</text><g class="cls-5"><text class="cls-23" transform="translate(81.56 509.93)">S</text><text class="cls-23" transform="translate(86.66 509.93)">torms</text></g><g class="cls-5"><text class="cls-19" transform="translate(129.96 499.13)">82</text><text class="cls-19" transform="translate(142.06 499.13)">9</text><text class="cls-19" transform="translate(147.96 499.13)"><tspan class="cls-18">,</tspan><tspan x="2.35" y="0">000 </tspan></text></g><g class="cls-5"><text class="cls-21" transform="translate(128.55 509.93)">L</text><text class="cls-21" transform="translate(132.85 509.93)">andslides</text></g><text class="cls-19" transform="translate(177.67 499.13)">448<tspan class="cls-18" x="18.04" y="0">,</tspan><tspan x="20.39" y="0">000 </tspan></text><text class="cls-21" transform="translate(179.13 509.93)">Droughts</text><text class="cls-19" transform="translate(226.94 499.13)">241<tspan class="cls-18" x="16.12" y="0">,</tspan><tspan x="18.46" y="0">000 </tspan></text><text class="cls-21" transform="translate(228.62 509.93)">Wildﬁres</text><text class="cls-19" transform="translate(278.22 499.13)">216<tspan class="cls-18" x="16.23" y="0">,</tspan><tspan x="18.57" y="0">000 </tspan></text><text class="cls-21" transform="translate(280.68 509.93)">Extreme </text><text class="cls-21" transform="translate(270.56 520.73)">temperatures</text><path class="cls-15" d="M416.2,295.3v10.8c-1,10.3-12.3,9.4-33.7,9.6a35.56,35.56,0,0,0-10.6,1.5c-7.4,2.4-11.2,9.3-11.2,16v15.9"/><path class="cls-24" d="M62.5,541.3s-2.6-14.8,10.4-14.8c14.8,0,21.6-.2,22.2-9.1"/><path class="cls-24" d="M95.1,517.3c.7,9,7.5,9.1,22.2,9.1,5.2,0,7.9,2.4,9.3,5.2a12.52,12.52,0,0,1,1.1,5v36.2"/><text class="cls-22" transform="translate(47.64 601.4)">78.3m</text><g class="cls-5"><text class="cls-23" transform="translate(26.61 612.2)">T</text><text class="cls-23" transform="translate(31.01 612.2)">ropical cyclones/ </text></g><g class="cls-5"><text class="cls-23" transform="translate(42.65 623)">T</text><text class="cls-23" transform="translate(47.15 623)">yphoons</text></g><g class="cls-5"><text class="cls-22" transform="translate(114.09 601.4)">1</text><text class="cls-22" transform="translate(118.19 601.4)">9</text><text class="cls-22" transform="translate(124.09 601.4)">.9m</text></g><text class="cls-23" transform="translate(116.43 612.2)">Other </text><text class="cls-23" transform="translate(114.49 623)">storms</text><path class="cls-15" d="M414.7,248.9V44.6A38.3,38.3,0,0,0,376.4,6.3H305.8"/><path class="cls-13" d="M149.9,248.9V44.6A38.3,38.3,0,0,1,188.2,6.3h70.6"/><text class="cls-25" transform="translate(120.75 246.83)">213.5m</text><g class="cls-5"><text class="cls-26" transform="translate(120.89 256.43)">W</text><text class="cls-26" transform="translate(127.59 256.43)">eather related</text></g></g><g id="all-storms"><path class="cls-27" d="M72.7,463.3a22.5,22.5,0,1,1,22.5,22.5,22.53,22.53,0,0,1-22.5-22.5"/></g><g id="all-landslides"><path class="cls-1" d="M139.6,474.4A11.4,11.4,0,1,1,151,485.8a11.39,11.39,0,0,1-11.4-11.4"/></g><g id="all-droughts"><path class="cls-1" d="M190.8,479a6.8,6.8,0,1,1,6.8,6.8,6.81,6.81,0,0,1-6.8-6.8"/></g><g id="all-wildfires"><path class="cls-1" d="M241.8,482a3.8,3.8,0,1,1,3.8,3.8,3.8,3.8,0,0,1-3.8-3.8"/></g><g id="all-extreme"><path class="cls-1" d="M293.1,482.5a3.3,3.3,0,1,1,3.3,3.3,3.33,3.33,0,0,1-3.3-3.3"/></g><g id="all-tropical"><path class="cls-27" d="M39.4,561a22.5,22.5,0,1,1,22.5,22.5A22.53,22.53,0,0,1,39.4,561"/></g><g id="all-other-storms"><path class="cls-27" d="M117.4,573.2a10.3,10.3,0,1,1,10.3,10.3,10.29,10.29,0,0,1-10.3-10.3"/></g><g id="all-geophysical"><path class="cls-28" d="M414.7,231.9A14.1,14.1,0,1,0,428.8,246a14.08,14.08,0,0,0-14.1-14.1"/></g><g id="all-earthquake"><path class="cls-28" d="M347.5,348.8a14.3,14.3,0,1,1,14.3,14.3,14.3,14.3,0,0,1-14.3-14.3"/></g><g id="all-volcanic"><path class="cls-28" d="M410,356.9a6,6,0,1,1,6,6,6,6,0,0,1-6-6"/></g><g id="all-geophysical-landslides"><path class="cls-28" d="M469.1,360.6a2.4,2.4,0,1,1,2.4,2.4,2.43,2.43,0,0,1-2.4-2.4"/></g></svg>