<svg id="Layer_1" data-name="Layer 1" xmlns="http://www.w3.org/2000/svg" viewBox="0 0 488.74 624.44"><defs><style>.cls-1,.cls-19,.cls-20,.cls-4,.cls-6{fill:#018eca;}.cls-10,.cls-11,.cls-17,.cls-18,.cls-19,.cls-2,.cls-20,.cls-22,.cls-25,.cls-27,.cls-28,.cls-3,.cls-4,.cls-5,.cls-6,.cls-8,.cls-9{isolation:isolate;}.cls-2,.cls-27,.cls-4{font-size:17px;}.cls-17,.cls-18,.cls-2,.cls-3,.cls-30{fill:#06179e;}.cls-10,.cls-17,.cls-19,.cls-2,.cls-22,.cls-27,.cls-4,.cls-8,.cls-9{font-family:ProximaNova-Bold, Proxima Nova;font-weight:700;}.cls-28,.cls-3,.cls-6{font-size:8px;}.cls-11,.cls-18,.cls-20,.cls-25,.cls-28,.cls-3,.cls-6{font-family:ProximaNova-Regular, Proxima Nova;}.cls-12,.cls-13,.cls-14,.cls-15,.cls-16,.cls-26,.cls-7{fill:none;}.cls-7{stroke:#646363;stroke-width:0.5px;}.cls-12,.cls-13,.cls-14,.cls-16,.cls-26,.cls-7{stroke-miterlimit:10;}.cls-8,.cls-9{font-size:31px;}.cls-10,.cls-11,.cls-8,.cls-9{fill:#646363;}.cls-9{letter-spacing:-0.06em;}.cls-10{font-size:18.07px;}.cls-11{font-size:11.08px;}.cls-12,.cls-14{stroke:#018eca;}.cls-12,.cls-13{stroke-linecap:round;stroke-width:28px;}.cls-13,.cls-16{stroke:#06179e;}.cls-14,.cls-16,.cls-26{stroke-width:0.68px;}.cls-17,.cls-19,.cls-22{font-size:10.02px;}.cls-18,.cls-20,.cls-25{font-size:9px;}.cls-21{letter-spacing:-0.02em;}.cls-22,.cls-25,.cls-29{fill:#73519d;}.cls-23{letter-spacing:-0.02em;}.cls-24{letter-spacing:0em;}.cls-26{stroke:#73519d;}.cls-27,.cls-28{fill:#fff;}</style></defs><g id="cwa-weather-related"><path class="cls-1" d="M148.9,185.7a59.9,59.9,0,1,0,59.9,59.9,59.88,59.88,0,0,0-59.9-59.9"/></g><g id="cwa"><text class="cls-2" transform="translate(301.25 135.54)">1.5m</text><text class="cls-3" transform="translate(297.72 145.14)">Geophysical</text><text class="cls-4" transform="translate(232.4 135.54)">16.4m</text><g class="cls-5"><text class="cls-6" transform="translate(227.52 145.14)">W</text><text class="cls-6" transform="translate(234.22 145.14)">eather related</text></g><line class="cls-7" x1="289.6" y1="124.2" x2="289.6" y2="145.2"/><g class="cls-5"><text class="cls-8" transform="translate(244.76 88.11)">1</text><text class="cls-9" transform="translate(257.46 88.11)">7</text><text class="cls-8" transform="translate(271.46 88.11)">.9m</text></g><text class="cls-10" transform="translate(324.68 77.79)">*</text><text class="cls-11" transform="translate(231.64 104.58)">Disaster displacements </text><circle class="cls-12" cx="287.9" cy="108.6" r="94.6"/><path class="cls-13" d="M292.5,14.1a93.41,93.41,0,0,1,48,15.9"/><path class="cls-14" d="M149.7,398.9V344.7c-2.4,30.6-27.4,31.1-81.4,31.1-26.5,0-35.3,15.5-37.9,29.4a31.79,31.79,0,0,0-.6,6.2v62.3"/><line class="cls-15" x1="149.7" y1="360.2" x2="149.7" y2="481.3"/><line class="cls-14" x1="149.7" y1="360.2" x2="149.7" y2="481.3"/><path class="cls-14" d="M149.7,343.6v54.2c.8,13.1,9.8,12.9,28.2,13.2a24,24,0,0,1,9.1,1.9c6.3,3,10.4,10.8,10.4,19.3v46.1"/><path class="cls-14" d="M149.7,371.8c1.9,25.3,22.2,21.2,65.4,25.7,31.2,3.2,30.6,27.6,30.6,27.6v53.3"/><path class="cls-14" d="M149.7,255v91.1c2.9,25.3,32.9,28.3,97.7,25.7,54.9-2.2,47.2,41.6,48.5,42.8l.5,19v47.7"/><text class="cls-2" transform="translate(395.27 282.08)">1.5m</text><text class="cls-3" transform="translate(391.75 291.68)">Geophysical</text><path class="cls-16" d="M412.5,298.5v10.8c1,10.3,12.3,9.4,33.7,9.6a35.56,35.56,0,0,1,10.6,1.5c7.4,2.4,11.2,9.3,11.2,16V370"/><text class="cls-17" transform="translate(347.53 387.96)">1.5m</text><g class="cls-5"><text class="cls-18" transform="translate(333.7 398.76)">Earthqua</text><text class="cls-18" transform="translate(369 398.76)">k</text><text class="cls-18" transform="translate(373.4 398.76)">es</text></g><g class="cls-5"><text class="cls-18" transform="translate(331.27 409.56)">and </text><text class="cls-18" transform="translate(348.47 409.56)">T</text><text class="cls-18" transform="translate(352.77 409.56)">sunamis</text></g><text class="cls-17" transform="translate(455.33 387.96)"><tspan xml:space="preserve">1,400  </tspan></text><g class="cls-5"><text class="cls-18" transform="translate(446.88 398.76)">L</text><text class="cls-18" transform="translate(451.18 398.76)">andslides</text></g><path class="cls-14" d="M149.6,344.7v54.2c-.9,13.1-28.2,12.1-37.5,12.4a31.13,31.13,0,0,0-10.4,1.9c-7.2,3-6.5,11.7-6.5,20.2v35.8"/><text class="cls-19" transform="translate(16.08 498.67)">15.8m</text><text class="cls-20" transform="translate(16.46 509.47)">Floods</text><g class="cls-5"><text class="cls-19" transform="translate(76.01 498.67)">37</text><text class="cls-19" transform="translate(87.31 498.67)">9</text><text class="cls-19" transform="translate(93.21 498.67)"><tspan class="cls-21">,</tspan><tspan x="2.35" y="0">000 </tspan></text></g><text class="cls-20" transform="translate(77.06 509.47)">Droughts</text><text class="cls-19" transform="translate(133.85 498.67)">81<tspan class="cls-21" x="10.19" y="0">,</tspan><tspan x="12.54" y="0">000 </tspan></text><text class="cls-20" transform="translate(132.57 509.47)">Wildﬁres</text><text class="cls-22" transform="translate(180.65 498.67)">64<tspan class="cls-23" x="12.08" y="0">,</tspan><tspan class="cls-24" x="14.42" y="0">000 </tspan></text><g class="cls-5"><text class="cls-25" transform="translate(183.63 509.47)">S</text><text class="cls-25" transform="translate(188.73 509.47)">torms</text></g><g class="cls-5"><text class="cls-19" transform="translate(228.83 498.67)">5</text><text class="cls-19" transform="translate(234.93 498.67)">0</text><text class="cls-19" transform="translate(240.93 498.67)"><tspan class="cls-21">,</tspan><tspan x="2.35" y="0" xml:space="preserve">000  </tspan></text></g><g class="cls-5"><text class="cls-20" transform="translate(224.49 509.47)">L</text><text class="cls-20" transform="translate(228.79 509.47)">andslides</text></g><text class="cls-19" transform="translate(280.28 498.67)">25<tspan class="cls-21" x="12.11" y="0">,</tspan><tspan x="14.45" y="0">000 </tspan></text><text class="cls-20" transform="translate(280.68 509.47)">Extreme </text><text class="cls-20" transform="translate(270.56 520.27)">temperatures</text><path class="cls-16" d="M412.6,298.5v10.8c-1,10.3-12.3,9.4-33.7,9.6a35.56,35.56,0,0,0-10.6,1.5c-7.4,2.4-11.2,9.3-11.2,16v15.9"/><path class="cls-26" d="M198.6,516.9c-.7,9-7.6,10.7-22.2,9.1-12.3-1.3-12.4,11.9-12.3,14.3v13.9"/><path class="cls-26" d="M198.6,516.9c.7,9,7.5,9.1,22.2,9.1,5.2,0,7.9,2.4,9.3,5.2a12.52,12.52,0,0,1,1.1,5v42"/><text class="cls-22" transform="translate(145.73 600.95)">62<tspan class="cls-21" x="12.11" y="0">,</tspan><tspan x="14.45" y="0">000 </tspan></text><g class="cls-5"><text class="cls-25" transform="translate(127.1 611.75)">T</text><text class="cls-25" transform="translate(131.5 611.75)">ropical cyclones/ </text></g><g class="cls-5"><text class="cls-25" transform="translate(143.13 622.55)">T</text><text class="cls-25" transform="translate(147.63 622.55)">yphoons</text></g><text class="cls-22" transform="translate(218.59 600.95)">1,900 </text><text class="cls-25" transform="translate(219.93 611.75)">Other </text><text class="cls-25" transform="translate(217.99 622.55)">storms</text><path class="cls-16" d="M413.5,243.2V42.8c0-20.8-17.4-37.6-39-37.6H302.8"/><path class="cls-14" d="M146.9,243.2V42.8c0-20.8,17.2-37.6,38.3-37.6h70.6"/><text class="cls-27" transform="translate(125.76 246.38)">16.4m</text><g class="cls-5"><text class="cls-28" transform="translate(120.89 255.98)">W</text><text class="cls-28" transform="translate(127.59 255.98)">eather related</text></g></g><g id="cwa-floods"><path class="cls-1" d="M0,454.5a30.8,30.8,0,1,1,30.8,30.9A30.81,30.81,0,0,1,0,454.5"/></g><g id="cwa-droughts"><path class="cls-1" d="M72.7,462.8a22.5,22.5,0,1,1,22.5,22.5,22.53,22.53,0,0,1-22.5-22.5"/></g><g id="cwa-wildfires"><path class="cls-1" d="M139.6,473.9A11.4,11.4,0,1,1,151,485.3a11.39,11.39,0,0,1-11.4-11.4"/></g><g id="cwa-storms"><path class="cls-29" d="M190.8,478.4a6.8,6.8,0,1,1,6.8,6.8,6.81,6.81,0,0,1-6.8-6.8"/></g><g id="cwa-landslides"><path class="cls-1" d="M241.8,479.9a3.8,3.8,0,1,1,3.8,3.8,3.8,3.8,0,0,1-3.8-3.8"/></g><g id="cwa-extreme-temperatures"><path class="cls-1" d="M293.1,481.3a3.3,3.3,0,1,1,3.3,3.3,3.33,3.33,0,0,1-3.3-3.3"/></g><g id="cwa-tropical"><path class="cls-29" d="M148,566a17.1,17.1,0,1,1,17.1,17.1A17.09,17.09,0,0,1,148,566"/></g><g id="cwa-other-storms"><path class="cls-29" d="M228,579.9a3.1,3.1,0,1,1,3.1,3.1,3.05,3.05,0,0,1-3.1-3.1"/></g><g id="cwa-geophysical"><path class="cls-30" d="M413.4,234.6a14.1,14.1,0,1,0,14.1,14.1,14.08,14.08,0,0,0-14.1-14.1"/></g><g id="cwa-earthquakes"><path class="cls-30" d="M343.9,359a14.3,14.3,0,1,1,14.3,14.3A14.3,14.3,0,0,1,343.9,359"/></g><g id="cwa-geophysical-landslides"><path class="cls-30" d="M464.6,370a3.3,3.3,0,1,1,3.3,3.3,3.27,3.27,0,0,1-3.3-3.3"/></g></svg>