<?xml version="1.0" encoding="UTF-8"?>
<!-- Created with Inkscape (http://www.inkscape.org/) -->
<svg width="651.47" height="832.84" version="1.1" viewBox="0 0 651.47 832.84" xmlns="http://www.w3.org/2000/svg">
 <defs>
  <clipPath id="clipPath763">
   <path d="M 0,841.89 H 595.276 V 0 H 0 Z"/>
  </clipPath>
  <clipPath id="clipPath778">
   <path d="M 0,841.89 H 595.276 V 0 H 0 Z"/>
  </clipPath>
  <clipPath id="clipPath793">
   <path d="M 0,841.89 H 595.276 V 0 H 0 Z"/>
  </clipPath>
  <clipPath id="clipPath808">
   <path d="M 0,841.89 H 595.276 V 0 H 0 Z"/>
  </clipPath>
  <clipPath id="clipPath823">
   <path d="M 0,841.89 H 595.276 V 0 H 0 Z"/>
  </clipPath>
  <clipPath id="clipPath838">
   <path d="M 0,841.89 H 595.276 V 0 H 0 Z"/>
  </clipPath>
  <clipPath id="clipPath853">
   <path d="M 0,841.89 H 595.276 V 0 H 0 Z"/>
  </clipPath>
  <clipPath id="clipPath868">
   <path d="M 0,841.89 H 595.276 V 0 H 0 Z"/>
  </clipPath>
  <clipPath id="clipPath883">
   <path d="M 0,841.89 H 595.276 V 0 H 0 Z"/>
  </clipPath>
  <clipPath id="clipPath898">
   <path d="M 0,841.89 H 595.276 V 0 H 0 Z"/>
  </clipPath>
  <clipPath id="clipPath913">
   <path d="M 0,841.89 H 595.276 V 0 H 0 Z"/>
  </clipPath>
  <clipPath id="clipPath928">
   <path d="M 0,841.89 H 595.276 V 0 H 0 Z"/>
  </clipPath>
  <clipPath id="clipPath943">
   <path d="M 0,841.89 H 595.276 V 0 H 0 Z"/>
  </clipPath>
  <clipPath id="clipPath958">
   <path d="M 0,841.89 H 595.276 V 0 H 0 Z"/>
  </clipPath>
  <clipPath id="clipPath973">
   <path d="M 0,841.89 H 595.276 V 0 H 0 Z"/>
  </clipPath>
  <clipPath id="clipPath988">
   <path d="M 0,841.89 H 595.276 V 0 H 0 Z"/>
  </clipPath>
  <clipPath id="clipPath1003">
   <path d="M 0,841.89 H 595.276 V 0 H 0 Z"/>
  </clipPath>
  <clipPath id="clipPath1018">
   <path d="M 0,841.89 H 595.276 V 0 H 0 Z"/>
  </clipPath>
  <clipPath id="clipPath1033">
   <path d="M 0,841.89 H 595.276 V 0 H 0 Z"/>
  </clipPath>
  <clipPath id="clipPath1048">
   <path d="M 0,841.89 H 595.276 V 0 H 0 Z"/>
  </clipPath>
  <clipPath id="clipPath1063">
   <path d="M 0,841.89 H 595.276 V 0 H 0 Z"/>
  </clipPath>
  <clipPath id="clipPath1078">
   <path d="M 0,841.89 H 595.276 V 0 H 0 Z"/>
  </clipPath>
  <clipPath id="clipPath1093">
   <path d="M 0,841.89 H 595.276 V 0 H 0 Z"/>
  </clipPath>
  <clipPath id="clipPath1108">
   <path d="M 0,841.89 H 595.276 V 0 H 0 Z"/>
  </clipPath>
  <clipPath id="clipPath1123">
   <path d="M 0,841.89 H 595.276 V 0 H 0 Z"/>
  </clipPath>
  <clipPath id="clipPath1138">
   <path d="M 0,841.89 H 595.276 V 0 H 0 Z"/>
  </clipPath>
 </defs>
 <g transform="matrix(1.3333 0 0 -1.3333 -39.57 1061.6)">
  <g font-family="'Proxima Nova'">
   <text transform="matrix(1 0 0 -1 330.93 660.7)" fill="#06179e" font-size="17px" font-weight="bold" xml:space="preserve"><tspan x="0 6.987 11.339 21.674999" y="0">1.5m</tspan></text>
   <text transform="matrix(1 0 0 -1 327.4 651.1)" fill="#06179e" font-size="8px" xml:space="preserve"><tspan x="0 5.704 10.208 14.784 19.375999 23.792 27.712 31.431999 33.231998 37.192001 41.408001" y="0">Geophysical</tspan></text>
   <text transform="matrix(1 0 0 -1 262.07 660.7)" fill="#018eca" font-size="17px" font-weight="bold" xml:space="preserve"><tspan x="0 6.987 17.323 21.674999 31.823999" y="0">16.4m</tspan></text>
   <text transform="matrix(1 0 0 -1 257.2 651.1)" fill="#018eca" font-size="8px" xml:space="preserve"><tspan x="0 6.744 11.248 15.464 17.816 22.232 26.736 29.375999 31.440001 34.080002 38.584 40.383999 44.599998 46.952 51.456001" y="0">Weather related</tspan></text>
  </g>
  <path d="m319.23 672.04v-21.035" fill="none" stroke="#646363" stroke-miterlimit="10" stroke-width=".5"/>
  <g fill="#646363" font-family="'Proxima Nova'">
   <text transform="matrix(1 0 0 -1 274.44 708.13)" font-size="31px" font-weight="bold" xml:space="preserve"><tspan x="0 12.741 26.722 34.658001 53.506001" y="0">17.9m</tspan></text>
   <text transform="matrix(1 0 0 -1 354.36 718.45)" font-size="18.073px" font-weight="bold" xml:space="preserve"><tspan x="0" y="0">*</tspan></text>
   <text transform="matrix(1 0 0 -1 261.32 691.66)" font-size="11.077px" xml:space="preserve"><tspan x="0 7.7539001 10.246225 15.39703 21.23461 26.385414 29.642052 35.878403 39.533813 42.391678 48.760956 51.253281 56.404083 62.762283 65.254608 71.092186 76.575302 82.811653 91.761871 97.998222 104.10165 107.35828 112.50909" y="0">Disaster displacements </tspan></text>
  </g>
  <path d="m443.03 561.66c-7.777 0-14.082-6.305-14.082-14.082s6.305-14.082 14.082-14.082 14.082 6.305 14.082 14.082-6.305 14.082-14.082 14.082" clip-path="url(#clipPath1123)" fill="#06179e"/>
  <path d="m396.2 634.98c-29.066-43.427-87.834-55.068-131.26-26-43.426 29.066-55.067 87.834-26 131.26 29.067 43.426 87.834 55.067 131.26 26s55.067-87.835 26-131.26z" clip-path="url(#clipPath1108)" fill="none" stroke="#018eca" stroke-linecap="round" stroke-miterlimit="10" stroke-width="28"/>
  <path d="m322.19 782.12c17.485-0.854 33.468-6.138 48.016-15.875" clip-path="url(#clipPath1138)" fill="none" stroke="#06179e" stroke-linecap="round" stroke-miterlimit="10" stroke-width="28"/>
  <path d="m178.58 610.53c-33.06 0-59.86-26.8-59.86-59.86s26.8-59.86 59.86-59.86 59.86 26.8 59.86 59.86-26.8 59.86-59.86 59.86" clip-path="url(#clipPath808)" fill="#018eca"/>
  <path d="m179.36 397.35v54.201c-2.407-30.607-27.378-31.13-81.425-31.12-26.516 5e-3 -35.331-15.531-37.925-29.359-0.383-2.039-0.558-4.111-0.558-6.186v-62.345" clip-path="url(#clipPath838)" fill="none" stroke="#018eca" stroke-miterlimit="10" stroke-width=".68"/>
  <path d="m179.36 436.07v-121.14" clip-path="url(#clipPath853)" fill="#fff" stroke="#018eca" stroke-miterlimit="10" stroke-width=".68"/>
  <g fill="none" stroke="#018eca" stroke-miterlimit="10" stroke-width=".68">
   <path d="m179.36 452.66v-54.201c0.819-13.097 9.773-12.937 28.179-13.24 3.615-0.059 6.607-0.779 9.077-1.949 6.322-2.993 10.358-10.828 10.358-19.317v-46.085" clip-path="url(#clipPath988)"/>
   <path d="m179.36 424.45c1.931-25.266 22.197-21.202 65.354-25.689 31.216-3.246 30.568-27.603 30.568-27.603v-53.291" clip-path="url(#clipPath793)"/>
   <path d="m179.36 541.24v-91.122c2.887-25.265 32.878-28.323 97.676-25.688 54.891 2.232 47.214-41.597 48.533-42.81l0.482-18.972v-47.716" clip-path="url(#clipPath868)"/>
  </g>
  <g fill="#06179e">
   <text transform="matrix(1 0 0 -1 424.95 514.16)" font-family="'Proxima Nova'" font-size="17px" font-weight="bold" xml:space="preserve"><tspan x="0 6.987 11.339 21.674999" y="0">1.5m</tspan></text>
   <text transform="matrix(1 0 0 -1 421.43 504.56)" font-family="'Proxima Nova'" font-size="8px" xml:space="preserve"><tspan x="0 5.704 10.208 14.784 19.375999 23.792 27.712 31.431999 33.231998 37.192001 41.408001" y="0">Geophysical</tspan></text>
   <path d="m373.6 437.29c0 7.879 6.387 14.266 14.266 14.266 7.878 0 14.265-6.387 14.265-14.266 0-7.878-6.387-14.266-14.265-14.266-7.879 0-14.266 6.388-14.266 14.266" clip-path="url(#clipPath883)"/>
   <path d="m494.29 426.19c0 1.808 1.466 3.273 3.273 3.273 1.808 0 3.274-1.465 3.274-3.273s-1.466-3.273-3.274-3.273c-1.807 0-3.273 1.465-3.273 3.273" clip-path="url(#clipPath898)"/>
  </g>
  <path d="m442.13 497.74v-10.77c0.954-10.325 12.268-9.403 33.693-9.641 4.208-0.047 7.691-0.615 10.567-1.537 7.358-2.36 11.167-9.332 11.167-16.024v-33.57" clip-path="url(#clipPath913)" fill="none" stroke="#06179e" stroke-miterlimit="10" stroke-width=".68"/>
  <g fill="#06179e" font-family="'Proxima Nova'">
   <text transform="matrix(1 0 0 -1 377.21 408.28)" font-size="10.024px" font-weight="bold" xml:space="preserve"><tspan x="0 4.119946 6.6861415 12.780855" y="0">1.5m</tspan></text>
   <text transform="matrix(1 0 0 -1 363.38 397.48)" font-size="9px" xml:space="preserve"><tspan x="0 5.1209998 9.8640003 12.834 15.48 20.448 25.614 30.573 35.316002 39.735001 44.801998" y="0">Earthquakes</tspan><tspan x="-2.4300001 2.313 7.2719998 12.447 14.769 19.08 23.264999 28.224001 33.182999 37.925999 45.198002 47.223" y="10.8">and Tsunamis</tspan></text>
   <text transform="matrix(1 0 0 -1 485.01 408.28)" font-size="10.024px" font-weight="bold" xml:space="preserve"><tspan x="0 4.119946 6.6861415 12.670588 18.885593 25.100597" y="0">1,400 </tspan></text>
   <text transform="matrix(1 0 0 -1 476.56 397.48)" font-size="9px" xml:space="preserve"><tspan x="0 4.4640002 9.2069998 14.166 19.341 23.525999 25.551001 27.576 32.750999 37.818001" y="0">Landslides</tspan></text>
  </g>
  <g>
   <path d="m29.678 341.74c0 17.037 13.812 30.849 30.85 30.849 17.037 0 30.849-13.812 30.849-30.849 0-17.038-13.812-30.85-30.849-30.85-17.038 0-30.85 13.812-30.85 30.85" clip-path="url(#clipPath958)" fill="#018eca"/>
   <path d="m169.24 322.31c0 6.302 5.109 11.411 11.411 11.411s11.411-5.109 11.411-11.411c0-6.303-5.109-11.411-11.411-11.411s-11.411 5.108-11.411 11.411" clip-path="url(#clipPath823)" fill="#018eca"/>
   <path d="m220.5 317.8c0 3.731 3.025 6.758 6.757 6.758 3.733 0 6.758-3.027 6.758-6.758 0-3.732-3.025-6.758-6.758-6.758-3.732 0-6.757 3.026-6.757 6.758" clip-path="url(#clipPath778)" fill="#73519d"/>
   <path d="m271.45 316.35c0 2.12 1.719 3.839 3.839 3.839s3.839-1.719 3.839-3.839-1.719-3.839-3.839-3.839-3.839 1.719-3.839 3.839" clip-path="url(#clipPath763)" fill="#018eca"/>
   <path d="m322.75 314.93c0 1.823 1.479 3.302 3.302 3.302 1.824 0 3.302-1.479 3.302-3.302 0-1.824-1.478-3.302-3.302-3.302-1.823 0-3.302 1.478-3.302 3.302" clip-path="url(#clipPath928)" fill="#018eca"/>
  </g>
  <path d="m179.23 451.55v-54.201c-0.935-13.097-28.187-12.129-37.497-12.393-4.121-0.118-7.534-0.781-10.351-1.95-7.209-2.994-6.451-11.674-6.451-20.163v-35.832" clip-path="url(#clipPath943)" fill="none" stroke="#018eca" stroke-miterlimit="10" stroke-width=".68"/>
  <g fill="#018eca" font-family="'Proxima Nova'">
   <text transform="matrix(1 0 0 -1 45.756 297.57)" font-size="10.024px" font-weight="bold" xml:space="preserve"><tspan x="0 4.119946 10.21466 12.780855 18.85552" y="0">15.8m</tspan></text>
   <text transform="matrix(1 0 0 -1 46.139 286.77)" font-size="9px" xml:space="preserve"><tspan x="0 4.9499998 6.9749999 12.123 17.271 22.445999" y="0">Floods</tspan></text>
   <text transform="matrix(1 0 0 -1 105.69 297.57)" font-size="10.024px" font-weight="bold" xml:space="preserve"><tspan x="0 5.8842053 11.347394 17.2316 19.797794 26.012798 32.227802 38.442806" y="0">379,000 </tspan></text>
   <text transform="matrix(1 0 0 -1 106.74 286.77)" font-size="9px" xml:space="preserve"><tspan x="0 6.3000002 9.2700005 14.418 19.377001 24.542999 29.511 32.157001" y="0">Droughts</tspan></text>
   <text transform="matrix(1 0 0 -1 163.53 297.57)" font-size="10.024px" font-weight="bold" xml:space="preserve"><tspan x="0 6.0746651 10.194612 12.760807 18.975811 25.190815 31.405819" y="0">81,000 </tspan></text>
   <text transform="matrix(1 0 0 -1 162.24 286.77)" font-size="9px" xml:space="preserve"><tspan x="0 7.947 9.9720001 11.997 17.172001 21.753 24.723 29.790001" y="0">Wildfres</tspan></text>
  </g>
  <text transform="matrix(1 0 0 -1 210.33 297.57)" fill="#73519d" font-family="'Proxima Nova'" font-size="10.024px" font-weight="bold" xml:space="preserve"><tspan x="0 6.0947137 12.079161 14.645356 20.860361 27.075365 33.290367" y="0">64,000 </tspan></text>
  <text transform="matrix(1 0 0 -1 213.31 286.77)" fill="#73519d" font-family="'Proxima Nova'" font-size="9px" xml:space="preserve"><tspan x="0 5.1209998 7.7670002 12.915 15.885 23.157" y="0">Storms</tspan></text>
  <g fill="#018eca" font-family="'Proxima Nova'">
   <text transform="matrix(1 0 0 -1 258.51 297.57)" font-size="10.024px" font-weight="bold" xml:space="preserve"><tspan x="0 6.0947137 12.09921 14.665404 20.880409 27.095413 33.310417" y="0">50,000 </tspan></text>
   <text transform="matrix(1 0 0 -1 254.16 286.77)" font-size="9px" xml:space="preserve"><tspan x="0 4.4640002 9.2069998 14.166 19.341 23.525999 25.551001 27.576 32.750999 37.818001" y="0">Landslides</tspan></text>
   <text transform="matrix(1 0 0 -1 309.95 297.57)" font-size="10.024px" font-weight="bold" xml:space="preserve"><tspan x="0 6.0145202 12.109234 14.675428 20.890432 27.105436 33.320442" y="0">25,000 </tspan></text>
   <text transform="matrix(1 0 0 -1 310.36 286.77)" font-size="9px" xml:space="preserve"><tspan x="0 5.1209998 9.4949999 12.141 15.111 20.177999 27.450001 32.516998" y="0">Extreme </tspan><tspan x="-10.116 -7.4699998 -2.4030001 4.869 10.035 15.102 18.072001 22.815001 25.461 30.42 33.389999 38.457001" y="10.8">temperatures</tspan></text>
  </g>
  <g fill="none" stroke-miterlimit="10" stroke-width=".68">
   <path d="m442.32 497.74v-10.77c-0.954-10.325-12.268-9.403-33.694-9.641-4.208-0.047-7.691-0.615-10.566-1.537-7.359-2.36-11.168-9.332-11.168-16.024v-15.925" clip-path="url(#clipPath973)" stroke="#06179e"/>
   <path d="m228.29 279.34c-0.657-8.992-7.558-10.704-22.231-9.143-12.293 1.308-12.373-11.87-12.285-14.278 0.018-0.496 0.036-0.992 0.036-1.488v-12.411" clip-path="url(#clipPath1003)" stroke="#73519d"/>
   <path d="m228.29 279.35c0.657-8.991 7.475-9.145 22.231-9.142 5.214 1e-3 7.921-2.366 9.292-5.208 0.748-1.551 1.056-3.279 1.056-5.001v-41.973" clip-path="url(#clipPath1018)" stroke="#73519d"/>
  </g>
  <g fill="#73519d">
   <path d="m177.65 230.28c0 9.453 7.664 17.117 17.118 17.117s17.117-7.664 17.117-17.117c0-9.454-7.663-17.118-17.117-17.118s-17.118 7.664-17.118 17.118" clip-path="url(#clipPath1033)"/>
   <path d="m257.72 216.31c0 1.738 1.41 3.147 3.148 3.147 1.739 0 3.148-1.409 3.148-3.147 0-1.739-1.409-3.148-3.148-3.148-1.738 0-3.148 1.409-3.148 3.148" clip-path="url(#clipPath1048)"/>
   <g font-family="'Proxima Nova'">
    <text transform="matrix(1 0 0 -1 175.41 195.29)" font-size="10.024px" font-weight="bold" xml:space="preserve"><tspan x="0 6.0947137 12.109234 14.675428 20.890432 27.105436 33.320442" y="0">62,000 </tspan></text>
    <text transform="matrix(1 0 0 -1 156.77 184.49)" font-size="9px" xml:space="preserve"><tspan x="0 4.3649998 7.335 12.483 17.649 19.674 24.129 28.872 30.896999 33.219002 37.674 42.084 46.539001 48.563999 53.712002 58.671001 63.737999 67.922997 70.586998" y="0">Tropical cyclones/ </tspan><tspan x="16.038 20.556 24.966 30.132 35.099998 40.248001 45.396 50.355" y="10.8">Typhoons</tspan></text>
    <text transform="matrix(1 0 0 -1 248.27 195.29)" font-size="10.024px" font-weight="bold" xml:space="preserve"><tspan x="0 4.119946 6.6861415 12.780855 18.995859 25.210863" y="0">1,900 </tspan></text>
    <text transform="matrix(1 0 0 -1 249.6 184.49)" font-size="9px" xml:space="preserve"><tspan x="0 6.8850002 9.5310001 14.499 19.566 22.535999" y="0">Other </tspan><tspan x="-1.9349999 2.25 4.8959999 10.044 13.014 20.285999" y="10.8">storms</tspan></text>
   </g>
  </g>
  <path d="m102.38 333.42c0 12.442 10.086 22.528 22.529 22.528 12.442 0 22.529-10.086 22.529-22.528 0-12.443-10.087-22.529-22.529-22.529-12.443 0-22.529 10.086-22.529 22.529" clip-path="url(#clipPath1063)" fill="#018eca"/>
  <path d="m443.22 552.99v200.49c0 20.775-17.441 37.616-38.956 37.616h-71.742" clip-path="url(#clipPath1078)" fill="none" stroke="#06179e" stroke-miterlimit="10" stroke-width=".68"/>
  <path d="m176.59 552.99v200.49c0 20.775 17.162 37.616 38.331 37.616h70.591" clip-path="url(#clipPath1093)" fill="none" stroke="#018eca" stroke-miterlimit="10" stroke-width=".68"/>
  <text transform="matrix(1 0 0 -1 153.44 549.86)" fill="#ffffff" font-family="'Proxima Nova'" font-size="17px" font-weight="bold" xml:space="preserve"><tspan x="0 6.987 17.323 21.674999 31.823999" y="0">16.4m</tspan></text>
  <text transform="matrix(1 0 0 -1 148.57 540.26)" fill="#ffffff" font-family="'Proxima Nova'" font-size="8px" xml:space="preserve"><tspan x="0 6.744 11.248 15.464 17.816 22.232 26.736 29.375999 31.440001 34.080002 38.584 40.383999 44.599998 46.952 51.456001" y="0">Weather related</tspan></text>
 </g>
</svg>
