<svg xmlns="http://www.w3.org/2000/svg" viewBox="0 0 497.4 640.82"><defs><style>.cls-1,.cls-3,.cls-33{font-size:17px;}.cls-1,.cls-17,.cls-32{fill:#06179e;}.cls-1,.cls-17,.cls-23,.cls-24,.cls-3,.cls-33,.cls-7{font-family:ProximaNova-Bold, Proxima Nova;font-weight:700;}.cls-2{font-size:8px;}.cls-18,.cls-2,.cls-8{font-family:ProximaNova-Regular, Proxima Nova;font-weight:400;}.cls-23,.cls-3,.cls-30{fill:#018eca;}.cls-4{letter-spacing:-0.04em;}.cls-10,.cls-11,.cls-12,.cls-13,.cls-14,.cls-15,.cls-27,.cls-5,.cls-6,.cls-9{fill:none;}.cls-5{stroke:#646363;stroke-width:0.5px;}.cls-10,.cls-11,.cls-12,.cls-13,.cls-14,.cls-15,.cls-16,.cls-27,.cls-5,.cls-6,.cls-9{stroke-miterlimit:10;}.cls-11,.cls-6{stroke:#f48120;}.cls-13,.cls-14,.cls-6{stroke-linecap:round;stroke-width:28px;}.cls-7{font-size:31px;fill:#646363;}.cls-8{font-size:19px;}.cls-9{stroke:#1f8dc7;stroke-width:0.89px;}.cls-10,.cls-14{stroke:#06179e;}.cls-10,.cls-11,.cls-12,.cls-15,.cls-16,.cls-27{stroke-width:0.68px;}.cls-12{stroke:#0097d1;}.cls-13,.cls-15,.cls-16{stroke:#018eca;}.cls-16,.cls-33{fill:#fff;}.cls-17,.cls-23,.cls-24{font-size:10.02px;}.cls-18{font-size:9px;}.cls-19{letter-spacing:0em;}.cls-20{letter-spacing:-0.09em;}.cls-21{letter-spacing:-0.06em;}.cls-22{letter-spacing:-0.01em;}.cls-24,.cls-31{fill:#73519d;}.cls-25{letter-spacing:-0.02em;}.cls-26{letter-spacing:-0.02em;}.cls-27{stroke:#73519d;}.cls-28{letter-spacing:-0.09em;}.cls-29{letter-spacing:-0.06em;}</style></defs><g id="Layer_1" data-name="Layer 1"><text class="cls-1" transform="translate(300.78 135.99)">3.3m<tspan class="cls-2"><tspan x="-2.19" y="9.6">Geophysical</tspan></tspan></text><text class="cls-3" transform="translate(232.08 135.99)">72.5m<tspan class="cls-2"><tspan class="cls-4" x="-3.7" y="9.6">W</tspan><tspan x="3.04" y="9.6">eather related</tspan></tspan></text><line class="cls-5" x1="290.42" y1="124.65" x2="290.42" y2="147.16"/><path class="cls-6" d="M351.06,179.72a95.09,95.09,0,0,0,7.05-134.29C340.15,25.49,317.58,15,290.77,14"/><text class="cls-7" transform="translate(240.22 88.87)">75.9m</text><text class="cls-7" transform="translate(329.22 78.55) scale(0.58)">*<tspan class="cls-8" x="-167.41" y="45.96">Disaster displacements </tspan></text><path class="cls-9" d="M373,146.41"/><path class="cls-10" d="M414.72,210.86"/><path class="cls-11" d="M414.72,248.89"/><path class="cls-12" d="M181.08,215.85"/><circle class="cls-13" cx="287.47" cy="109.08" r="95.06"/><path class="cls-14" d="M290.41,14.07a91.14,91.14,0,0,1,30.78,6.14"/><path class="cls-15" d="M149.68,399.34v-54.2c-2.4,30.61-27.37,31.13-81.42,31.12-26.52,0-35.33,15.53-37.93,29.36a33.77,33.77,0,0,0-.55,6.19v62.34"/><line class="cls-16" x1="149.68" y1="360.62" x2="149.68" y2="481.77"/><path class="cls-15" d="M149.68,344v54.2c.82,13.1,9.78,12.94,28.18,13.24a21.81,21.81,0,0,1,9.08,1.95c6.32,3,10.36,10.83,10.36,19.32v46.09"/><path class="cls-15" d="M149.68,372.24c1.94,25.27,22.2,21.21,65.36,25.69,31.21,3.25,30.57,27.61,30.57,27.61v53.29"/><path class="cls-15" d="M149.68,255.46v91.12c2.89,25.26,32.88,28.32,97.68,25.69,54.89-2.23,47.21,41.59,48.53,42.81l.49,19v50.13"/><text class="cls-1" transform="translate(398.75 279.45)">3.3m<tspan class="cls-2"><tspan x="-2.19" y="9.6">Geophysical</tspan></tspan></text><path class="cls-10" d="M415.82,297v10.77c.95,10.32,12.26,9.4,33.69,9.64a35.75,35.75,0,0,1,10.57,1.54c7.35,2.36,11.16,9.33,11.16,16v21.15"/><line class="cls-10" x1="415.82" y1="308.11" x2="415.82" y2="358.62"/><text class="cls-17" transform="translate(345.92 377.42)">3.3m<tspan class="cls-18"><tspan x="-13.14" y="10.8">Earthqua</tspan><tspan class="cls-19" x="22.18" y="10.8">k</tspan><tspan x="26.78" y="10.8">es</tspan><tspan x="-15.49" y="21.6">and </tspan><tspan class="cls-20" x="1.73" y="21.6">T</tspan><tspan x="6.04" y="21.6">sunamis</tspan></tspan></text><text class="cls-17" transform="translate(402.51 377.42)">1,900 <tspan class="cls-18"><tspan class="cls-21" x="-4.01" y="10.8">V</tspan><tspan x="1.37" y="10.8">olcanic </tspan><tspan x="-5.96" y="21.6">eruptions</tspan></tspan></text><text class="cls-17" transform="translate(462.33 377.42)">360 <tspan class="cls-18"><tspan class="cls-22" x="-11.84" y="10.8">L</tspan><tspan x="-7.53" y="10.8">andslides</tspan></tspan></text><path class="cls-15" d="M149.55,345.14v54.2c-.93,13.1-28.18,12.13-37.49,12.4a28.86,28.86,0,0,0-10.35,1.95c-7.21,3-6.45,11.67-6.45,20.16v35.83"/><text class="cls-23" transform="translate(16.22 499.13)">41.3m<tspan class="cls-18"><tspan x="0.24" y="10.8">Floods</tspan></tspan></text><text class="cls-24" transform="translate(80.73 499.13)">3<tspan class="cls-25" x="5.88" y="0">0</tspan><tspan x="11.89" y="0">.4m</tspan><tspan class="cls-18"><tspan class="cls-26" x="0.83" y="10.8">S</tspan><tspan x="5.95" y="10.8">torms</tspan></tspan></text><text class="cls-23" transform="translate(130.96 499.13)">541<tspan class="cls-25" x="16.2" y="0">,</tspan><tspan x="18.54" y="0">000 </tspan><tspan class="cls-18"><tspan class="cls-22" x="-2.34" y="10.8">L</tspan><tspan x="1.97" y="10.8">andslides</tspan></tspan></text><text class="cls-23" transform="translate(178.69 499.13)">19<tspan class="cls-25" x="10.21" y="0">0,</tspan><tspan x="18.56" y="0" xml:space="preserve">000  </tspan><tspan class="cls-18"><tspan x="0.43" y="10.8">Droughts</tspan></tspan></text><text class="cls-23" transform="translate(229.12 499.13)">5<tspan class="cls-25" x="6.09" y="0">9,</tspan><tspan x="14.32" y="0">000 </tspan><tspan class="cls-18"><tspan x="-0.5" y="10.8">Wildfires</tspan></tspan></text><text class="cls-23" transform="translate(287.77 499.13)">520 <tspan class="cls-18"><tspan x="-7.1" y="10.8">Extreme </tspan><tspan x="-17.21" y="21.6">temperatures</tspan></tspan></text><path class="cls-10" d="M416,297v10.77c-.95,10.32-12.27,9.4-33.69,9.64a35.75,35.75,0,0,0-10.57,1.54c-7.36,2.36-11.17,9.33-11.17,16v15.93"/><path class="cls-27" d="M95.12,517.35c-.66,9-7.54,7.77-22.23,9.14-12.68,1.19-10.4,14.82-10.4,14.82v12.47"/><path class="cls-27" d="M95.12,517.34c.65,9,7.47,9.15,22.23,9.15,5.21,0,7.92,2.36,9.29,5.2a11.51,11.51,0,0,1,1.06,5v36.2"/><text class="cls-24" transform="translate(48.22 601.4)">21.9m<tspan class="cls-18"><tspan class="cls-28" x="-21.63" y="10.8">T</tspan><tspan x="-17.27" y="10.8">ropical cyclones/ </tspan><tspan class="cls-29" x="-5.62" y="21.6">T</tspan><tspan x="-1" y="21.6">yphoons</tspan></tspan></text><text class="cls-24" transform="translate(116.05 601.4)">8.5m<tspan class="cls-18"><tspan x="0.38" y="10.8">Other </tspan><tspan x="-1.55" y="21.6">storms</tspan></tspan></text><path class="cls-10" d="M413.75,242.59V42.1c0-20.78-17.16-37.62-38.33-37.62H304.83"/><path class="cls-15" d="M148.91,242.59V42.1c0-20.78,17.16-37.62,38.33-37.62h70.59"/></g><g id="EA-Flods"><circle class="cls-30" cx="30.85" cy="454.95" r="30.85"/></g><g id="SA-Storms"><circle class="cls-31" cx="95.23" cy="463.27" r="22.53"/></g><g id="SA-Landslides"><circle class="cls-30" cx="150.98" cy="474.39" r="11.41"/></g><g id="EA-Droughts"><circle class="cls-30" cx="197.58" cy="479.04" r="6.76"/></g><g id="EA-Wildfires"><circle class="cls-30" cx="245.61" cy="481.96" r="3.84"/></g><g id="EA-ExtremeTemperatures"><circle class="cls-30" cx="296.38" cy="484.15" r="1.65"/></g><g id="EA-TropicalCyclones"><circle class="cls-31" cx="63.63" cy="563.76" r="19.77"/></g><g id="EA-OtherStorms"><circle class="cls-31" cx="127.28" cy="573.65" r="9.88"/></g><g id="EA-GeoPhysical"><circle class="cls-32" cx="414.72" cy="251.35" r="8.76"/></g><g id="EA-Earthquakes"><circle class="cls-32" cx="361.76" cy="348.41" r="14.27"/></g><g id="EA-VolcanicEruptions"><circle class="cls-32" cx="416.19" cy="359.68" r="3"/></g><g id="Layer_13" data-name="Layer 13"><circle class="cls-32" cx="471.43" cy="359.68" r="3"/></g><g id="EA-WeatherRelated"><circle class="cls-30" cx="148.91" cy="246.02" r="59.86" transform="translate(-130.35 177.35) rotate(-45)"/><text class="cls-33" transform="translate(122.58 246.83)">72.5m<tspan class="cls-2"><tspan class="cls-4" x="-3.7" y="9.6">W</tspan><tspan x="3.04" y="9.6">eather related</tspan></tspan></text></g></svg>