<?xml version="1.0" encoding="UTF-8"?>
<!-- Created with Inkscape (http://www.inkscape.org/) -->
<svg width="656.2" height="833.52" version="1.1" viewBox="0 0 656.2 833.52" xmlns="http://www.w3.org/2000/svg">
 <defs>
  <clipPath id="clipPath4494">
   <path d="M 0,841.89 H 595.276 V 0 H 0 Z"/>
  </clipPath>
  <clipPath id="clipPath4509">
   <path d="M 0,841.89 H 595.276 V 0 H 0 Z"/>
  </clipPath>
  <clipPath id="clipPath4524">
   <path d="M 0,841.89 H 595.276 V 0 H 0 Z"/>
  </clipPath>
  <clipPath id="clipPath4539">
   <path d="M 0,841.89 H 595.276 V 0 H 0 Z"/>
  </clipPath>
  <clipPath id="clipPath4554">
   <path d="M 0,841.89 H 595.276 V 0 H 0 Z"/>
  </clipPath>
  <clipPath id="clipPath4569">
   <path d="M 0,841.89 H 595.276 V 0 H 0 Z"/>
  </clipPath>
  <clipPath id="clipPath4584">
   <path d="M 0,841.89 H 595.276 V 0 H 0 Z"/>
  </clipPath>
  <clipPath id="clipPath4599">
   <path d="M 0,841.89 H 595.276 V 0 H 0 Z"/>
  </clipPath>
  <clipPath id="clipPath4614">
   <path d="M 0,841.89 H 595.276 V 0 H 0 Z"/>
  </clipPath>
  <clipPath id="clipPath4629">
   <path d="M 0,841.89 H 595.276 V 0 H 0 Z"/>
  </clipPath>
  <clipPath id="clipPath4644">
   <path d="M 0,841.89 H 595.276 V 0 H 0 Z"/>
  </clipPath>
  <clipPath id="clipPath4659">
   <path d="M 0,841.89 H 595.276 V 0 H 0 Z"/>
  </clipPath>
  <clipPath id="clipPath4674">
   <path d="M 0,841.89 H 595.276 V 0 H 0 Z"/>
  </clipPath>
  <clipPath id="clipPath4689">
   <path d="M 0,841.89 H 595.276 V 0 H 0 Z"/>
  </clipPath>
  <clipPath id="clipPath4704">
   <path d="M 0,841.89 H 595.276 V 0 H 0 Z"/>
  </clipPath>
  <clipPath id="clipPath4719">
   <path d="M 0,841.89 H 595.276 V 0 H 0 Z"/>
  </clipPath>
  <clipPath id="clipPath4734">
   <path d="M 0,841.89 H 595.276 V 0 H 0 Z"/>
  </clipPath>
  <clipPath id="clipPath4749">
   <path d="M 0,841.89 H 595.276 V 0 H 0 Z"/>
  </clipPath>
  <clipPath id="clipPath4764">
   <path d="M 0,841.89 H 595.276 V 0 H 0 Z"/>
  </clipPath>
  <clipPath id="clipPath4779">
   <path d="M 0,841.89 H 595.276 V 0 H 0 Z"/>
  </clipPath>
  <clipPath id="clipPath4794">
   <path d="M 0,841.89 H 595.276 V 0 H 0 Z"/>
  </clipPath>
  <clipPath id="clipPath4809">
   <path d="M 0,841.89 H 595.276 V 0 H 0 Z"/>
  </clipPath>
  <clipPath id="clipPath4824">
   <path d="M 0,841.89 H 595.276 V 0 H 0 Z"/>
  </clipPath>
  <clipPath id="clipPath4839">
   <path d="M 0,841.89 H 595.276 V 0 H 0 Z"/>
  </clipPath>
  <clipPath id="clipPath4854">
   <path d="M 0,841.89 H 595.276 V 0 H 0 Z"/>
  </clipPath>
  <clipPath id="clipPath4869">
   <path d="M 0,841.89 H 595.276 V 0 H 0 Z"/>
  </clipPath>
  <clipPath id="clipPath4884">
   <path d="M 0,841.89 H 595.276 V 0 H 0 Z"/>
  </clipPath>
  <clipPath id="clipPath4899">
   <path d="M 0,841.89 H 595.276 V 0 H 0 Z"/>
  </clipPath>
  <clipPath id="clipPath4914">
   <path d="M 0,841.89 H 595.276 V 0 H 0 Z"/>
  </clipPath>
 </defs>
 <g transform="matrix(1.3333 0 0 -1.3333 -39.57 1062.2)">
  <g font-family="'Proxima Nova'">
   <text transform="matrix(1 0 0 -1 330.48 660.7)" fill="#06179e" font-size="17px" font-weight="bold" xml:space="preserve"><tspan x="0 9.9790001 14.331 24.309999" y="0">3.3m</tspan></text>
   <text transform="matrix(1 0 0 -1 328.27 651.1)" fill="#06179e" font-size="8px" xml:space="preserve"><tspan x="0 5.704 10.208 14.784 19.375999 23.792 27.712 31.431999 33.231998 37.192001 41.408001" y="0">Geophysical</tspan></text>
   <text transform="matrix(1 0 0 -1 261.78 660.7)" fill="#018eca" font-size="17px" font-weight="bold" xml:space="preserve"><tspan x="0 9.2650003 19.465 23.816999 34.153" y="0">72.5m</tspan></text>
   <text transform="matrix(1 0 0 -1 258.07 651.1)" fill="#018eca" font-size="8px" xml:space="preserve"><tspan x="0 6.744 11.248 15.464 17.816 22.232 26.736 29.375999 31.440001 34.080002 38.584 40.383999 44.599998 46.952 51.456001" y="0">Weather related</tspan></text>
  </g>
  <path d="m320.1 672.04v-22.506" fill="none" stroke="#646363" stroke-miterlimit="10" stroke-width=".5"/>
  <path d="m380.74 616.97c39.029 35.137 42.185 95.26 7.048 134.29-17.955 19.943-40.524 30.469-67.343 31.408" clip-path="url(#clipPath4539)" fill="none" stroke="#f48120" stroke-linecap="round" stroke-miterlimit="10" stroke-width="28"/>
  <g fill="#646363" font-family="'Proxima Nova'">
   <text transform="matrix(1 0 0 -1 269.93 707.82)" font-size="31px" font-weight="bold" xml:space="preserve"><tspan x="0 16.895 35.743 43.679001 62.527" y="0">75.9m</tspan></text>
   <text transform="matrix(1 0 0 -1 358.87 718.15)" font-size="18.073px" font-weight="bold" xml:space="preserve"><tspan x="0" y="0">*</tspan></text>
   <text transform="matrix(1 0 0 -1 261.32 691.35)" font-size="11.077px" xml:space="preserve"><tspan x="0 7.7539001 10.246225 15.39703 21.23461 26.385414 29.642052 35.878403 39.533813 42.391678 48.760956 51.253281 56.404083 62.762283 65.254608 71.092186 76.575302 82.811653 91.761871 97.998222 104.10165 107.35828 112.50909" y="0">Disaster displacements </tspan></text>
  </g>
  <path d="m444.4 554.11c-4.839 0-8.761-3.922-8.761-8.76 0-4.839 3.922-8.761 8.761-8.761 4.838 0 8.76 3.922 8.76 8.761 0 4.838-3.922 8.76-8.76 8.76" clip-path="url(#clipPath4824)" fill="#06179e"/>
  <path d="m406.03 653.89c-18.622-49.086-73.51-73.782-122.6-55.16-49.085 18.622-73.781 73.51-55.159 122.6 18.622 49.085 73.509 73.781 122.6 55.159s73.781-73.51 55.16-122.6z" clip-path="url(#clipPath4854)" fill="none" stroke="#018eca" stroke-linecap="round" stroke-miterlimit="10" stroke-width="28"/>
  <path d="m320.09 782.62c10.967-0.34 20.514-2.244 30.772-6.135" clip-path="url(#clipPath4914)" fill="none" stroke="#06179e" stroke-linecap="round" stroke-miterlimit="10" stroke-width="28"/>
  <path d="m178.58 610.53c-33.06 0-59.86-26.8-59.86-59.86s26.8-59.86 59.86-59.86 59.86 26.8 59.86 59.86-26.8 59.86-59.86 59.86" clip-path="url(#clipPath4839)" fill="#018eca"/>
  <path d="m179.36 397.35v54.201c-2.407-30.607-27.378-31.13-81.425-31.12-26.516 5e-3 -35.331-15.531-37.925-29.359-0.383-2.039-0.558-4.111-0.558-6.186v-62.345" clip-path="url(#clipPath4869)" fill="none" stroke="#018eca" stroke-miterlimit="10" stroke-width=".68"/>
  <path d="m179.36 436.07v-121.14" clip-path="url(#clipPath4494)" fill="#fff" stroke="#018eca" stroke-miterlimit="10" stroke-width=".68"/>
  <g fill="none" stroke="#018eca" stroke-miterlimit="10" stroke-width=".68">
   <path d="m179.36 452.66v-54.201c0.819-13.097 9.773-12.937 28.179-13.24 3.615-0.059 6.607-0.779 9.077-1.949 6.322-2.993 10.358-10.828 10.358-19.317v-46.085" clip-path="url(#clipPath4884)"/>
   <path d="m179.36 424.45c1.931-25.266 22.197-21.202 65.354-25.689 31.216-3.246 30.568-27.603 30.568-27.603v-53.291" clip-path="url(#clipPath4509)"/>
   <path d="m179.36 541.24v-91.122c2.887-25.265 32.878-28.323 97.676-25.688 54.891 2.232 47.214-41.597 48.533-42.81l0.482-18.972v-50.129" clip-path="url(#clipPath4899)"/>
  </g>
  <g fill="#06179e">
   <text transform="matrix(1 0 0 -1 428.44 517.25)" font-family="'Proxima Nova'" font-size="17px" font-weight="bold" xml:space="preserve"><tspan x="0 9.9790001 14.331 24.309999" y="0">3.3m</tspan></text>
   <text transform="matrix(1 0 0 -1 426.24 507.65)" font-family="'Proxima Nova'" font-size="8px" xml:space="preserve"><tspan x="0 5.704 10.208 14.784 19.375999 23.792 27.712 31.431999 33.231998 37.192001 41.408001" y="0">Geophysical</tspan></text>
   <path d="m377.17 448.28c0 7.878 6.387 14.266 14.266 14.266s14.265-6.388 14.265-14.266c0-7.879-6.386-14.266-14.265-14.266s-14.266 6.387-14.266 14.266" clip-path="url(#clipPath4524)"/>
   <path d="m442.87 437.02c0 1.657 1.344 3 3.001 3s3-1.343 3-3-1.343-3-3-3-3.001 1.343-3.001 3" clip-path="url(#clipPath4554)"/>
  </g>
  <path d="m445.49 499.74v-10.77c0.954-10.325 12.268-9.403 33.693-9.641 4.209-0.047 7.691-0.615 10.567-1.537 7.359-2.36 11.167-9.332 11.167-16.024v-21.152" clip-path="url(#clipPath4599)" fill="none" stroke="#06179e" stroke-miterlimit="10" stroke-width=".68"/>
  <path d="m445.49 488.59v-50.514" clip-path="url(#clipPath4809)" fill="none" stroke="#06179e" stroke-miterlimit="10" stroke-width=".68"/>
  <g fill="#06179e" font-family="'Proxima Nova'">
   <text transform="matrix(1 0 0 -1 375.61 419.28)" font-size="10.024px" font-weight="bold" xml:space="preserve"><tspan x="0 5.8842053 8.4504004 14.334606" y="0">3.3m</tspan></text>
   <text transform="matrix(1 0 0 -1 362.56 408.48)" font-size="9px" xml:space="preserve"><tspan x="0 5.1209998 9.8640003 12.834 15.48 20.448 25.614 30.573 35.316002 39.735001 44.801998" y="0">Earthquakes</tspan><tspan x="-2.4300001 2.313 7.2719998 12.447 14.769 19.08 23.264999 28.224001 33.182999 37.925999 45.198002 47.223" y="10.8">and Tsunamis</tspan></text>
   <text transform="matrix(1 0 0 -1 432.19 419.28)" font-size="10.024px" font-weight="bold" xml:space="preserve"><tspan x="0 4.119946 6.6861415 12.780855 18.995859 25.210863" y="0">1,900 </tspan></text>
   <text transform="matrix(1 0 0 -1 428.2 408.48)" font-size="9px" xml:space="preserve"><tspan x="0 5.382 10.53 12.555 17.01 21.753 26.712 28.737 33.192001" y="0">Volcanic </tspan><tspan x="-1.962 3.105 6.0749998 11.034 16.200001 18.846001 20.871 26.018999 30.978001" y="10.8">eruptions</tspan></text>
   <text transform="matrix(1 0 0 -1 492.01 419.28)" font-size="10.024px" font-weight="bold" xml:space="preserve"><tspan x="0 5.8842053 11.978919 18.193924" y="0">360 </tspan></text>
   <text transform="matrix(1 0 0 -1 480.1 408.48)" font-size="9px" xml:space="preserve"><tspan x="0 4.4640002 9.2069998 14.166 19.341 23.525999 25.551001 27.576 32.750999 37.818001" y="0">Landslides</tspan></text>
  </g>
  <g fill="#018eca">
   <path d="m29.678 341.74c0 17.037 13.812 30.849 30.85 30.849 17.037 0 30.849-13.812 30.849-30.849 0-17.038-13.812-30.85-30.849-30.85-17.038 0-30.85 13.812-30.85 30.85" clip-path="url(#clipPath4659)"/>
   <path d="m169.24 322.31c0 6.302 5.109 11.411 11.411 11.411s11.411-5.109 11.411-11.411c0-6.303-5.109-11.411-11.411-11.411s-11.411 5.108-11.411 11.411" clip-path="url(#clipPath4794)"/>
   <path d="m220.5 317.65c0 3.731 3.025 6.757 6.757 6.757 3.733 0 6.758-3.026 6.758-6.757 0-3.732-3.025-6.758-6.758-6.758-3.732 0-6.757 3.026-6.757 6.758" clip-path="url(#clipPath4569)"/>
   <path d="m271.45 314.73c0 2.12 1.719 3.839 3.839 3.839s3.839-1.719 3.839-3.839-1.719-3.839-3.839-3.839-3.839 1.719-3.839 3.839" clip-path="url(#clipPath4614)"/>
   <path d="m324.4 312.55c0 0.912 0.738 1.651 1.65 1.651 0.913 0 1.652-0.739 1.652-1.651 0-0.911-0.739-1.65-1.652-1.65-0.912 0-1.65 0.739-1.65 1.65" clip-path="url(#clipPath4629)"/>
  </g>
  <path d="m179.23 451.55v-54.201c-0.935-13.097-28.187-12.129-37.497-12.393-4.121-0.118-7.534-0.781-10.351-1.95-7.209-2.994-6.451-11.674-6.451-20.163v-35.832" clip-path="url(#clipPath4644)" fill="none" stroke="#018eca" stroke-miterlimit="10" stroke-width=".68"/>
  <g font-family="'Proxima Nova'">
   <text transform="matrix(1 0 0 -1 45.907 297.57)" fill="#018eca" font-size="10.024px" font-weight="bold" xml:space="preserve"><tspan x="0 5.9844475 10.104394 12.670588 18.554794" y="0">41.3m</tspan></text>
   <text transform="matrix(1 0 0 -1 46.139 286.77)" fill="#018eca" font-size="9px" xml:space="preserve"><tspan x="0 4.9499998 6.9749999 12.123 17.271 22.445999" y="0">Floods</tspan></text>
   <text transform="matrix(1 0 0 -1 110.42 297.57)" fill="#73519d" font-size="10.024px" font-weight="bold" xml:space="preserve"><tspan x="0 5.8842053 11.888701 14.454896 20.439344" y="0">30.4m</tspan></text>
   <text transform="matrix(1 0 0 -1 111.24 286.77)" fill="#73519d" font-size="9px" xml:space="preserve"><tspan x="0 5.1209998 7.7670002 12.915 15.885 23.157" y="0">Storms</tspan></text>
  </g>
  <g fill="#018eca" font-family="'Proxima Nova'">
   <text transform="matrix(1 0 0 -1 160.53 297.57)" font-size="10.024px" font-weight="bold" xml:space="preserve"><tspan x="0 6.0947137 12.079161 16.199108 18.765303 24.980307 31.195311 37.410313" y="0">541,000 </tspan></text>
   <text transform="matrix(1 0 0 -1 158.23 286.77)" font-size="9px" xml:space="preserve"><tspan x="0 4.4640002 9.2069998 14.166 19.341 23.525999 25.551001 27.576 32.750999 37.818001" y="0">Landslides</tspan></text>
   <text transform="matrix(1 0 0 -1 208.26 297.57)" font-size="10.024px" font-weight="bold" xml:space="preserve"><tspan x="0 4.119946 10.21466 16.219156 18.785351 25.000355 31.215359 37.430363" y="0">190,000 </tspan></text>
   <text transform="matrix(1 0 0 -1 208.81 286.77)" font-size="9px" xml:space="preserve"><tspan x="0 6.3000002 9.2700005 14.418 19.377001 24.542999 29.511 32.157001" y="0">Droughts</tspan></text>
   <text transform="matrix(1 0 0 -1 258.69 297.57)" font-size="10.024px" font-weight="bold" xml:space="preserve"><tspan x="0 6.0947137 11.978919 14.545115 20.760118 26.975122 33.190125" y="0">59,000 </tspan></text>
   <text transform="matrix(1 0 0 -1 258.3 286.77)" font-size="9px" xml:space="preserve"><tspan x="0 7.947 9.9720001 11.997 17.172001 21.753 24.723 29.790001" y="0">Wildfres</tspan></text>
   <text transform="matrix(1 0 0 -1 317.45 297.57)" font-size="10.024px" font-weight="bold" xml:space="preserve"><tspan x="0 6.0947137 12.109234 18.324238" y="0">520 </tspan></text>
   <text transform="matrix(1 0 0 -1 310.36 286.77)" font-size="9px" xml:space="preserve"><tspan x="0 5.1209998 9.4949999 12.141 15.111 20.177999 27.450001 32.516998" y="0">Extreme </tspan><tspan x="-10.116 -7.4699998 -2.4030001 4.869 10.035 15.102 18.072001 22.815001 25.461 30.42 33.389999 38.457001" y="10.8">temperatures</tspan></text>
  </g>
  <g fill="none" stroke-miterlimit="10" stroke-width=".68">
   <path d="m445.68 499.74v-10.77c-0.954-10.325-12.268-9.403-33.693-9.641-4.209-0.047-7.691-0.615-10.567-1.537-7.359-2.36-11.167-9.332-11.167-16.024v-15.925" clip-path="url(#clipPath4674)" stroke="#06179e"/>
   <path d="m124.8 279.34c-0.657-8.992-7.539-7.768-22.231-9.143-12.672-1.185-10.398-14.816-10.398-14.816v-12.474" clip-path="url(#clipPath4689)" stroke="#73519d"/>
   <path d="m124.8 279.35c0.657-8.991 7.475-9.145 22.231-9.142 5.214 1e-3 7.921-2.366 9.292-5.208 0.749-1.551 1.057-3.279 1.057-5.001v-36.204" clip-path="url(#clipPath4704)" stroke="#73519d"/>
  </g>
  <g fill="#73519d">
   <path d="m73.539 232.93c0 10.916 8.849 19.766 19.766 19.766 10.916 0 19.766-8.85 19.766-19.766 0-10.917-8.85-19.767-19.766-19.767-10.917 0-19.766 8.85-19.766 19.767" clip-path="url(#clipPath4719)"/>
   <path d="m147.08 223.05c0 5.459 4.425 9.884 9.883 9.884s9.883-4.425 9.883-9.884c0-5.458-4.425-9.883-9.883-9.883s-9.883 4.425-9.883 9.883" clip-path="url(#clipPath4734)"/>
   <g font-family="'Proxima Nova'">
    <text transform="matrix(1 0 0 -1 77.91 195.29)" font-size="10.024px" font-weight="bold" xml:space="preserve"><tspan x="0 6.0145202 10.134466 12.700662 18.795376" y="0">21.9m</tspan></text>
    <text transform="matrix(1 0 0 -1 56.285 184.49)" font-size="9px" xml:space="preserve"><tspan x="0 4.3649998 7.335 12.483 17.649 19.674 24.129 28.872 30.896999 33.219002 37.674 42.084 46.539001 48.563999 53.712002 58.671001 63.737999 67.922997 70.586998" y="0">Tropical cyclones/ </tspan><tspan x="16.038 20.556 24.966 30.132 35.099998 40.248001 45.396 50.355" y="10.8">Typhoons</tspan></text>
    <text transform="matrix(1 0 0 -1 145.74 195.29)" font-size="10.024px" font-weight="bold" xml:space="preserve"><tspan x="0 6.0746651 8.6408606 14.735574" y="0">8.5m</tspan></text>
    <text transform="matrix(1 0 0 -1 146.11 184.49)" font-size="9px" xml:space="preserve"><tspan x="0 6.8850002 9.5310001 14.499 19.566 22.535999" y="0">Other </tspan><tspan x="-1.9349999 2.25 4.8959999 10.044 13.014 20.285999" y="10.8">storms</tspan></text>
   </g>
   <path d="m102.38 333.42c0 12.442 10.086 22.528 22.529 22.528 12.442 0 22.529-10.086 22.529-22.528 0-12.443-10.087-22.529-22.529-22.529-12.443 0-22.529 10.086-22.529 22.529" clip-path="url(#clipPath4749)"/>
  </g>
  <path d="m498.11 437.02c0 1.657 1.343 3 3 3s3-1.343 3-3-1.343-3-3-3-3 1.343-3 3" clip-path="url(#clipPath4584)" fill="#06179e"/>
  <path d="m443.43 554.11v200.49c0 20.775-17.162 37.616-38.332 37.616h-70.591" clip-path="url(#clipPath4764)" fill="none" stroke="#06179e" stroke-miterlimit="10" stroke-width=".68"/>
  <path d="m178.58 554.11v200.49c0 20.775 17.161 37.616 38.331 37.616h70.591" clip-path="url(#clipPath4779)" fill="none" stroke="#018eca" stroke-miterlimit="10" stroke-width=".68"/>
  <text transform="matrix(1 0 0 -1 152.27 549.86)" fill="#ffffff" font-family="'Proxima Nova'" font-size="17px" font-weight="bold" xml:space="preserve"><tspan x="0 9.2650003 19.465 23.816999 34.153" y="0">72.5m</tspan></text>
  <text transform="matrix(1 0 0 -1 148.57 540.26)" fill="#ffffff" font-family="'Proxima Nova'" font-size="8px" xml:space="preserve"><tspan x="0 6.744 11.248 15.464 17.816 22.232 26.736 29.375999 31.440001 34.080002 38.584 40.383999 44.599998 46.952 51.456001" y="0">Weather related</tspan></text>
 </g>
</svg>
