<svg xmlns="http://www.w3.org/2000/svg" viewBox="0 0 497.4 640.85"><defs><style>.cls-1,.cls-12,.cls-3,.cls-33{font-size:17px;}.cls-1{fill:#243f8d;}.cls-1,.cls-12,.cls-14,.cls-19,.cls-21,.cls-3,.cls-33,.cls-7{font-family:ProximaNova-Bold, Proxima Nova;font-weight:700;}.cls-2{font-size:8px;}.cls-15,.cls-2,.cls-8{font-family:ProximaNova-Regular, Proxima Nova;font-weight:400;}.cls-19,.cls-3,.cls-30{fill:#018eca;}.cls-4{letter-spacing:-0.02em;}.cls-5{letter-spacing:-0.04em;}.cls-11,.cls-13,.cls-25,.cls-28,.cls-29,.cls-6,.cls-9{fill:none;}.cls-6{stroke:#646363;stroke-width:0.5px;}.cls-10,.cls-11,.cls-13,.cls-25,.cls-28,.cls-29,.cls-6,.cls-9{stroke-miterlimit:10;}.cls-7{font-size:31px;fill:#646363;}.cls-8{font-size:19px;}.cls-10,.cls-28,.cls-9{stroke:#018eca;}.cls-10,.cls-11,.cls-13,.cls-25,.cls-9{stroke-width:0.68px;}.cls-10,.cls-33{fill:#fff;}.cls-11{stroke:#0097d1;}.cls-12,.cls-14,.cls-32{fill:#06179e;}.cls-13,.cls-29{stroke:#06179e;}.cls-14,.cls-19,.cls-21{font-size:10.02px;}.cls-15{font-size:9px;}.cls-16{letter-spacing:0em;}.cls-17{letter-spacing:-0.09em;}.cls-18{letter-spacing:-0.01em;}.cls-20{letter-spacing:-0.09em;}.cls-21,.cls-31{fill:#73519d;}.cls-22{letter-spacing:-0.02em;}.cls-23{letter-spacing:-0.02em;}.cls-24{letter-spacing:-0.07em;}.cls-25{stroke:#73519d;}.cls-26{letter-spacing:-0.09em;}.cls-27{letter-spacing:-0.06em;}.cls-28,.cls-29{stroke-linecap:round;stroke-width:28px;}</style></defs><g id="Layer_1" data-name="Layer 1"><text class="cls-1" transform="translate(300.49 136.02)">2.9m<tspan class="cls-2"><tspan x="-1.9" y="9.6">Geophysical</tspan></tspan></text><text class="cls-3" transform="translate(231.68 136.02)">58<tspan class="cls-4" x="20.64" y="0">.</tspan><tspan x="24.65" y="0">6m</tspan><tspan class="cls-2"><tspan class="cls-5" x="-3.3" y="9.6">W</tspan><tspan x="3.45" y="9.6">eather related</tspan></tspan></text><line class="cls-6" x1="290.42" y1="124.68" x2="290.42" y2="146.44"/><text class="cls-7" transform="translate(242.47 88.92)">61.4m</text><text class="cls-7" transform="translate(326.97 78.6) scale(0.58)">*<tspan class="cls-8" x="-163.55" y="45.96">Disaster displacements </tspan></text><path class="cls-9" d="M149.68,399.37v-54.2c-2.4,30.61-27.37,31.13-81.42,31.12-26.52,0-35.33,15.53-37.93,29.36a33.74,33.74,0,0,0-.55,6.18v62.35"/><line class="cls-10" x1="149.68" y1="360.65" x2="149.68" y2="481.79"/><path class="cls-9" d="M149.68,344.06v54.2c.82,13.1,9.78,12.94,28.18,13.24a21.81,21.81,0,0,1,9.08,1.95c6.32,3,10.36,10.83,10.36,19.32v46.08"/><path class="cls-9" d="M149.68,344.06c1.94,31.95,22.2,26.81,65.36,32.49,31.21,4.1,30.57,34.91,30.57,34.91v67.39"/><line class="cls-11" x1="149.68" y1="255.48" x2="149.68" y2="346.6"/><text class="cls-12" transform="translate(398.46 279.47)">2.9m<tspan class="cls-2"><tspan x="-1.9" y="9.6">Geophysical</tspan></tspan></text><path class="cls-13" d="M416,299v10.76c1,10.33,12.27,9.41,33.7,9.65a35.7,35.7,0,0,1,10.56,1.53c7.36,2.36,11.17,9.34,11.17,16v33.47"/><text class="cls-14" transform="translate(349.14 388.44)">2.9m<tspan class="cls-15"><tspan x="-12.97" y="10.8">Earthqua</tspan><tspan class="cls-16" x="22.35" y="10.8">k</tspan><tspan x="26.95" y="10.8">es</tspan><tspan x="-15.32" y="21.6">and </tspan><tspan class="cls-17" x="1.9" y="21.6">T</tspan><tspan x="6.21" y="21.6">sunamis</tspan></tspan></text><text class="cls-14" transform="translate(462.48 388.44)">700 <tspan class="cls-15"><tspan class="cls-18" x="-11.99" y="10.8">L</tspan><tspan x="-7.68" y="10.8">andslides</tspan></tspan></text><path class="cls-9" d="M149.55,345.17v54.2c-.93,13.1-28.18,12.13-37.49,12.39a29.08,29.08,0,0,0-10.35,1.95c-7.21,3-6.45,11.68-6.45,20.16v35.84"/><text class="cls-19" transform="translate(16.02 499.15)">3<tspan class="cls-20" x="5.88" y="0">7</tspan><tspan x="10.41" y="0">.4m</tspan><tspan class="cls-15"><tspan x="0.44" y="10.8">Floods</tspan></tspan></text><text class="cls-21" transform="translate(85.89 499.15)">21m<tspan class="cls-15"><tspan class="cls-22" x="-4.33" y="10.8">S</tspan><tspan x="0.79" y="10.8">torms</tspan></tspan></text><text class="cls-19" transform="translate(130.94 499.15)">152<tspan class="cls-23" x="16.23" y="0">,</tspan><tspan x="18.58" y="0" xml:space="preserve">000  </tspan><tspan class="cls-15"><tspan class="cls-18" x="-2.32" y="10.8">L</tspan><tspan x="1.99" y="10.8">andslides</tspan></tspan></text><text class="cls-19" transform="translate(180.81 499.15)">63<tspan class="cls-23" x="11.98" y="0">,</tspan><tspan x="14.32" y="0" xml:space="preserve">000  </tspan><tspan class="cls-15"><tspan x="-1.69" y="10.8">Droughts</tspan></tspan></text><text class="cls-19" transform="translate(233.69 499.15)">1<tspan class="cls-24" x="4.12" y="0">,</tspan><tspan x="5.94" y="0">700 </tspan><tspan class="cls-15"><tspan x="-5.07" y="10.8">Wildfires</tspan></tspan></text><path class="cls-13" d="M416.19,299v10.76c-1,10.33-12.27,9.41-33.7,9.65a35.7,35.7,0,0,0-10.56,1.53c-7.36,2.36-11.17,9.34-11.17,16v15.92"/><path class="cls-25" d="M95.12,517.38c-.66,9-7.51,10.1-22.23,9.14-10.42-.68-11,7.4-10.6,13.24.14,2.32.2,4.65.2,7v9.13"/><path class="cls-25" d="M95.12,517.37c.65,9,7.47,9.14,22.23,9.14,5.21,0,7.92,2.37,9.29,5.21a11.47,11.47,0,0,1,1.06,5v36.2"/><text class="cls-21" transform="translate(49.07 601.43)">1<tspan class="cls-20" x="4.12" y="0">7</tspan><tspan class="cls-23" x="8.64" y="0">.</tspan><tspan x="11.01" y="0">6m</tspan><tspan class="cls-15"><tspan class="cls-26" x="-22.48" y="10.8">T</tspan><tspan x="-18.12" y="10.8">ropical cyclones/ </tspan><tspan class="cls-27" x="-6.47" y="21.6">T</tspan><tspan x="-1.85" y="21.6">yphoons</tspan></tspan></text><text class="cls-21" transform="translate(116.2 601.43)">3.4m<tspan class="cls-15"><tspan x="0.23" y="10.8">Other </tspan><tspan x="-1.71" y="21.6">storms</tspan></tspan></text><circle class="cls-28" cx="287.47" cy="109.52" r="95.49"/><path class="cls-29" d="M293.33,14.21a92.35,92.35,0,0,1,27.61,5.87"/><path class="cls-13" d="M416,243.73V43.24c0-20.77-17.44-37.61-38.95-37.61H305.3"/><path class="cls-9" d="M149.38,243.73V43.24c0-20.77,17.16-37.61,38.33-37.61H258.3"/></g><g id="SouthAsia-Floods"><circle class="cls-30" cx="30.85" cy="454.98" r="30.85"/></g><g id="SouthAsia-Storms"><circle class="cls-31" cx="95.23" cy="463.3" r="22.53"/></g><g id="SouthAsia-Landslides"><circle class="cls-30" cx="150.98" cy="474.41" r="11.41"/></g><g id="SouthAsia-Droughts"><circle class="cls-30" cx="197.58" cy="478.92" r="6.76"/></g><g id="SouthAsia-Wildfires"><circle class="cls-30" cx="245.61" cy="480.36" r="3.84"/></g><g id="SouthAsia-TropicalCyclones"><circle class="cls-31" cx="62.27" cy="565.79" r="17.76"/></g><g id="SouthAsia-OtherStorms"><circle class="cls-31" cx="127.7" cy="573.26" r="10.3"/></g><g id="SouthAsia-Earthquakes"><circle class="cls-32" cx="360.76" cy="359.43" r="14.27"/></g><g id="SouthAsia-GeoPhysical-Landslides"><circle class="cls-32" cx="471.43" cy="372.06" r="1.64"/></g><g id="SouthAsia-GeoPhysical"><circle class="cls-32" cx="416" cy="247.86" r="12.27"/></g><g id="SouthAsia-WeatherRelated"><circle class="cls-30" cx="148.91" cy="246.05" r="59.86" transform="translate(-130.37 177.36) rotate(-45)"/><text class="cls-33" transform="translate(124.17 245.86)">58<tspan class="cls-4" x="20.64" y="0">.</tspan><tspan x="24.65" y="0">6m</tspan><tspan class="cls-2"><tspan class="cls-5" x="-3.3" y="9.6">W</tspan><tspan x="3.45" y="9.6">eather related</tspan></tspan></text></g></svg>