<?xml version="1.0" encoding="UTF-8"?>
<!-- Created with Inkscape (http://www.inkscape.org/) -->
<svg width="656.2" height="833.54" version="1.1" viewBox="0 0 656.2 833.54" xmlns="http://www.w3.org/2000/svg">
 <defs>
  <clipPath id="clipPath746">
   <path d="M 0,841.89 H 595.276 V 0 H 0 Z"/>
  </clipPath>
  <clipPath id="clipPath761">
   <path d="M 0,841.89 H 595.276 V 0 H 0 Z"/>
  </clipPath>
  <clipPath id="clipPath776">
   <path d="M 0,841.89 H 595.276 V 0 H 0 Z"/>
  </clipPath>
  <clipPath id="clipPath791">
   <path d="M 0,841.89 H 595.276 V 0 H 0 Z"/>
  </clipPath>
  <clipPath id="clipPath806">
   <path d="M 0,841.89 H 595.276 V 0 H 0 Z"/>
  </clipPath>
  <clipPath id="clipPath821">
   <path d="M 0,841.89 H 595.276 V 0 H 0 Z"/>
  </clipPath>
  <clipPath id="clipPath836">
   <path d="M 0,841.89 H 595.276 V 0 H 0 Z"/>
  </clipPath>
  <clipPath id="clipPath851">
   <path d="M 0,841.89 H 595.276 V 0 H 0 Z"/>
  </clipPath>
  <clipPath id="clipPath866">
   <path d="M 0,841.89 H 595.276 V 0 H 0 Z"/>
  </clipPath>
  <clipPath id="clipPath881">
   <path d="M 0,841.89 H 595.276 V 0 H 0 Z"/>
  </clipPath>
  <clipPath id="clipPath896">
   <path d="M 0,841.89 H 595.276 V 0 H 0 Z"/>
  </clipPath>
  <clipPath id="clipPath911">
   <path d="M 0,841.89 H 595.276 V 0 H 0 Z"/>
  </clipPath>
  <clipPath id="clipPath926">
   <path d="M 0,841.89 H 595.276 V 0 H 0 Z"/>
  </clipPath>
  <clipPath id="clipPath941">
   <path d="M 0,841.89 H 595.276 V 0 H 0 Z"/>
  </clipPath>
  <clipPath id="clipPath956">
   <path d="M 0,841.89 H 595.276 V 0 H 0 Z"/>
  </clipPath>
  <clipPath id="clipPath971">
   <path d="M 0,841.89 H 595.276 V 0 H 0 Z"/>
  </clipPath>
  <clipPath id="clipPath986">
   <path d="M 0,841.89 H 595.276 V 0 H 0 Z"/>
  </clipPath>
  <clipPath id="clipPath1001">
   <path d="M 0,841.89 H 595.276 V 0 H 0 Z"/>
  </clipPath>
  <clipPath id="clipPath1016">
   <path d="M 0,841.89 H 595.276 V 0 H 0 Z"/>
  </clipPath>
  <clipPath id="clipPath1031">
   <path d="M 0,841.89 H 595.276 V 0 H 0 Z"/>
  </clipPath>
  <clipPath id="clipPath1046">
   <path d="M 0,841.89 H 595.276 V 0 H 0 Z"/>
  </clipPath>
  <clipPath id="clipPath1061">
   <path d="M 0,841.89 H 595.276 V 0 H 0 Z"/>
  </clipPath>
  <clipPath id="clipPath1076">
   <path d="M 0,841.89 H 595.276 V 0 H 0 Z"/>
  </clipPath>
  <clipPath id="clipPath1091">
   <path d="M 0,841.89 H 595.276 V 0 H 0 Z"/>
  </clipPath>
  <clipPath id="clipPath1106">
   <path d="M 0,841.89 H 595.276 V 0 H 0 Z"/>
  </clipPath>
 </defs>
 <g transform="matrix(1.3333 0 0 -1.3333 -39.57 1062.2)">
  <g font-family="'Proxima Nova'">
   <text transform="matrix(1 0 0 -1 330.19 660.7)" fill="#243f8d" font-size="17px" font-weight="bold" xml:space="preserve"><tspan x="0 10.2 14.552 24.888" y="0">2.9m</tspan></text>
   <text transform="matrix(1 0 0 -1 328.27 651.1)" fill="#243f8d" font-size="8px" xml:space="preserve"><tspan x="0 5.704 10.208 14.784 19.375999 23.792 27.712 31.431999 33.231998 37.192001 41.408001" y="0">Geophysical</tspan></text>
   <text transform="matrix(1 0 0 -1 261.19 660.7)" fill="#018eca" font-size="17px" font-weight="bold" xml:space="preserve"><tspan x="0 10.336 20.638 24.99 35.326" y="0">58.6m</tspan></text>
   <text transform="matrix(1 0 0 -1 258.07 651.1)" fill="#018eca" font-size="8px" xml:space="preserve"><tspan x="0 6.744 11.248 15.464 17.816 22.232 26.736 29.375999 31.440001 34.080002 38.584 40.383999 44.599998 46.952 51.456001" y="0">Weather related</tspan></text>
  </g>
  <path d="m320.1 672.04v-21.757" fill="none" stroke="#646363" stroke-miterlimit="10" stroke-width=".5"/>
  <g fill="#646363" font-family="'Proxima Nova'">
   <text transform="matrix(1 0 0 -1 272.18 707.8)" font-size="31px" font-weight="bold" xml:space="preserve"><tspan x="0 18.848 31.589001 39.525002 58.032001" y="0">61.4m</tspan></text>
   <text transform="matrix(1 0 0 -1 356.62 718.12)" font-size="18.073px" font-weight="bold" xml:space="preserve"><tspan x="0" y="0">*</tspan></text>
   <text transform="matrix(1 0 0 -1 261.32 691.33)" font-size="11.077px" xml:space="preserve"><tspan x="0 7.7539001 10.246225 15.39703 21.23461 26.385414 29.642052 35.878403 39.533813 42.391678 48.760956 51.253281 56.404083 62.762283 65.254608 71.092186 76.575302 82.811653 91.761871 97.998222 104.10165 107.35828 112.50909" y="0">Disaster displacements </tspan></text>
  </g>
  <path d="m445.68 561.13c-6.775 0-12.269-5.493-12.269-12.268 0-6.776 5.494-12.269 12.269-12.269s12.269 5.493 12.269 12.269c0 6.775-5.494 12.268-12.269 12.268" clip-path="url(#clipPath761)" fill="#06179e"/>
  <path d="m178.58 610.53c-33.06 0-59.86-26.8-59.86-59.86s26.8-59.86 59.86-59.86 59.86 26.8 59.86 59.86-26.8 59.86-59.86 59.86" clip-path="url(#clipPath806)" fill="#018eca"/>
  <path d="m179.36 397.35v54.201c-2.407-30.607-27.378-31.13-81.425-31.12-26.516 5e-3 -35.331-15.531-37.925-29.359-0.383-2.039-0.558-4.111-0.558-6.186v-62.345" clip-path="url(#clipPath1031)" fill="none" stroke="#018eca" stroke-miterlimit="10" stroke-width=".68"/>
  <path d="m179.36 436.07v-121.14" clip-path="url(#clipPath776)" fill="#fff" stroke="#018eca" stroke-miterlimit="10" stroke-width=".68"/>
  <g fill="none" stroke-miterlimit="10" stroke-width=".68">
   <path d="m179.36 452.66v-54.201c0.819-13.097 9.773-12.937 28.179-13.24 3.615-0.059 6.607-0.779 9.077-1.949 6.322-2.993 10.358-10.828 10.358-19.317v-46.085" clip-path="url(#clipPath1046)" stroke="#018eca"/>
   <path d="m179.36 452.66c1.932-31.953 22.197-26.813 65.354-32.488 31.216-4.104 30.568-34.908 30.568-34.908v-67.396" clip-path="url(#clipPath1061)" stroke="#018eca"/>
   <path d="m179.36 541.24v-91.122" clip-path="url(#clipPath1076)" stroke="#0097d1"/>
  </g>
  <g fill="#06179e">
   <text transform="matrix(1 0 0 -1 428.15 517.25)" font-family="'Proxima Nova'" font-size="17px" font-weight="bold" xml:space="preserve"><tspan x="0 10.2 14.552 24.888" y="0">2.9m</tspan></text>
   <text transform="matrix(1 0 0 -1 426.24 507.65)" font-family="'Proxima Nova'" font-size="8px" xml:space="preserve"><tspan x="0 5.704 10.208 14.784 19.375999 23.792 27.712 31.431999 33.231998 37.192001 41.408001" y="0">Geophysical</tspan></text>
   <path d="m376.17 437.29c0 7.879 6.387 14.266 14.266 14.266 7.878 0 14.265-6.387 14.265-14.266 0-7.878-6.387-14.266-14.265-14.266-7.879 0-14.266 6.388-14.266 14.266" clip-path="url(#clipPath821)"/>
   <path d="m499.47 424.66c0 0.904 0.732 1.637 1.637 1.637 0.904 0 1.636-0.733 1.636-1.637s-0.732-1.637-1.636-1.637c-0.905 0-1.637 0.733-1.637 1.637" clip-path="url(#clipPath1106)"/>
  </g>
  <path d="m445.68 497.74v-10.77c0.954-10.325 12.268-9.403 33.693-9.641 4.208-0.047 7.691-0.615 10.567-1.537 7.358-2.36 11.167-9.332 11.167-16.024v-33.469" clip-path="url(#clipPath1091)" fill="none" stroke="#06179e" stroke-miterlimit="10" stroke-width=".68"/>
  <g fill="#06179e" font-family="'Proxima Nova'">
   <text transform="matrix(1 0 0 -1 378.83 408.28)" font-size="10.024px" font-weight="bold" xml:space="preserve"><tspan x="0 6.0145202 8.5807152 14.675428" y="0">2.9m</tspan></text>
   <text transform="matrix(1 0 0 -1 365.95 397.48)" font-size="9px" xml:space="preserve"><tspan x="0 5.1209998 9.8640003 12.834 15.48 20.448 25.614 30.573 35.316002 39.735001 44.801998" y="0">Earthquakes</tspan><tspan x="-2.4300001 2.313 7.2719998 12.447 14.769 19.08 23.264999 28.224001 33.182999 37.925999 45.198002 47.223" y="10.8">and Tsunamis</tspan></text>
   <text transform="matrix(1 0 0 -1 492.16 408.28)" font-size="10.024px" font-weight="bold" xml:space="preserve"><tspan x="0 5.4631891 11.678193 17.893196" y="0">700 </tspan></text>
   <text transform="matrix(1 0 0 -1 480.1 397.48)" font-size="9px" xml:space="preserve"><tspan x="0 4.4640002 9.2069998 14.166 19.341 23.525999 25.551001 27.576 32.750999 37.818001" y="0">Landslides</tspan></text>
  </g>
  <g fill="#018eca">
   <path d="m29.678 341.74c0 17.037 13.812 30.849 30.85 30.849 17.037 0 30.849-13.812 30.849-30.849 0-17.038-13.812-30.85-30.849-30.85-17.038 0-30.85 13.812-30.85 30.85" clip-path="url(#clipPath866)"/>
   <path d="m169.24 322.31c0 6.302 5.109 11.411 11.411 11.411s11.411-5.109 11.411-11.411c0-6.303-5.109-11.411-11.411-11.411s-11.411 5.108-11.411 11.411" clip-path="url(#clipPath746)"/>
   <path d="m220.5 317.8c0 3.731 3.025 6.758 6.757 6.758 3.733 0 6.758-3.027 6.758-6.758 0-3.732-3.025-6.758-6.758-6.758-3.732 0-6.757 3.026-6.757 6.758" clip-path="url(#clipPath791)"/>
   <path d="m271.45 316.35c0 2.12 1.719 3.839 3.839 3.839s3.839-1.719 3.839-3.839-1.719-3.839-3.839-3.839-3.839 1.719-3.839 3.839" clip-path="url(#clipPath836)"/>
  </g>
  <path d="m179.23 451.55v-54.201c-0.935-13.097-28.187-12.129-37.497-12.393-4.121-0.118-7.534-0.781-10.351-1.95-7.209-2.994-6.451-11.674-6.451-20.163v-35.832" clip-path="url(#clipPath851)" fill="none" stroke="#018eca" stroke-miterlimit="10" stroke-width=".68"/>
  <g font-family="'Proxima Nova'">
   <text transform="matrix(1 0 0 -1 45.706 297.57)" fill="#018eca" font-size="10.024px" font-weight="bold" xml:space="preserve"><tspan x="0 5.8842053 10.40512 12.971314 18.955763" y="0">37.4m</tspan></text>
   <text transform="matrix(1 0 0 -1 46.139 286.77)" fill="#018eca" font-size="9px" xml:space="preserve"><tspan x="0 4.9499998 6.9749999 12.123 17.271 22.445999" y="0">Floods</tspan></text>
   <text transform="matrix(1 0 0 -1 115.57 297.57)" fill="#73519d" font-size="10.024px" font-weight="bold" xml:space="preserve"><tspan x="0 6.0145202 10.134466" y="0">21m</tspan></text>
   <text transform="matrix(1 0 0 -1 111.24 286.77)" fill="#73519d" font-size="9px" xml:space="preserve"><tspan x="0 5.1209998 7.7670002 12.915 15.885 23.157" y="0">Storms</tspan></text>
  </g>
  <g fill="#018eca" font-family="'Proxima Nova'">
   <text transform="matrix(1 0 0 -1 160.51 297.57)" font-size="10.024px" font-weight="bold" xml:space="preserve"><tspan x="0 4.119946 10.21466 16.229179 18.795376 25.01038 31.225384 37.440388" y="0">152,000 </tspan></text>
   <text transform="matrix(1 0 0 -1 158.23 286.77)" font-size="9px" xml:space="preserve"><tspan x="0 4.4640002 9.2069998 14.166 19.341 23.525999 25.551001 27.576 32.750999 37.818001" y="0">Landslides</tspan></text>
   <text transform="matrix(1 0 0 -1 210.38 297.57)" font-size="10.024px" font-weight="bold" xml:space="preserve"><tspan x="0 6.0947137 11.978919 14.545115 20.760118 26.975122 33.190125" y="0">63,000 </tspan></text>
   <text transform="matrix(1 0 0 -1 208.81 286.77)" font-size="9px" xml:space="preserve"><tspan x="0 6.3000002 9.2700005 14.418 19.377001 24.542999 29.511 32.157001" y="0">Droughts</tspan></text>
   <text transform="matrix(1 0 0 -1 263.36 297.57)" font-size="10.024px" font-weight="bold" xml:space="preserve"><tspan x="0 4.119946 5.9543748 11.417563 17.632568 23.847572" y="0">1,700 </tspan></text>
   <text transform="matrix(1 0 0 -1 258.3 286.77)" font-size="9px" xml:space="preserve"><tspan x="0 7.947 9.9720001 11.997 17.172001 21.753 24.723 29.790001" y="0">Wildfres</tspan></text>
  </g>
  <g fill="none" stroke-miterlimit="10" stroke-width=".68">
   <path d="m445.87 497.74v-10.77c-0.954-10.325-12.268-9.403-33.694-9.641-4.208-0.047-7.691-0.615-10.566-1.537-7.359-2.36-11.167-9.332-11.167-16.024v-15.925" clip-path="url(#clipPath881)" stroke="#06179e"/>
   <path d="m124.8 279.34c-0.657-8.992-7.506-10.107-22.231-9.143-10.412 0.683-10.971-7.397-10.601-13.244 0.148-2.32 0.203-4.645 0.203-6.97v-9.126" clip-path="url(#clipPath896)" stroke="#73519d"/>
   <path d="m124.8 279.35c0.657-8.991 7.475-9.145 22.231-9.142 5.214 1e-3 7.921-2.366 9.292-5.208 0.749-1.551 1.057-3.279 1.057-5.001v-36.204" clip-path="url(#clipPath911)" stroke="#73519d"/>
  </g>
  <g fill="#73519d">
   <path d="m74.184 230.93c0 9.81 7.953 17.762 17.762 17.762 9.81 0 17.762-7.952 17.762-17.762 0-9.811-7.952-17.763-17.762-17.763-9.809 0-17.762 7.952-17.762 17.763" clip-path="url(#clipPath926)"/>
   <path d="m147.08 223.46c0 5.686 4.609 10.295 10.295 10.295s10.295-4.609 10.295-10.295c0-5.687-4.609-10.296-10.295-10.296s-10.295 4.609-10.295 10.296" clip-path="url(#clipPath941)"/>
   <g font-family="'Proxima Nova'">
    <text transform="matrix(1 0 0 -1 78.657 195.29)" font-size="10.024px" font-weight="bold" xml:space="preserve"><tspan x="0 4.119946 8.6408606 11.207056 17.301769" y="0">17.6m</tspan></text>
    <text transform="matrix(1 0 0 -1 56.285 184.49)" font-size="9px" xml:space="preserve"><tspan x="0 4.3649998 7.335 12.483 17.649 19.674 24.129 28.872 30.896999 33.219002 37.674 42.084 46.539001 48.563999 53.712002 58.671001 63.737999 67.922997 70.586998" y="0">Tropical cyclones/ </tspan><tspan x="16.038 20.556 24.966 30.132 35.099998 40.248001 45.396 50.355" y="10.8">Typhoons</tspan></text>
    <text transform="matrix(1 0 0 -1 145.89 195.29)" font-size="10.024px" font-weight="bold" xml:space="preserve"><tspan x="0 5.8842053 8.4504004 14.434848" y="0">3.4m</tspan></text>
    <text transform="matrix(1 0 0 -1 146.11 184.49)" font-size="9px" xml:space="preserve"><tspan x="0 6.8850002 9.5310001 14.499 19.566 22.535999" y="0">Other </tspan><tspan x="-1.9349999 2.25 4.8959999 10.044 13.014 20.285999" y="10.8">storms</tspan></text>
   </g>
   <path d="m102.38 333.42c0 12.442 10.086 22.528 22.529 22.528 12.442 0 22.529-10.086 22.529-22.528 0-12.443-10.087-22.529-22.529-22.529-12.443 0-22.529 10.086-22.529 22.529" clip-path="url(#clipPath956)"/>
  </g>
  <g fill="none" stroke-miterlimit="10">
   <path d="m406.58 653.74c-18.483-49.392-73.509-74.448-122.9-55.963-49.392 18.484-74.448 73.508-55.963 122.9 18.484 49.391 73.509 74.447 122.9 55.962 49.392-18.484 74.447-73.508 55.963-122.9z" clip-path="url(#clipPath971)" stroke="#018eca" stroke-linecap="round" stroke-width="28"/>
   <path d="m323.01 782.51c9.79-0.602 18.423-2.439 27.609-5.877" clip-path="url(#clipPath986)" stroke="#06179e" stroke-linecap="round" stroke-width="28"/>
   <path d="m445.68 552.99v200.49c0 20.775-17.441 37.616-38.956 37.616h-71.741" clip-path="url(#clipPath1001)" stroke="#06179e" stroke-width=".68"/>
   <path d="m179.06 552.99v200.49c0 20.775 17.162 37.616 38.332 37.616h70.59" clip-path="url(#clipPath1016)" stroke="#018eca" stroke-width=".68"/>
  </g>
  <text transform="matrix(1 0 0 -1 151.69 549.86)" fill="#ffffff" font-family="'Proxima Nova'" font-size="17px" font-weight="bold" xml:space="preserve"><tspan x="0 10.336 20.638 24.99 35.326" y="0">58.6m</tspan></text>
  <text transform="matrix(1 0 0 -1 148.57 540.26)" fill="#ffffff" font-family="'Proxima Nova'" font-size="8px" xml:space="preserve"><tspan x="0 6.744 11.248 15.464 17.816 22.232 26.736 29.375999 31.440001 34.080002 38.584 40.383999 44.599998 46.952 51.456001" y="0">Weather related</tspan></text>
 </g>
</svg>
