<?xml version="1.0" encoding="UTF-8"?>
<!-- Created with Inkscape (http://www.inkscape.org/) -->
<svg width="656.20172" height="833.53583" version="1.1" viewBox="0 0 656.20172 833.53581" xmlns="http://www.w3.org/2000/svg">
 <defs>
  <clipPath id="clipPath13527">
   <path d="M 0,841.89 H 595.276 V 0 H 0 Z"/>
  </clipPath>
  <clipPath id="clipPath13542">
   <path d="M 0,841.89 H 595.276 V 0 H 0 Z"/>
  </clipPath>
  <clipPath id="clipPath13557">
   <path d="M 0,841.89 H 595.276 V 0 H 0 Z"/>
  </clipPath>
  <clipPath id="clipPath13572">
   <path d="M 0,841.89 H 595.276 V 0 H 0 Z"/>
  </clipPath>
  <clipPath id="clipPath13587">
   <path d="M 0,841.89 H 595.276 V 0 H 0 Z"/>
  </clipPath>
  <clipPath id="clipPath13602">
   <path d="M 0,841.89 H 595.276 V 0 H 0 Z"/>
  </clipPath>
  <clipPath id="clipPath13617">
   <path d="M 0,841.89 H 595.276 V 0 H 0 Z"/>
  </clipPath>
  <clipPath id="clipPath13632">
   <path d="M 0,841.89 H 595.276 V 0 H 0 Z"/>
  </clipPath>
  <clipPath id="clipPath13647">
   <path d="M 0,841.89 H 595.276 V 0 H 0 Z"/>
  </clipPath>
  <clipPath id="clipPath13662">
   <path d="M 0,841.89 H 595.276 V 0 H 0 Z"/>
  </clipPath>
  <clipPath id="clipPath13677">
   <path d="M 0,841.89 H 595.276 V 0 H 0 Z"/>
  </clipPath>
  <clipPath id="clipPath13692">
   <path d="M 0,841.89 H 595.276 V 0 H 0 Z"/>
  </clipPath>
  <clipPath id="clipPath13707">
   <path d="M 0,841.89 H 595.276 V 0 H 0 Z"/>
  </clipPath>
  <clipPath id="clipPath13722">
   <path d="M 0,841.89 H 595.276 V 0 H 0 Z"/>
  </clipPath>
  <clipPath id="clipPath13737">
   <path d="M 0,841.89 H 595.276 V 0 H 0 Z"/>
  </clipPath>
  <clipPath id="clipPath13752">
   <path d="M 0,841.89 H 595.276 V 0 H 0 Z"/>
  </clipPath>
  <clipPath id="clipPath13767">
   <path d="M 0,841.89 H 595.276 V 0 H 0 Z"/>
  </clipPath>
  <clipPath id="clipPath13782">
   <path d="M 0,841.89 H 595.276 V 0 H 0 Z"/>
  </clipPath>
  <clipPath id="clipPath13797">
   <path d="M 0,841.89 H 595.276 V 0 H 0 Z"/>
  </clipPath>
  <clipPath id="clipPath13812">
   <path d="M 0,841.89 H 595.276 V 0 H 0 Z"/>
  </clipPath>
  <clipPath id="clipPath13827">
   <path d="M 0,841.89 H 595.276 V 0 H 0 Z"/>
  </clipPath>
  <clipPath id="clipPath13842">
   <path d="M 0,841.89 H 595.276 V 0 H 0 Z"/>
  </clipPath>
  <clipPath id="clipPath13857">
   <path d="M 0,841.89 H 595.276 V 0 H 0 Z"/>
  </clipPath>
  <clipPath id="clipPath13872">
   <path d="M 0,841.89 H 595.276 V 0 H 0 Z"/>
  </clipPath>
  <clipPath id="clipPath13887">
   <path d="M 0,841.89 H 595.276 V 0 H 0 Z"/>
  </clipPath>
 </defs>
 <g transform="matrix(1.3333333,0,0,-1.3333333,-39.570266,1062.2427)">
  <g font-family="'Proxima Nova'">
   <text transform="matrix(1,0,0,-1,330.189,660.7021)" fill="#243f8d" font-size="17px" font-weight="bold" xml:space="preserve"><tspan x="0 10.2 14.552 24.888" y="0">2.9m</tspan></text>
   <text transform="matrix(1,0,0,-1,328.271,651.1021)" fill="#243f8d" font-size="8px" xml:space="preserve"><tspan x="0 5.704 10.208 14.784 19.375999 23.792 27.712 31.431999 33.231998 37.192001 41.408001" y="0">Geophysical</tspan></text>
   <text transform="matrix(1,0,0,-1,261.1924,660.7017)" fill="#018eca" font-size="17px" font-weight="bold" xml:space="preserve"><tspan x="0 10.336 20.638 24.99 35.326" y="0">58.6m</tspan></text>
   <text transform="matrix(1,0,0,-1,258.0698,651.1016)" fill="#018eca" font-size="8px" xml:space="preserve"><tspan x="0 6.744 11.248 15.464 17.816 22.232 26.736 29.375999 31.440001 34.080002 38.584 40.383999 44.599998 46.952 51.456001" y="0">Weather related</tspan></text>
  </g>
  <path d="m320.0986 672.0407v-21.757" fill="none" stroke="#646363" stroke-miterlimit="10" stroke-width=".5"/>
  <g fill="#646363" font-family="'Proxima Nova'">
   <text transform="matrix(1,0,0,-1,272.1777,707.7988)" font-size="31px" font-weight="bold" xml:space="preserve"><tspan x="0 18.848 31.589001 39.525002 58.032001" y="0">61.4m</tspan></text>
   <text transform="matrix(1,0,0,-1,356.6201,718.1221)" font-size="18.073px" font-weight="bold" xml:space="preserve"><tspan x="0" y="0">*</tspan></text>
   <text transform="matrix(1,0,0,-1,261.3174,691.3257)" font-size="11.077px" xml:space="preserve"><tspan x="0 7.7539001 10.246225 15.39703 21.23461 26.385414 29.642052 35.878403 39.533813 42.391678 48.760956 51.253281 56.404083 62.762283 65.254608 71.092186 76.575302 82.811653 91.761871 97.998222 104.10165 107.35828 112.50909" y="0">Disaster displacements </tspan></text>
  </g>
  <path d="m445.6797 561.1252c-6.775 0-12.269-5.493-12.269-12.268 0-6.776 5.494-12.269 12.269-12.269s12.269 5.493 12.269 12.269c0 6.775-5.494 12.268-12.269 12.268" clip-path="url(#clipPath13692)" fill="#06179e"/>
  <path d="m178.584 610.5305c-33.06 0-59.86-26.8-59.86-59.86s26.8-59.86 59.86-59.86 59.86 26.8 59.86 59.86-26.8 59.86-59.86 59.86" clip-path="url(#clipPath13797)" fill="#018eca"/>
  <path d="m179.3623 397.3508v54.201c-2.407-30.607-27.378-31.13-81.425-31.12-26.516 5e-3 -35.331-15.531-37.925-29.359-0.383-2.039-0.558-4.111-0.558-6.186v-62.345" clip-path="url(#clipPath13677)" fill="none" stroke="#018eca" stroke-miterlimit="10" stroke-width=".68"/>
  <path d="m179.3623 436.0715v-121.143" clip-path="url(#clipPath13632)" fill="#ffffff" stroke="#018eca" stroke-miterlimit="10" stroke-width=".68"/>
  <g fill="none" stroke-miterlimit="10" stroke-width=".68">
   <path d="m179.3623 452.6599v-54.201c0.819-13.097 9.773-12.937 28.179-13.24 3.615-0.059 6.607-0.779 9.077-1.949 6.322-2.993 10.358-10.828 10.358-19.317v-46.085" clip-path="url(#clipPath13752)" stroke="#018eca"/>
   <path d="m179.3618 452.6599c1.932-31.953 22.197-26.813 65.354-32.488 31.216-4.104 30.568-34.908 30.568-34.908v-67.396" clip-path="url(#clipPath13557)" stroke="#018eca"/>
   <path d="m179.3623 541.2365v-91.122" clip-path="url(#clipPath13707)" stroke="#0097d1"/>
  </g>
  <g fill="#06179e">
   <text transform="matrix(1,0,0,-1,428.1548,517.2471)" font-family="'Proxima Nova'" font-size="17px" font-weight="bold" xml:space="preserve"><tspan x="0 10.2 14.552 24.888" y="0">2.9m</tspan></text>
   <text transform="matrix(1,0,0,-1,426.2368,507.647)" font-family="'Proxima Nova'" font-size="8px" xml:space="preserve"><tspan x="0 5.704 10.208 14.784 19.375999 23.792 27.712 31.431999 33.231998 37.192001 41.408001" y="0">Geophysical</tspan></text>
   <path d="m376.1738 437.2858c0 7.879 6.387 14.266 14.266 14.266 7.878 0 14.265-6.387 14.265-14.266 0-7.878-6.387-14.266-14.265-14.266-7.879 0-14.266 6.388-14.266 14.266" clip-path="url(#clipPath13662)"/>
   <path d="m499.4697 424.6569c0 0.904 0.732 1.637 1.637 1.637 0.904 0 1.636-0.733 1.636-1.637s-0.732-1.637-1.636-1.637c-0.905 0-1.637 0.733-1.637 1.637" clip-path="url(#clipPath13737)"/>
  </g>
  <path d="m445.6797 497.735v-10.77c0.954-10.325 12.268-9.403 33.693-9.641 4.208-0.047 7.691-0.615 10.567-1.537 7.358-2.36 11.167-9.332 11.167-16.024v-33.469" clip-path="url(#clipPath13722)" fill="none" stroke="#06179e" stroke-miterlimit="10" stroke-width=".68"/>
  <g fill="#06179e" font-family="'Proxima Nova'">
   <text transform="matrix(1,0,0,-1,378.8311,408.2842)" font-size="10.0242px" font-weight="bold" xml:space="preserve"><tspan x="0 6.0145202 8.5807152 14.675428" y="0">2.9m</tspan></text>
   <text transform="matrix(1,0,0,-1,365.9458,397.4844)" font-size="9px" xml:space="preserve"><tspan x="0 5.1209998 9.8640003 12.834 15.48 20.448 25.614 30.573 35.316002 39.735001 44.801998" y="0">Earthquakes</tspan><tspan x="-2.4300001 2.313 7.2719998 12.447 14.769 19.08 23.264999 28.224001 33.182999 37.925999 45.198002 47.223" y="10.8">and Tsunamis</tspan></text>
   <text transform="matrix(1,0,0,-1,492.1602,408.2822)" font-size="10.0242px" font-weight="bold" xml:space="preserve"><tspan x="0 5.4631891 11.678193 17.893196" y="0">700 </tspan></text>
   <text transform="matrix(1,0,0,-1,480.105,397.4824)" font-size="9px" xml:space="preserve"><tspan x="0 4.4640002 9.2069998 14.166 19.341 23.525999 25.551001 27.576 32.750999 37.818001" y="0">Landslides</tspan></text>
  </g>
  <g fill="#018eca">
   <path d="m29.6777 341.7443c0 17.037 13.812 30.849 30.85 30.849 17.037 0 30.849-13.812 30.849-30.849 0-17.038-13.812-30.85-30.849-30.85-17.038 0-30.85 13.812-30.85 30.85" clip-path="url(#clipPath13767)"/>
   <path d="m169.2441 322.3058c0 6.302 5.109 11.411 11.411 11.411s11.411-5.109 11.411-11.411c0-6.303-5.109-11.411-11.411-11.411s-11.411 5.108-11.411 11.411" clip-path="url(#clipPath13887)"/>
   <path d="m220.4985 317.8c0 3.731 3.025 6.758 6.757 6.758 3.733 0 6.758-3.027 6.758-6.758 0-3.732-3.025-6.758-6.758-6.758-3.732 0-6.757 3.026-6.757 6.758" clip-path="url(#clipPath13872)"/>
   <path d="m271.4468 316.3547c0 2.12 1.719 3.839 3.839 3.839s3.839-1.719 3.839-3.839-1.719-3.839-3.839-3.839-3.839 1.719-3.839 3.839" clip-path="url(#clipPath13827)"/>
  </g>
  <path d="m179.2324 451.5515v-54.201c-0.935-13.097-28.187-12.129-37.497-12.393-4.121-0.118-7.534-0.781-10.351-1.95-7.209-2.994-6.451-11.674-6.451-20.163v-35.832" clip-path="url(#clipPath13842)" fill="none" stroke="#018eca" stroke-miterlimit="10" stroke-width=".68"/>
  <g font-family="'Proxima Nova'">
   <text transform="matrix(1,0,0,-1,45.7061,297.5684)" fill="#018eca" font-size="10.0242px" font-weight="bold" xml:space="preserve"><tspan x="0 5.8842053 10.40512 12.971314 18.955763" y="0">37.4m</tspan></text>
   <text transform="matrix(1,0,0,-1,46.1387,286.7686)" fill="#018eca" font-size="9px" xml:space="preserve"><tspan x="0 4.9499998 6.9749999 12.123 17.271 22.445999" y="0">Floods</tspan></text>
   <text transform="matrix(1,0,0,-1,115.5728,297.5684)" fill="#73519d" font-size="10.0242px" font-weight="bold" xml:space="preserve"><tspan x="0 6.0145202 10.134466" y="0">21m</tspan></text>
   <text transform="matrix(1,0,0,-1,111.2393,286.7686)" fill="#73519d" font-size="9px" xml:space="preserve"><tspan x="0 5.1209998 7.7670002 12.915 15.885 23.157" y="0">Storms</tspan></text>
  </g>
  <g fill="#018eca" font-family="'Proxima Nova'">
   <text transform="matrix(1,0,0,-1,160.5122,297.5664)" font-size="10.0242px" font-weight="bold" xml:space="preserve"><tspan x="0 4.119946 10.21466 16.229179 18.795376 25.01038 31.225384 37.440388" y="0">152,000 </tspan></text>
   <text transform="matrix(1,0,0,-1,158.2305,286.7666)" font-size="9px" xml:space="preserve"><tspan x="0 4.4640002 9.2069998 14.166 19.341 23.525999 25.551001 27.576 32.750999 37.818001" y="0">Landslides</tspan></text>
   <text transform="matrix(1,0,0,-1,210.3818,297.5684)" font-size="10.0242px" font-weight="bold" xml:space="preserve"><tspan x="0 6.0947137 11.978919 14.545115 20.760118 26.975122 33.190125" y="0">63,000 </tspan></text>
   <text transform="matrix(1,0,0,-1,208.8057,286.7686)" font-size="9px" xml:space="preserve"><tspan x="0 6.3000002 9.2700005 14.418 19.377001 24.542999 29.511 32.157001" y="0">Droughts</tspan></text>
   <text transform="matrix(1,0,0,-1,263.3618,297.5684)" font-size="10.0242px" font-weight="bold" xml:space="preserve"><tspan x="0 4.119946 5.9543748 11.417563 17.632568 23.847572" y="0">1,700 </tspan></text>
   <text transform="matrix(1,0,0,-1,258.2983,286.7686)" font-size="9px" xml:space="preserve"><tspan x="0 7.947 9.9720001 11.997 17.172001 21.753 24.723 29.790001" y="0">Wildfres</tspan></text>
  </g>
  <g fill="none" stroke-miterlimit="10" stroke-width=".68">
   <path d="m445.8662 497.735v-10.77c-0.954-10.325-12.268-9.403-33.694-9.641-4.208-0.047-7.691-0.615-10.566-1.537-7.359-2.36-11.167-9.332-11.167-16.024v-15.925" clip-path="url(#clipPath13587)" stroke="#06179e"/>
   <path d="m124.7954 279.3439c-0.657-8.992-7.506-10.107-22.231-9.143-10.412 0.683-10.971-7.397-10.601-13.244 0.148-2.32 0.203-4.645 0.203-6.97v-9.126" clip-path="url(#clipPath13812)" stroke="#73519d"/>
   <path d="m124.7954 279.3498c0.657-8.991 7.475-9.145 22.231-9.142 5.214 1e-3 7.921-2.366 9.292-5.208 0.749-1.551 1.057-3.279 1.057-5.001v-36.204" clip-path="url(#clipPath13647)" stroke="#73519d"/>
  </g>
  <g fill="#73519d">
   <path d="m74.1836 230.9279c0 9.81 7.953 17.762 17.762 17.762 9.81 0 17.762-7.952 17.762-17.762 0-9.811-7.952-17.763-17.762-17.763-9.809 0-17.762 7.952-17.762 17.763" clip-path="url(#clipPath13782)"/>
   <path d="m147.0801 223.4611c0 5.686 4.609 10.295 10.295 10.295s10.295-4.609 10.295-10.295c0-5.687-4.609-10.296-10.295-10.296s-10.295 4.609-10.295 10.296" clip-path="url(#clipPath13617)"/>
   <g font-family="'Proxima Nova'">
    <text transform="matrix(1,0,0,-1,78.6567,195.29)" font-size="10.0242px" font-weight="bold" xml:space="preserve"><tspan x="0 4.119946 8.6408606 11.207056 17.301769" y="0">17.6m</tspan></text>
    <text transform="matrix(1,0,0,-1,56.2852,184.4902)" font-size="9px" xml:space="preserve"><tspan x="0 4.3649998 7.335 12.483 17.649 19.674 24.129 28.872 30.896999 33.219002 37.674 42.084 46.539001 48.563999 53.712002 58.671001 63.737999 67.922997 70.586998" y="0">Tropical cyclones/ </tspan><tspan x="16.038 20.556 24.966 30.132 35.099998 40.248001 45.396 50.355" y="10.8">Typhoons</tspan></text>
    <text transform="matrix(1,0,0,-1,145.8877,195.291)" font-size="10.0242px" font-weight="bold" xml:space="preserve"><tspan x="0 5.8842053 8.4504004 14.434848" y="0">3.4m</tspan></text>
    <text transform="matrix(1,0,0,-1,146.1074,184.4912)" font-size="9px" xml:space="preserve"><tspan x="0 6.8850002 9.5310001 14.499 19.566 22.535999" y="0">Other </tspan><tspan x="-1.9349999 2.25 4.8959999 10.044 13.014 20.285999" y="10.8">storms</tspan></text>
   </g>
   <path d="m102.3813 333.424c0 12.442 10.086 22.528 22.529 22.528 12.442 0 22.529-10.086 22.529-22.528 0-12.443-10.087-22.529-22.529-22.529-12.443 0-22.529 10.086-22.529 22.529" clip-path="url(#clipPath13527)"/>
  </g>
  <g fill="none" stroke-miterlimit="10">
   <path d="m406.5791 653.736c-18.483-49.392-73.509-74.448-122.9-55.963-49.392 18.484-74.448 73.508-55.963 122.901 18.484 49.391 73.509 74.447 122.9 55.962 49.392-18.484 74.447-73.508 55.963-122.9z" clip-path="url(#clipPath13602)" stroke="#018eca" stroke-linecap="round" stroke-width="28"/>
   <path d="m323.0068 782.5139c9.79-0.602 18.423-2.439 27.609-5.877" clip-path="url(#clipPath13857)" stroke="#06179e" stroke-linecap="round" stroke-width="28"/>
   <path d="m445.6797 552.989v200.488c0 20.775-17.441 37.616-38.956 37.616h-71.741" clip-path="url(#clipPath13542)" stroke="#06179e" stroke-width=".68"/>
   <path d="m179.0557 552.989v200.488c0 20.775 17.162 37.616 38.332 37.616h70.59" clip-path="url(#clipPath13572)" stroke="#018eca" stroke-width=".68"/>
  </g>
  <text transform="matrix(1,0,0,-1,151.6885,549.8618)" fill="#ffffff" font-family="'Proxima Nova'" font-size="17px" font-weight="bold" xml:space="preserve"><tspan x="0 10.336 20.638 24.99 35.326" y="0">58.6m</tspan></text>
  <text transform="matrix(1,0,0,-1,148.5659,540.2617)" fill="#ffffff" font-family="'Proxima Nova'" font-size="8px" xml:space="preserve"><tspan x="0 6.744 11.248 15.464 17.816 22.232 26.736 29.375999 31.440001 34.080002 38.584 40.383999 44.599998 46.952 51.456001" y="0">Weather related</tspan></text>
 </g>
</svg>
