<svg id="Layer_1" data-name="Layer 1" xmlns="http://www.w3.org/2000/svg" viewBox="0 0 529.7 624.89"><defs><style>.cls-1,.cls-18,.cls-19,.cls-4,.cls-6{fill:#018eca;}.cls-10,.cls-16,.cls-17,.cls-18,.cls-19,.cls-2,.cls-21,.cls-22,.cls-24,.cls-25,.cls-3,.cls-4,.cls-5,.cls-6,.cls-8,.cls-9{isolation:isolate;}.cls-2,.cls-24,.cls-4{font-size:17px;}.cls-16,.cls-17,.cls-2,.cls-27,.cls-3{fill:#06179e;}.cls-16,.cls-18,.cls-2,.cls-21,.cls-24,.cls-4,.cls-8,.cls-9{font-family:ProximaNova-Bold, Proxima Nova;font-weight:700;}.cls-25,.cls-3,.cls-6{font-size:8px;}.cls-10,.cls-17,.cls-19,.cls-22,.cls-25,.cls-3,.cls-6{font-family:ProximaNova-Regular, Proxima Nova;}.cls-11,.cls-12,.cls-13,.cls-14,.cls-15,.cls-23,.cls-7{fill:none;}.cls-7{stroke:#646363;stroke-width:0.5px;}.cls-11,.cls-12,.cls-13,.cls-15,.cls-23,.cls-7{stroke-miterlimit:10;}.cls-8{font-size:31px;}.cls-10,.cls-8,.cls-9{fill:#646363;}.cls-9{font-size:18.07px;}.cls-10{font-size:11.08px;}.cls-11,.cls-13{stroke:#018eca;}.cls-11,.cls-12{stroke-linecap:round;stroke-width:28px;}.cls-12,.cls-15{stroke:#06179e;}.cls-13,.cls-15,.cls-23{stroke-width:0.68px;}.cls-16,.cls-18,.cls-21{font-size:10.02px;}.cls-17,.cls-19,.cls-22{font-size:9px;}.cls-20{letter-spacing:-0.02em;}.cls-21,.cls-22,.cls-26{fill:#73519d;}.cls-23{stroke:#73519d;}.cls-24,.cls-25{fill:#fff;}</style></defs><g id="sea-weather-related"><path class="cls-1" d="M186.3,186.2a59.9,59.9,0,1,0,59.9,59.9,59.88,59.88,0,0,0-59.9-59.9"/></g><g id="sea-all"><text class="cls-2" transform="translate(345.87 135.99)">4m</text><text class="cls-3" transform="translate(336.58 145.59)">Geophysical</text><text class="cls-4" transform="translate(269.55 135.99)">65.2m</text><g class="cls-5"><text class="cls-6" transform="translate(266.38 145.59)">W</text><text class="cls-6" transform="translate(273.08 145.59)">eather related</text></g><line class="cls-7" x1="328.4" y1="124.7" x2="328.4" y2="145.7"/><g class="cls-5"><text class="cls-8" transform="translate(277.14 89.34)">6</text><text class="cls-8" transform="translate(295.94 89.34)">9</text><text class="cls-8" transform="translate(314.24 89.34)">.2m</text></g><text class="cls-9" transform="translate(367.14 79.02)">*</text><text class="cls-10" transform="translate(269.06 105.81)">Disaster displacements </text><circle class="cls-11" cx="324.9" cy="109.1" r="95.1"/><path class="cls-12" d="M327.8,14.1a90.29,90.29,0,0,1,30.8,6.1"/><path class="cls-13" d="M187.1,399.3V345.1c-2.4,30.6-27.4,31.1-81.4,31.1-26.5,0-35.3,15.5-37.9,29.4a31.79,31.79,0,0,0-.6,6.2v62.3"/><line class="cls-14" x1="187.1" y1="360.6" x2="187.1" y2="481.8"/><line class="cls-13" x1="187.1" y1="360.6" x2="187.1" y2="481.8"/><path class="cls-13" d="M187.1,344v54.2c.8,13.1,9.8,12.9,28.2,13.2a24,24,0,0,1,9.1,1.9c6.3,3,10.4,10.8,10.4,19.3v46.1"/><path class="cls-13" d="M187.1,372.2c1.9,25.3,22.2,21.2,65.4,25.7,31.2,3.2,30.6,27.6,30.6,27.6v53.3"/><path class="cls-13" d="M187.1,255.5v91.1c2.9,25.3,32.9,28.3,97.7,25.7,54.9-2.2,47.2,41.6,48.5,42.8l.5,19v47.7"/><text class="cls-2" transform="translate(443.27 279.45)">4m</text><text class="cls-3" transform="translate(433.98 289.05)">Geophysical</text><path class="cls-15" d="M453.4,295v10.8c1,10.3,12.3,9.4,33.7,9.6a35.56,35.56,0,0,1,10.6,1.5c7.4,2.4,11.2,9.3,11.2,16v29.7"/><line class="cls-15" x1="453.4" y1="306.1" x2="453.4" y2="353.9"/><text class="cls-16" transform="translate(381.96 382.12)"><tspan xml:space="preserve"> 2.4m</tspan></text><g class="cls-5"><text class="cls-17" transform="translate(370.3 392.92)">Earthqua</text><text class="cls-17" transform="translate(405.6 392.92)">k</text><text class="cls-17" transform="translate(410 392.92)">es</text></g><g class="cls-5"><text class="cls-17" transform="translate(367.87 403.72)">and </text><text class="cls-17" transform="translate(385.07 403.72)">T</text><text class="cls-17" transform="translate(389.37 403.72)">sunamis</text></g><text class="cls-16" transform="translate(441.87 380.6)">1.5m</text><g class="cls-5"><text class="cls-17" transform="translate(435.94 391.4)">V</text><text class="cls-17" transform="translate(441.34 391.4)">olcanic </text></g><text class="cls-17" transform="translate(433.97 402.2)">eruptions</text><g class="cls-5"><text class="cls-16" transform="translate(496.75 380.6)">8</text><text class="cls-16" transform="translate(502.85 380.6)">,</text><text class="cls-16" transform="translate(504.35 380.6)">100 </text></g><g class="cls-5"><text class="cls-17" transform="translate(487.85 391.4)">L</text><text class="cls-17" transform="translate(492.15 391.4)">andslides</text></g><path class="cls-13" d="M187,345.1v54.2c-.9,13.1-28.2,12.1-37.5,12.4a31.13,31.13,0,0,0-10.4,1.9c-7.2,3-6.5,11.7-6.5,20.2v35.8"/><text class="cls-18" transform="translate(118.96 499.13)">18.8m</text><text class="cls-19" transform="translate(119.34 509.93)">Floods</text><text class="cls-18" transform="translate(170.27 499.13)">65<tspan class="cls-20" x="12.19" y="0">,</tspan><tspan x="14.53" y="0" xml:space="preserve">000  </tspan></text><g class="cls-5"><text class="cls-19" transform="translate(165.97 509.93)">L</text><text class="cls-19" transform="translate(170.27 509.93)">andslides</text></g><text class="cls-18" transform="translate(221.18 499.13)"><tspan xml:space="preserve">8,200  </tspan></text><text class="cls-19" transform="translate(217.73 509.93)">Wildﬁres</text><text class="cls-18" transform="translate(269.49 499.13)"><tspan xml:space="preserve">5,400  </tspan></text><text class="cls-19" transform="translate(264.86 509.93)">Droughts</text><text class="cls-18" transform="translate(325.09 499.13)"><tspan xml:space="preserve">600  </tspan></text><text class="cls-19" transform="translate(318.1 509.93)">Extreme </text><text class="cls-19" transform="translate(307.98 520.73)">temperatures</text><path class="cls-15" d="M453.6,295v10.8c-1,10.3-12.3,9.4-33.7,9.6a35.56,35.56,0,0,0-10.6,1.5c-7.4,2.4-11.2,9.3-11.2,16v15.9"/><text class="cls-21" transform="translate(54.09 499.13)">46.3m</text><g class="cls-5"><text class="cls-22" transform="translate(54.95 509.93)">S</text><text class="cls-22" transform="translate(60.05 509.93)">torms</text></g><path class="cls-23" d="M35.9,541.3s-2.6-14.8,10.4-14.8c14.8,0,21.6-.2,22.2-9.1"/><path class="cls-23" d="M68.5,517.3c.7,9,7.5,9.1,22.2,9.1,5.2,0,7.9,2.4,9.3,5.2a12.52,12.52,0,0,1,1.1,5v36.2"/><text class="cls-21" transform="translate(20.82 601.4)">38.3m</text><g class="cls-5"><text class="cls-22" transform="translate(0 612.2)">T</text><text class="cls-22" transform="translate(4.4 612.2)">ropical cyclones/ </text></g><g class="cls-5"><text class="cls-22" transform="translate(16.04 623)">T</text><text class="cls-22" transform="translate(20.54 623)">yphoons</text></g><g class="cls-5"><text class="cls-21" transform="translate(90.23 601.4)">7</text><text class="cls-21" transform="translate(94.73 601.4)">.9m</text></g><text class="cls-22" transform="translate(89.82 612.2)">Other </text><text class="cls-22" transform="translate(87.89 623)">storms</text><path class="cls-15" d="M451.2,243.5V43c0-20.8-17.2-37.6-38.3-37.6H342.3"/><path class="cls-13" d="M186.3,243.5V43c0-20.8,17.2-37.6,38.3-37.6h70.6"/><text class="cls-24" transform="translate(162.48 246.83)">65.2m</text><g class="cls-5"><text class="cls-25" transform="translate(159.31 256.43)">W</text><text class="cls-25" transform="translate(166.01 256.43)">eather related</text></g></g><g id="sea-storms"><path class="cls-26" d="M37.4,454.9a30.8,30.8,0,1,1,30.8,30.9,30.81,30.81,0,0,1-30.8-30.9"/></g><g id="sea-floods"><path class="cls-1" d="M110.1,463.3a22.5,22.5,0,1,1,22.5,22.5,22.53,22.53,0,0,1-22.5-22.5"/></g><g id="sea-landslides"><path class="cls-1" d="M177,474.4a11.4,11.4,0,1,1,11.4,11.4A11.39,11.39,0,0,1,177,474.4"/></g><g id="sea-wildfires"><path class="cls-1" d="M228.2,478.9a6.8,6.8,0,1,1,6.8,6.8,6.81,6.81,0,0,1-6.8-6.8"/></g><g id="sea-droughts"><path class="cls-1" d="M279.2,480.3a3.8,3.8,0,1,1,3.8,3.8,3.68,3.68,0,0,1-3.8-3.8"/></g><g id="sea-extreme"><path class="cls-1" d="M330.5,481.8a3.3,3.3,0,1,1,3.3,3.3,3.33,3.33,0,0,1-3.3-3.3"/></g><g id="sea-tropical"><path class="cls-26" d="M12.8,561a22.5,22.5,0,1,1,22.5,22.5A22.53,22.53,0,0,1,12.8,561"/></g><g id="sea-other-storms"><path class="cls-26" d="M90.8,573.2a10.3,10.3,0,1,1,10.3,10.3,10.29,10.29,0,0,1-10.3-10.3"/></g><g id="sea-geophysical"><path class="cls-27" d="M452.1,231.9A14.1,14.1,0,1,0,466.2,246a14.08,14.08,0,0,0-14.1-14.1"/></g><g id="sea-earthquakes"><path class="cls-27" d="M384.9,351.6a14.3,14.3,0,1,1,14.3,14.3,14.3,14.3,0,0,1-14.3-14.3"/></g><g id="sea-volcanic"><path class="cls-27" d="M447.4,359.9a6,6,0,1,1,6,6,6,6,0,0,1-6-6"/></g><g id="sea-landslides-2" data-name="sea-landslides"><path class="cls-27" d="M505.6,362.6a3.3,3.3,0,1,1,3.3,3.3,3.27,3.27,0,0,1-3.3-3.3"/></g></svg>