<?xml version="1.0" encoding="UTF-8"?>
<!-- Created with Inkscape (http://www.inkscape.org/) -->
<svg width="705.97" height="833.5" version="1.1" viewBox="0 0 705.97 833.5" xmlns="http://www.w3.org/2000/svg">
 <defs>
  <clipPath id="clipPath50">
   <path d="M 0,841.89 H 595.276 V 0 H 0 Z"/>
  </clipPath>
  <clipPath id="clipPath98">
   <path d="M 0,841.89 H 595.276 V 0 H 0 Z"/>
  </clipPath>
  <clipPath id="clipPath154">
   <path d="M 0,841.89 H 595.276 V 0 H 0 Z"/>
  </clipPath>
  <clipPath id="clipPath228">
   <path d="M 0,841.89 H 595.276 V 0 H 0 Z"/>
  </clipPath>
  <clipPath id="clipPath248">
   <path d="M 0,841.89 H 595.276 V 0 H 0 Z"/>
  </clipPath>
  <clipPath id="clipPath292">
   <path d="M 0,841.89 H 595.276 V 0 H 0 Z"/>
  </clipPath>
  <clipPath id="clipPath320">
   <path d="M 0,841.89 H 595.276 V 0 H 0 Z"/>
  </clipPath>
 </defs>
 <g transform="matrix(1.3333 0 0 -1.3333 -21.945 1062.2)">
  <text transform="matrix(1 0 0 -1 362.24 660.7)" fill="#06179e" font-family="'Proxima Nova'" font-size="17px" font-weight="bold" xml:space="preserve"><tspan x="0 10.149" y="0">4m</tspan></text>
  <text transform="matrix(1 0 0 -1 352.95 651.1)" fill="#06179e" font-family="'Proxima Nova'" font-size="8px" xml:space="preserve"><tspan x="0 5.704 10.208 14.784 19.375999 23.792 27.712 31.431999 33.231998 37.192001 41.408001" y="0">Geophysical</tspan></text>
  <text transform="matrix(1 0 0 -1 285.92 660.7)" fill="#018eca" font-family="'Proxima Nova'" font-size="17px" font-weight="bold" xml:space="preserve"><tspan x="0 10.336 20.672001 25.024 35.223999" y="0">65.2m</tspan></text>
  <text transform="matrix(1 0 0 -1 282.75 651.1)" fill="#018eca" font-family="'Proxima Nova'" font-size="8px" xml:space="preserve"><tspan x="0 6.744 11.248 15.464 17.816 22.232 26.736 29.375999 31.440001 34.080002 38.584 40.383999 44.599998 46.952 51.456001" y="0">Weather related</tspan></text>
  <g transform="translate(344.78 672.04)">
   <path d="m0 0v-21.035" fill="none" stroke="#646363" stroke-miterlimit="10" stroke-width=".5"/>
  </g>
  <text transform="matrix(1 0 0 -1 293.51 707.36)" fill="#646363" font-family="'Proxima Nova'" font-size="31px" font-weight="bold" xml:space="preserve"><tspan x="0 18.848 37.044998 44.980999 63.581001" y="0">69.2m</tspan></text>
  <text transform="matrix(1 0 0 -1 383.51 717.68)" fill="#646363" font-family="'Proxima Nova'" font-size="18.073px" font-weight="bold" xml:space="preserve"><tspan x="0" y="0">*</tspan></text>
  <text transform="matrix(1 0 0 -1 285.43 690.88)" fill="#646363" font-family="'Proxima Nova'" font-size="11.077px" xml:space="preserve"><tspan x="0 7.7539001 10.246225 15.39703 21.23461 26.385414 29.642052 35.878403 39.533813 42.391678 48.760956 51.253281 56.404083 62.762283 65.254608 71.092186 76.575302 82.811653 91.761871 97.998222 104.10165 107.35828 112.50909" y="0">Disaster displacements </tspan></text>
  <g clip-path="url(#clipPath50)">
   <g transform="translate(430.14 653.89)">
    <path d="m0 0c-18.622-49.086-73.51-73.782-122.6-55.16-49.085 18.622-73.781 73.51-55.159 122.6 18.622 49.085 73.509 73.781 122.6 55.159s73.781-73.51 55.16-122.6z" fill="none" stroke="#018eca" stroke-linecap="round" stroke-miterlimit="10" stroke-width="28"/>
   </g>
   <g transform="translate(344.2 782.62)">
    <path d="m0 0c10.967-.34 20.514-2.244 30.772-6.135" fill="none" stroke="#06179e" stroke-linecap="round" stroke-miterlimit="10" stroke-width="28"/>
   </g>
   <g transform="translate(202.69 610.53)">
    <path d="m0 0c-33.06 0-59.86-26.8-59.86-59.86s26.8-59.86 59.86-59.86 59.86 26.8 59.86 59.86-26.8 59.86-59.86 59.86" fill="#018eca"/>
   </g>
   <g transform="translate(203.47 397.35)">
    <path d="m0 0v54.201c-2.406-30.607-27.378-31.13-81.425-31.12-26.516.005-35.331-15.531-37.925-29.359-.383-2.039-.558-4.111-.558-6.186v-62.345" fill="none" stroke="#018eca" stroke-miterlimit="10" stroke-width=".68"/>
   </g>
   <g transform="translate(203.47 436.07)">
    <path d="m0 0v-121.14" fill="#ffffff" stroke="#018eca" stroke-miterlimit="10" stroke-width=".68"/>
   </g>
   <g transform="translate(203.47 452.66)">
    <path d="m0 0v-54.201c.819-13.097 9.773-12.937 28.179-13.24 3.615-.059 6.607-.779 9.077-1.949 6.322-2.993 10.358-10.828 10.358-19.317v-46.085" fill="none" stroke="#018eca" stroke-miterlimit="10" stroke-width=".68"/>
   </g>
   <g transform="translate(203.47 424.45)">
    <path d="m0 0c1.931-25.266 22.197-21.202 65.354-25.689 31.216-3.246 30.568-27.603 30.568-27.603v-53.291" fill="none" stroke="#018eca" stroke-miterlimit="10" stroke-width=".68"/>
   </g>
   <g transform="translate(203.47 541.24)">
    <path d="m0 0v-91.122c2.887-25.265 32.878-28.323 97.676-25.688 54.891 2.232 47.214-41.597 48.533-42.81l.482-18.972v-47.716" fill="none" stroke="#018eca" stroke-miterlimit="10" stroke-width=".68"/>
   </g>
  </g>
  <text transform="matrix(1 0 0 -1 459.64 517.25)" fill="#06179e" font-family="'Proxima Nova'" font-size="17px" font-weight="bold" xml:space="preserve"><tspan x="0 10.149" y="0">4m</tspan></text>
  <text transform="matrix(1 0 0 -1 450.35 507.65)" fill="#06179e" font-family="'Proxima Nova'" font-size="8px" xml:space="preserve"><tspan x="0 5.704 10.208 14.784 19.375999 23.792 27.712 31.431999 33.231998 37.192001 41.408001" y="0">Geophysical</tspan></text>
  <g clip-path="url(#clipPath98)">
   <g transform="translate(401.28 445.1)">
    <path d="m0 0c0 7.879 6.387 14.266 14.266 14.266s14.265-6.387 14.265-14.266c0-7.878-6.386-14.266-14.265-14.266s-14.266 6.388-14.266 14.266" fill="#06179e"/>
   </g>
   <g transform="translate(463.79 436.83)">
    <path d="m0 0c0 3.314 2.687 6 6.001 6 3.313 0 6.001-2.686 6.001-6s-2.688-6.001-6.001-6.001c-3.314 0-6.001 2.687-6.001 6.001" fill="#06179e"/>
   </g>
   <g transform="translate(521.94 434.1)">
    <path d="m0 0c0 1.808 1.466 3.273 3.273 3.273 1.808 0 3.274-1.465 3.274-3.273s-1.466-3.274-3.274-3.274c-1.807 0-3.273 1.466-3.273 3.274" fill="#06179e"/>
   </g>
   <g transform="translate(469.79 501.74)">
    <path d="m0 0v-10.77c.954-10.325 12.268-9.403 33.693-9.641 4.208-.047 7.691-.615 10.567-1.537 7.358-2.36 11.167-9.332 11.167-16.024v-29.659" fill="none" stroke="#06179e" stroke-miterlimit="10" stroke-width=".68"/>
   </g>
   <g transform="translate(469.79 490.59)">
    <path d="m0 0v-47.754" fill="none" stroke="#06179e" stroke-miterlimit="10" stroke-width=".68"/>
   </g>
  </g>
  <text transform="matrix(1 0 0 -1 400.89 414.58)" fill="#06179e" font-family="'Proxima Nova'" font-size="10.024px" font-weight="bold" xml:space="preserve"><tspan x="0 6.0145202 8.5807152 14.565163" y="0">2.4m</tspan></text>
  <text transform="matrix(1 0 0 -1 386.67 403.78)" fill="#06179e" font-family="'Proxima Nova'" font-size="9px" xml:space="preserve"><tspan x="0 5.1209998 9.8640003 12.834 15.48 20.448 25.614 30.573 35.316002 39.735001 44.801998" y="0">Earthquakes</tspan><tspan x="-2.4300001 2.313 7.2719998 12.447 14.769 19.08 23.264999 28.224001 33.182999 37.925999 45.198002 47.223" y="10.8">and Tsunamis</tspan></text>
  <text transform="matrix(1 0 0 -1 458.24 416.09)" fill="#06179e" font-family="'Proxima Nova'" font-size="10.024px" font-weight="bold" xml:space="preserve"><tspan x="0 4.119946 6.6861415 12.780855" y="0">1.5m</tspan></text>
  <text transform="matrix(1 0 0 -1 452.31 405.29)" fill="#06179e" font-family="'Proxima Nova'" font-size="9px" xml:space="preserve"><tspan x="0 5.382 10.53 12.555 17.01 21.753 26.712 28.737 33.192001" y="0">Volcanic </tspan><tspan x="-1.962 3.105 6.0749998 11.034 16.200001 18.846001 20.871 26.018999 30.978001" y="10.8">eruptions</tspan></text>
  <text transform="matrix(1 0 0 -1 513.12 416.09)" fill="#06179e" font-family="'Proxima Nova'" font-size="10.024px" font-weight="bold" xml:space="preserve"><tspan x="0 6.0746651 7.6484647 11.768411 17.983416 24.19842" y="0">8,100 </tspan></text>
  <text transform="matrix(1 0 0 -1 504.22 405.29)" fill="#06179e" font-family="'Proxima Nova'" font-size="9px" xml:space="preserve"><tspan x="0 4.4640002 9.2069998 14.166 19.341 23.525999 25.551001 27.576 32.750999 37.818001" y="0">Landslides</tspan></text>
  <g clip-path="url(#clipPath154)">
   <g transform="translate(53.788 341.74)">
    <path d="m0 0c0 17.037 13.812 30.849 30.85 30.849 17.037 0 30.849-13.812 30.849-30.849 0-17.038-13.812-30.85-30.849-30.85-17.038 0-30.85 13.812-30.85 30.85" fill="#73519d"/>
   </g>
   <g transform="translate(193.35 322.31)">
    <path d="m0 0c0 6.302 5.109 11.411 11.411 11.411s11.411-5.109 11.411-11.411c0-6.303-5.109-11.411-11.411-11.411s-11.411 5.108-11.411 11.411" fill="#018eca"/>
   </g>
   <g transform="translate(244.61 317.8)">
    <path d="m0 0c0 3.731 3.025 6.758 6.757 6.758 3.733 0 6.758-3.027 6.758-6.758 0-3.732-3.025-6.758-6.758-6.758-3.732 0-6.757 3.026-6.757 6.758" fill="#018eca"/>
   </g>
   <g transform="translate(295.56 316.35)">
    <path d="m0 0c0 2.12 1.719 3.839 3.838 3.839 2.12 0 3.839-1.719 3.839-3.839s-1.719-3.839-3.839-3.839c-2.119 0-3.838 1.719-3.838 3.839" fill="#018eca"/>
   </g>
   <g transform="translate(346.86 314.93)">
    <path d="m0 0c0 1.823 1.479 3.302 3.302 3.302 1.824 0 3.302-1.479 3.302-3.302 0-1.824-1.478-3.302-3.302-3.302-1.823 0-3.302 1.478-3.302 3.302" fill="#018eca"/>
   </g>
   <g transform="translate(203.34 451.55)">
    <path d="m0 0v-54.201c-.935-13.097-28.187-12.129-37.497-12.393-4.121-.118-7.534-.781-10.351-1.95-7.209-2.994-6.451-11.674-6.451-20.163v-35.832" fill="none" stroke="#018eca" stroke-miterlimit="10" stroke-width=".68"/>
   </g>
  </g>
  <text transform="matrix(1 0 0 -1 135.33 297.57)" fill="#018eca" font-family="'Proxima Nova'" font-size="10.024px" font-weight="bold" xml:space="preserve"><tspan x="0 4.119946 10.194612 12.760807 18.835472" y="0">18.8m</tspan></text>
  <text transform="matrix(1 0 0 -1 135.71 286.77)" fill="#018eca" font-family="'Proxima Nova'" font-size="9px" xml:space="preserve"><tspan x="0 4.9499998 6.9749999 12.123 17.271 22.445999" y="0">Floods</tspan></text>
  <text transform="matrix(1 0 0 -1 186.64 297.57)" fill="#018eca" font-family="'Proxima Nova'" font-size="10.024px" font-weight="bold" xml:space="preserve"><tspan x="0 6.0947137 12.189427 14.755623 20.970627 27.185631 33.400635" y="0">65,000 </tspan></text>
  <text transform="matrix(1 0 0 -1 182.34 286.77)" fill="#018eca" font-family="'Proxima Nova'" font-size="9px" xml:space="preserve"><tspan x="0 4.4640002 9.2069998 14.166 19.341 23.525999 25.551001 27.576 32.750999 37.818001" y="0">Landslides</tspan></text>
  <text transform="matrix(1 0 0 -1 237.54 297.57)" fill="#018eca" font-family="'Proxima Nova'" font-size="10.024px" font-weight="bold" xml:space="preserve"><tspan x="0 6.0746651 8.6408606 14.65538 20.870384 27.085388" y="0">8,200 </tspan></text>
  <text transform="matrix(1 0 0 -1 234.1 286.77)" fill="#018eca" font-family="'Proxima Nova'" font-size="9px" xml:space="preserve"><tspan x="0 7.947 9.9720001 11.997 17.172001 21.753 24.723 29.790001" y="0">Wildfres</tspan></text>
  <text transform="matrix(1 0 0 -1 285.86 297.57)" fill="#018eca" font-family="'Proxima Nova'" font-size="10.024px" font-weight="bold" xml:space="preserve"><tspan x="0 6.0947137 8.6609087 14.645356 20.860361 27.075365" y="0">5,400 </tspan></text>
  <text transform="matrix(1 0 0 -1 281.23 286.77)" fill="#018eca" font-family="'Proxima Nova'" font-size="9px" xml:space="preserve"><tspan x="0 6.3000002 9.2700005 14.418 19.377001 24.542999 29.511 32.157001" y="0">Droughts</tspan></text>
  <text transform="matrix(1 0 0 -1 341.46 297.57)" fill="#018eca" font-family="'Proxima Nova'" font-size="10.024px" font-weight="bold" xml:space="preserve"><tspan x="0 6.0947137 12.309717 18.524721" y="0">600 </tspan></text>
  <text transform="matrix(1 0 0 -1 334.47 286.77)" fill="#018eca" font-family="'Proxima Nova'" font-size="9px" xml:space="preserve"><tspan x="0 5.1209998 9.4949999 12.141 15.111 20.177999 27.450001 32.516998" y="0">Extreme </tspan><tspan x="-10.116 -7.4699998 -2.4030001 4.869 10.035 15.102 18.072001 22.815001 25.461 30.42 33.389999 38.457001" y="10.8">temperatures</tspan></text>
  <g clip-path="url(#clipPath228)">
   <g transform="translate(469.98 501.74)">
    <path d="m0 0v-10.77c-.954-10.325-12.268-9.403-33.694-9.641-4.208-.047-7.691-.615-10.566-1.537-7.359-2.36-11.167-9.332-11.167-16.024v-15.925" fill="none" stroke="#06179e" stroke-miterlimit="10" stroke-width=".68"/>
   </g>
  </g>
  <text transform="matrix(1 0 0 -1 70.46 297.57)" fill="#73519d" font-family="'Proxima Nova'" font-size="10.024px" font-weight="bold" xml:space="preserve"><tspan x="0 5.9844475 12.079161 14.645356 20.529562" y="0">46.3m</tspan></text>
  <text transform="matrix(1 0 0 -1 71.323 286.77)" fill="#73519d" font-family="'Proxima Nova'" font-size="9px" xml:space="preserve"><tspan x="0 5.1209998 7.7670002 12.915 15.885 23.157" y="0">Storms</tspan></text>
  <g clip-path="url(#clipPath248)">
   <g transform="translate(52.25 255.38)">
    <path d="m0 0s-2.646 14.819 10.398 14.816c14.756-.003 21.575.151 22.231 9.143" fill="none" stroke="#73519d" stroke-miterlimit="10" stroke-width=".68"/>
   </g>
   <g transform="translate(84.879 279.35)">
    <path d="m0 0c.657-8.991 7.475-9.145 22.231-9.142 5.214.001 7.921-2.366 9.292-5.208.749-1.551 1.057-3.279 1.057-5.001v-36.204" fill="none" stroke="#73519d" stroke-miterlimit="10" stroke-width=".68"/>
   </g>
   <g transform="translate(29.133 235.69)">
    <path d="m0 0c0 12.442 10.086 22.529 22.529 22.529s22.529-10.087 22.529-22.529-10.086-22.529-22.529-22.529-22.529 10.087-22.529 22.529" fill="#73519d"/>
   </g>
   <g transform="translate(107.16 223.46)">
    <path d="m0 0c0 5.686 4.609 10.295 10.295 10.295s10.296-4.609 10.296-10.295c0-5.687-4.61-10.296-10.296-10.296s-10.295 4.609-10.295 10.296" fill="#73519d"/>
   </g>
  </g>
  <text transform="matrix(1,0,0,-1,37.187,195.29)" fill="#73519d" font-family="'Proxima Nova'" font-size="10.024px" font-weight="bold" xml:space="preserve"><tspan x="0 5.8842053 11.958871 14.525065 20.409271" y="0">38.3m</tspan></text>
  <text transform="matrix(1 0 0 -1 16.369 184.49)" fill="#73519d" font-family="'Proxima Nova'" font-size="9px" xml:space="preserve"><tspan x="0 4.3649998 7.335 12.483 17.649 19.674 24.129 28.872 30.896999 33.219002 37.674 42.084 46.539001 48.563999 53.712002 58.671001 63.737999 67.922997 70.586998" y="0">Tropical cyclones/ </tspan><tspan x="16.038 20.556 24.966 30.132 35.099998 40.248001 45.396 50.355" y="10.8">Typhoons</tspan></text>
  <text transform="matrix(1 0 0 -1 106.6 195.29)" fill="#73519d" font-family="'Proxima Nova'" font-size="10.024px" font-weight="bold" xml:space="preserve"><tspan x="0 4.5209141 7.0871096 13.181823" y="0">7.9m</tspan></text>
  <text transform="matrix(1 0 0 -1 106.19 184.49)" fill="#73519d" font-family="'Proxima Nova'" font-size="9px" xml:space="preserve"><tspan x="0 6.8850002 9.5310001 14.499 19.566 22.535999" y="0">Other </tspan><tspan x="-1.9349999 2.25 4.8959999 10.044 13.014 20.285999" y="10.8">storms</tspan></text>
  <g clip-path="url(#clipPath292)">
   <g transform="translate(126.49 333.42)">
    <path d="m0 0c0 12.442 10.086 22.528 22.529 22.528 12.442 0 22.529-10.086 22.529-22.528 0-12.443-10.087-22.529-22.529-22.529-12.443 0-22.529 10.086-22.529 22.529" fill="#018eca"/>
   </g>
   <g transform="translate(467.54 553.16)">
    <path d="m0 0v200.49c0 20.774-17.162 37.615-38.332 37.615h-70.591" fill="none" stroke="#06179e" stroke-miterlimit="10" stroke-width=".68"/>
   </g>
   <g transform="translate(202.69 553.16)">
    <path d="m0 0v200.49c0 20.774 17.162 37.615 38.331 37.615h70.591" fill="none" stroke="#018eca" stroke-miterlimit="10" stroke-width=".68"/>
   </g>
  </g>
  <text transform="matrix(1 0 0 -1 175.85 549.86)" fill="#ffffff" font-family="'Proxima Nova'" font-size="17px" font-weight="bold" xml:space="preserve"><tspan x="0 10.336 20.672001 25.024 35.223999" y="0">65.2m</tspan></text>
  <text transform="matrix(1 0 0 -1 172.68 540.26)" fill="#ffffff" font-family="'Proxima Nova'" font-size="8px" xml:space="preserve"><tspan x="0 6.744 11.248 15.464 17.816 22.232 26.736 29.375999 31.440001 34.080002 38.584 40.383999 44.599998 46.952 51.456001" y="0">Weather related</tspan></text>
  <g clip-path="url(#clipPath320)">
   <g transform="translate(468.51 564.75)">
    <path d="m0 0c-7.777 0-14.082-6.305-14.082-14.082s6.305-14.082 14.082-14.082 14.082 6.305 14.082 14.082-6.305 14.082-14.082 14.082" fill="#06179e"/>
   </g>
  </g>
 </g>
</svg>
