<?xml version="1.0" encoding="UTF-8"?>
<!-- Created with Inkscape (http://www.inkscape.org/) -->
<svg width="705.97" height="833.5" version="1.1" viewBox="0 0 705.97 833.5" xmlns="http://www.w3.org/2000/svg">
 <defs>
  <clipPath id="clipPath228">
   <path d="M 0,841.89 H 595.276 V 0 H 0 Z"/>
  </clipPath>
  <clipPath id="clipPath320">
   <path d="M 0,841.89 H 595.276 V 0 H 0 Z"/>
  </clipPath>
  <clipPath id="clipPath870">
   <g transform="translate(-469.79 -490.59)">
    <path d="M 0,841.89 H 595.276 V 0 H 0 Z"/>
   </g>
  </clipPath>
  <clipPath id="clipPath888">
   <g transform="translate(-463.79 -436.83)">
    <path d="M 0,841.89 H 595.276 V 0 H 0 Z"/>
   </g>
  </clipPath>
  <clipPath id="clipPath894">
   <g transform="translate(-401.28 -445.1)">
    <path d="M 0,841.89 H 595.276 V 0 H 0 Z"/>
   </g>
  </clipPath>
  <clipPath id="clipPath907">
   <path d="M 0,841.89 H 595.276 V 0 H 0 Z"/>
  </clipPath>
  <clipPath id="clipPath922">
   <path d="M 0,841.89 H 595.276 V 0 H 0 Z"/>
  </clipPath>
  <clipPath id="clipPath950">
   <g transform="translate(-203.47 -541.24)">
    <path d="M 0,841.89 H 595.276 V 0 H 0 Z"/>
   </g>
  </clipPath>
  <clipPath id="clipPath956">
   <g transform="translate(-203.47 -424.45)">
    <path d="M 0,841.89 H 595.276 V 0 H 0 Z"/>
   </g>
  </clipPath>
  <clipPath id="clipPath962">
   <g transform="translate(-203.47 -452.66)">
    <path d="M 0,841.89 H 595.276 V 0 H 0 Z"/>
   </g>
  </clipPath>
  <clipPath id="clipPath968">
   <g transform="translate(-203.47 -436.07)">
    <path d="M 0,841.89 H 595.276 V 0 H 0 Z"/>
   </g>
  </clipPath>
  <clipPath id="clipPath974">
   <g transform="translate(-203.47 -397.35)">
    <path d="M 0,841.89 H 595.276 V 0 H 0 Z"/>
   </g>
  </clipPath>
  <clipPath id="clipPath980">
   <g transform="translate(-202.69 -610.53)">
    <path d="M 0,841.89 H 595.276 V 0 H 0 Z"/>
   </g>
  </clipPath>
  <clipPath id="clipPath986">
   <g transform="translate(-344.2 -782.62)">
    <path d="M 0,841.89 H 595.276 V 0 H 0 Z"/>
   </g>
  </clipPath>
  <clipPath id="clipPath992">
   <g transform="translate(-430.14 -653.89)">
    <path d="M 0,841.89 H 595.276 V 0 H 0 Z"/>
   </g>
  </clipPath>
  <clipPath id="clipPath1014">
   <g transform="translate(-203.34 -451.55)">
    <path d="M 0,841.89 H 595.276 V 0 H 0 Z"/>
   </g>
  </clipPath>
  <clipPath id="clipPath1020">
   <g transform="translate(-346.86 -314.93)">
    <path d="M 0,841.89 H 595.276 V 0 H 0 Z"/>
   </g>
  </clipPath>
  <clipPath id="clipPath1026">
   <g transform="translate(-295.56 -316.35)">
    <path d="M 0,841.89 H 595.276 V 0 H 0 Z"/>
   </g>
  </clipPath>
  <clipPath id="clipPath1032">
   <g transform="translate(-244.61 -317.8)">
    <path d="M 0,841.89 H 595.276 V 0 H 0 Z"/>
   </g>
  </clipPath>
  <clipPath id="clipPath1044">
   <g transform="translate(-53.788 -341.74)">
    <path d="M 0,841.89 H 595.276 V 0 H 0 Z"/>
   </g>
  </clipPath>
  <clipPath id="clipPath1060">
   <g transform="translate(-202.69 -553.16)">
    <path d="M 0,841.89 H 595.276 V 0 H 0 Z"/>
   </g>
  </clipPath>
  <clipPath id="clipPath1066">
   <g transform="translate(-467.54 -553.16)">
    <path d="M 0,841.89 H 595.276 V 0 H 0 Z"/>
   </g>
  </clipPath>
  <clipPath id="clipPath1072">
   <g transform="translate(-126.49 -333.42)">
    <path d="M 0,841.89 H 595.276 V 0 H 0 Z"/>
   </g>
  </clipPath>
  <clipPath id="clipPath1085">
   <path d="M 0,841.89 H 595.276 V 0 H 0 Z"/>
  </clipPath>
  <clipPath id="clipPath1105">
   <g transform="translate(-107.16 -223.46)">
    <path d="M 0,841.89 H 595.276 V 0 H 0 Z"/>
   </g>
  </clipPath>
  <clipPath id="clipPath1111">
   <g transform="translate(-29.133 -235.69)">
    <path d="M 0,841.89 H 595.276 V 0 H 0 Z"/>
   </g>
  </clipPath>
  <clipPath id="clipPath1117">
   <g transform="translate(-84.879 -279.35)">
    <path d="M 0,841.89 H 595.276 V 0 H 0 Z"/>
   </g>
  </clipPath>
  <clipPath id="clipPath1123">
   <g transform="translate(-52.25 -255.38)">
    <path d="M 0,841.89 H 595.276 V 0 H 0 Z"/>
   </g>
  </clipPath>
 </defs>
 <g transform="matrix(1.3333 0 0 -1.3333 -21.945 1062.2)">
  <g font-family="'Proxima Nova'">
   <text transform="scale(1,-1)" x="362.23679" y="-660.70172" fill="#06179e" font-size="17px" font-weight="bold" xml:space="preserve"><tspan x="362.23679 372.3858" y="-660.70172">4m</tspan></text>
   <text transform="scale(1,-1)" x="352.94971" y="-651.10162" fill="#06179e" font-size="8px" xml:space="preserve"><tspan x="352.94971 358.65369 363.15771 367.7337 372.32571 376.7417 380.66171 384.38171 386.1817 390.14169 394.3577" y="-651.10162">Geophysical</tspan></text>
   <text transform="scale(1,-1)" x="285.92331" y="-660.70172" fill="#018eca" font-size="17px" font-weight="bold" xml:space="preserve"><tspan x="285.92331 296.25931 306.59531 310.9473 321.14731" y="-660.70172">65.2m</tspan></text>
   <text transform="scale(1,-1)" x="282.74951" y="-651.10162" fill="#018eca" font-size="8px" xml:space="preserve"><tspan x="282.74951 289.4935 293.9975 298.2135 300.56549 304.98151 309.4855 312.12549 314.18951 316.8295 321.3335 323.13348 327.34949 329.70151 334.20551" y="-651.10162">Weather related</tspan></text>
  </g>
  <path d="m344.78 672.04v-21.035" fill="none" stroke="#646363" stroke-miterlimit="10" stroke-width=".5"/>
  <g fill="#646363" font-family="'Proxima Nova'">
   <text transform="scale(1,-1)" x="293.5137" y="-707.35602" font-size="31px" font-weight="bold" xml:space="preserve"><tspan x="293.5137 312.36169 330.55869 338.49469 357.0947" y="-707.35602">69.2m</tspan></text>
   <text transform="scale(1,-1)" x="383.5054" y="-717.67871" font-size="18.073px" font-weight="bold" xml:space="preserve"><tspan x="383.5054" y="-717.67871">*</tspan></text>
   <text transform="scale(1,-1)" x="285.4277" y="-690.88281" font-size="11.077px" xml:space="preserve"><tspan x="285.4277 293.18161 295.67392 300.82474 306.66232 311.81311 315.06976 321.30609 324.96152 327.81937 334.18866 336.68097 341.83179 348.18997 350.68231 356.5199 362.00299 368.23935 377.18958 383.42593 389.52936 392.78598 397.9368" y="-690.88281">Disaster displacements </tspan></text>
  </g>
  <g transform="translate(430.14 653.89)" clip-path="url(#clipPath992)">
   <path d="m0 0c-18.622-49.086-73.51-73.782-122.6-55.16-49.085 18.622-73.781 73.51-55.159 122.6 18.622 49.085 73.509 73.781 122.6 55.159s73.781-73.51 55.16-122.6z" fill="none" stroke="#018eca" stroke-linecap="round" stroke-miterlimit="10" stroke-width="28"/>
  </g>
  <g transform="translate(344.2 782.62)" clip-path="url(#clipPath986)">
   <path d="m0 0c10.967-0.34 20.514-2.244 30.772-6.135" fill="none" stroke="#06179e" stroke-linecap="round" stroke-miterlimit="10" stroke-width="28"/>
  </g>
  <g transform="translate(202.69 610.53)" clip-path="url(#clipPath980)">
   <path d="m0 0c-33.06 0-59.86-26.8-59.86-59.86s26.8-59.86 59.86-59.86 59.86 26.8 59.86 59.86-26.8 59.86-59.86 59.86" fill="#018eca"/>
  </g>
  <g transform="translate(203.47 397.35)" clip-path="url(#clipPath974)">
   <path d="m0 0v54.201c-2.406-30.607-27.378-31.13-81.425-31.12-26.516 5e-3 -35.331-15.531-37.925-29.359-0.383-2.039-0.558-4.111-0.558-6.186v-62.345" fill="none" stroke="#018eca" stroke-miterlimit="10" stroke-width=".68"/>
  </g>
  <g transform="translate(203.47 436.07)" clip-path="url(#clipPath968)">
   <path d="m0 0v-121.14" fill="#fff" stroke="#018eca" stroke-miterlimit="10" stroke-width=".68"/>
  </g>
  <g transform="translate(203.47 452.66)" clip-path="url(#clipPath962)">
   <path d="m0 0v-54.201c0.819-13.097 9.773-12.937 28.179-13.24 3.615-0.059 6.607-0.779 9.077-1.949 6.322-2.993 10.358-10.828 10.358-19.317v-46.085" fill="none" stroke="#018eca" stroke-miterlimit="10" stroke-width=".68"/>
  </g>
  <g transform="translate(203.47 424.45)" clip-path="url(#clipPath956)">
   <path d="m0 0c1.931-25.266 22.197-21.202 65.354-25.689 31.216-3.246 30.568-27.603 30.568-27.603v-53.291" fill="none" stroke="#018eca" stroke-miterlimit="10" stroke-width=".68"/>
  </g>
  <g transform="translate(203.47 541.24)" clip-path="url(#clipPath950)">
   <path d="m0 0v-91.122c2.887-25.265 32.878-28.323 97.676-25.688 54.891 2.232 47.214-41.597 48.533-42.81l0.482-18.972v-47.716" fill="none" stroke="#018eca" stroke-miterlimit="10" stroke-width=".68"/>
  </g>
  <text transform="scale(1,-1)" x="459.63531" y="-517.24707" fill="#06179e" font-family="'Proxima Nova'" font-size="17px" font-weight="bold" xml:space="preserve"><tspan x="459.63531 469.7843" y="-517.24707">4m</tspan></text>
  <text transform="scale(1,-1)" x="450.34811" y="-507.647" fill="#06179e" font-family="'Proxima Nova'" font-size="8px" xml:space="preserve"><tspan x="450.34811 456.05209 460.55609 465.13211 469.72409 474.14011 478.06009 481.78009 483.58011 487.5401 491.7561" y="-507.647">Geophysical</tspan></text>
  <g transform="translate(401.28 445.1)" clip-path="url(#clipPath894)">
   <path d="m0 0c0 7.879 6.387 14.266 14.266 14.266s14.265-6.387 14.265-14.266c0-7.878-6.386-14.266-14.265-14.266s-14.266 6.388-14.266 14.266" fill="#06179e"/>
  </g>
  <g transform="translate(463.79 436.83)" clip-path="url(#clipPath888)">
   <path d="m0 0c0 3.314 2.687 6 6.001 6 3.313 0 6.001-2.686 6.001-6s-2.688-6.001-6.001-6.001c-3.314 0-6.001 2.687-6.001 6.001" fill="#06179e"/>
  </g>
  <path d="m521.94 434.1c0 1.808 1.466 3.273 3.273 3.273 1.808 0 3.274-1.465 3.274-3.273s-1.466-3.274-3.274-3.274c-1.807 0-3.273 1.466-3.273 3.274" clip-path="url(#clipPath922)" fill="#06179e"/>
  <path d="m469.79 501.74v-10.77c0.954-10.325 12.268-9.403 33.693-9.641 4.208-0.047 7.691-0.615 10.567-1.537 7.358-2.36 11.167-9.332 11.167-16.024v-29.659" clip-path="url(#clipPath907)" fill="none" stroke="#06179e" stroke-miterlimit="10" stroke-width=".68"/>
  <g transform="translate(469.79 490.59)" clip-path="url(#clipPath870)">
   <path d="m0 0v-47.754" fill="none" stroke="#06179e" stroke-miterlimit="10" stroke-width=".68"/>
  </g>
  <g fill="#06179e" font-family="'Proxima Nova'">
   <text transform="scale(1,-1)" x="400.89041" y="-414.57709" font-size="10.024px" font-weight="bold" xml:space="preserve"><tspan x="400.89041 406.90491 409.47113 415.45557" y="-414.57709">2.4m</tspan></text>
   <text transform="scale(1,-1)" x="386.66699" y="-403.77731" font-size="9px" xml:space="preserve"><tspan x="386.66699 391.78799 396.53101 399.50101 402.147 407.11499 412.28101 417.23999 421.983 426.40201 431.46899" y="-403.77731">Earthquakes</tspan><tspan x="384.237 388.98001 393.939 399.11401 401.436 405.74701 409.93201 414.89099 419.85001 424.59299 431.86499 433.89001" y="-392.97729">and Tsunamis</tspan></text>
   <text transform="scale(1,-1)" x="458.24121" y="-416.09079" font-size="10.024px" font-weight="bold" xml:space="preserve"><tspan x="458.24121 462.36115 464.92734 471.02206" y="-416.09079">1.5m</tspan></text>
   <text transform="scale(1,-1)" x="452.30621" y="-405.29099" font-size="9px" xml:space="preserve"><tspan x="452.30621 457.6882 462.83621 464.86121 469.31619 474.0592 479.01819 481.04321 485.4982" y="-405.29099">Volcanic </tspan><tspan x="450.34421 455.41119 458.3812 463.34021 468.5062 471.15219 473.17719 478.3252 483.28421" y="-394.491">eruptions</tspan></text>
   <text transform="scale(1,-1)" x="513.11768" y="-416.09079" font-size="10.024px" font-weight="bold" xml:space="preserve"><tspan x="513.11768 519.19238 520.76617 524.88611 531.10114 537.3161" y="-416.09079">8,100 </tspan></text>
   <text transform="scale(1,-1)" x="504.2153" y="-405.29099" font-size="9px" xml:space="preserve"><tspan x="504.2153 508.67929 513.4223 518.38129 523.55627 527.74127 529.7663 531.79132 536.96631 542.03333" y="-405.29099">Landslides</tspan></text>
  </g>
  <g transform="translate(53.788 341.74)" clip-path="url(#clipPath1044)">
   <path d="m0 0c0 17.037 13.812 30.849 30.85 30.849 17.037 0 30.849-13.812 30.849-30.849 0-17.038-13.812-30.85-30.849-30.85-17.038 0-30.85 13.812-30.85 30.85" fill="#73519d"/>
  </g>
  <path d="m193.35 322.31c0 6.302 5.109 11.411 11.411 11.411s11.411-5.109 11.411-11.411c0-6.303-5.109-11.411-11.411-11.411s-11.411 5.108-11.411 11.411" clip-path="url(#clipPath1085)" fill="#018eca"/>
  <g transform="translate(244.61 317.8)" clip-path="url(#clipPath1032)">
   <path d="m0 0c0 3.731 3.025 6.758 6.757 6.758 3.733 0 6.758-3.027 6.758-6.758 0-3.732-3.025-6.758-6.758-6.758-3.732 0-6.757 3.026-6.757 6.758" fill="#018eca"/>
  </g>
  <g transform="translate(295.56 316.35)" clip-path="url(#clipPath1026)">
   <path d="m0 0c0 2.12 1.719 3.839 3.838 3.839 2.12 0 3.839-1.719 3.839-3.839s-1.719-3.839-3.839-3.839c-2.119 0-3.838 1.719-3.838 3.839" fill="#018eca"/>
  </g>
  <g transform="translate(346.86 314.93)" clip-path="url(#clipPath1020)">
   <path d="m0 0c0 1.823 1.479 3.302 3.302 3.302 1.824 0 3.302-1.479 3.302-3.302 0-1.824-1.478-3.302-3.302-3.302-1.823 0-3.302 1.478-3.302 3.302" fill="#018eca"/>
  </g>
  <g transform="translate(203.34 451.55)" clip-path="url(#clipPath1014)">
   <path d="m0 0v-54.201c-0.935-13.097-28.187-12.129-37.497-12.393-4.121-0.118-7.534-0.781-10.351-1.95-7.209-2.994-6.451-11.674-6.451-20.163v-35.832" fill="none" stroke="#018eca" stroke-miterlimit="10" stroke-width=".68"/>
  </g>
  <g fill="#018eca" font-family="'Proxima Nova'">
   <text transform="scale(1,-1)" x="135.3325" y="-297.56839" font-size="10.024px" font-weight="bold" xml:space="preserve"><tspan x="135.3325 139.45245 145.52711 148.09331 154.16797" y="-297.56839">18.8m</tspan></text>
   <text transform="scale(1,-1)" x="135.70509" y="-286.76859" font-size="9px" xml:space="preserve"><tspan x="135.70509 140.65511 142.6801 147.82809 152.9761 158.15109" y="-286.76859">Floods</tspan></text>
   <text transform="scale(1,-1)" x="186.64211" y="-297.56641" font-size="10.024px" font-weight="bold" xml:space="preserve"><tspan x="186.64211 192.73682 198.83153 201.39772 207.61273 213.82773 220.04274" y="-297.56641">65,000 </tspan></text>
   <text transform="scale(1,-1)" x="182.34081" y="-286.7666" font-size="9px" xml:space="preserve"><tspan x="182.34081 186.80479 191.54781 196.50681 201.68179 205.86681 207.8918 209.91679 215.0918 220.1588" y="-286.7666">Landslides</tspan></text>
   <text transform="scale(1,-1)" x="237.5444" y="-297.56839" font-size="10.024px" font-weight="bold" xml:space="preserve"><tspan x="237.5444 243.61906 246.18526 252.19978 258.41479 264.62979" y="-297.56839">8,200 </tspan></text>
   <text transform="scale(1,-1)" x="234.09959" y="-286.76859" font-size="9px" xml:space="preserve"><tspan x="234.09959 242.0466 244.07159 246.0966 251.27161 255.8526 258.8226 263.88959" y="-286.76859">Wildfres</tspan></text>
   <text transform="scale(1,-1)" x="285.8584" y="-297.56839" font-size="10.024px" font-weight="bold" xml:space="preserve"><tspan x="285.8584 291.95312 294.51932 300.50375 306.71875 312.93378" y="-297.56839">5,400 </tspan></text>
   <text transform="scale(1,-1)" x="281.2251" y="-286.76859" font-size="9px" xml:space="preserve"><tspan x="281.2251 287.52509 290.49509 295.6431 300.60211 305.7681 310.73611 313.38211" y="-286.76859">Droughts</tspan></text>
   <text transform="scale(1,-1)" x="341.46289" y="-297.56641" font-size="10.024px" font-weight="bold" xml:space="preserve"><tspan x="341.46289 347.55762 353.77261 359.98761" y="-297.56641">600 </tspan></text>
   <text transform="scale(1,-1)" x="334.4668" y="-286.7666" font-size="9px" xml:space="preserve"><tspan x="334.4668 339.5878 343.96179 346.60779 349.57779 354.64481 361.91681 366.9838" y="-286.7666">Extreme </tspan><tspan x="324.3508 326.9968 332.06381 339.33578 344.5018 349.56879 352.53879 357.2818 359.9278 364.88681 367.85681 372.9238" y="-275.96661">temperatures</tspan></text>
  </g>
  <g clip-path="url(#clipPath228)">
   <g transform="translate(469.98 501.74)">
    <path d="m0 0v-10.77c-0.954-10.325-12.268-9.403-33.694-9.641-4.208-0.047-7.691-0.615-10.566-1.537-7.359-2.36-11.167-9.332-11.167-16.024v-15.925" fill="none" stroke="#06179e" stroke-miterlimit="10" stroke-width=".68"/>
   </g>
  </g>
  <text transform="scale(1,-1)" x="70.459503" y="-297.56839" fill="#73519d" font-family="'Proxima Nova'" font-size="10.024px" font-weight="bold" xml:space="preserve"><tspan x="70.459503 76.443947 82.538658 85.104858 90.989059" y="-297.56839">46.3m</tspan></text>
  <text transform="scale(1,-1)" x="71.323196" y="-286.76859" fill="#73519d" font-family="'Proxima Nova'" font-size="9px" xml:space="preserve"><tspan x="71.323196 76.444199 79.090202 84.238197 87.208199 94.480202" y="-286.76859">Storms</tspan></text>
  <g transform="translate(52.25 255.38)" clip-path="url(#clipPath1123)">
   <path d="m0 0s-2.646 14.819 10.398 14.816c14.756-3e-3 21.575 0.151 22.231 9.143" fill="none" stroke="#73519d" stroke-miterlimit="10" stroke-width=".68"/>
  </g>
  <g transform="translate(84.879 279.35)" clip-path="url(#clipPath1117)">
   <path d="m0 0c0.657-8.991 7.475-9.145 22.231-9.142 5.214 1e-3 7.921-2.366 9.292-5.208 0.749-1.551 1.057-3.279 1.057-5.001v-36.204" fill="none" stroke="#73519d" stroke-miterlimit="10" stroke-width=".68"/>
  </g>
  <g transform="translate(29.133 235.69)" clip-path="url(#clipPath1111)">
   <path d="m0 0c0 12.442 10.086 22.529 22.529 22.529s22.529-10.087 22.529-22.529-10.086-22.529-22.529-22.529-22.529 10.087-22.529 22.529" fill="#73519d"/>
  </g>
  <g transform="translate(107.16 223.46)" clip-path="url(#clipPath1105)">
   <path d="m0 0c0 5.686 4.609 10.295 10.295 10.295s10.296-4.609 10.296-10.295c0-5.687-4.61-10.296-10.296-10.296s-10.295 4.609-10.295 10.296" fill="#73519d"/>
  </g>
  <g fill="#73519d" font-family="'Proxima Nova'">
   <text transform="scale(1,-1)" x="37.187" y="-195.28999" font-size="10.024px" font-weight="bold" xml:space="preserve"><tspan x="37.187 43.071205 49.14587 51.712067 57.596272" y="-195.28999">38.3m</tspan></text>
   <text transform="scale(1,-1)" x="16.369101" y="-184.4902" font-size="9px" xml:space="preserve"><tspan x="16.369101 20.7341 23.7041 28.8521 34.018101 36.043098 40.4981 45.2411 47.266098 49.5881 54.043098 58.453098 62.9081 64.933098 70.0811 75.0401 80.107101 84.292099 86.9561" y="-184.4902">Tropical cyclones/ </tspan><tspan x="32.407101 36.925098 41.335098 46.501099 51.469097 56.6171 61.765099 66.724098" y="-173.6902">Typhoons</tspan></text>
   <text transform="scale(1,-1)" x="106.5981" y="-195.291" font-size="10.024px" font-weight="bold" xml:space="preserve"><tspan x="106.5981 111.11901 113.68521 119.77992" y="-195.291">7.9m</tspan></text>
   <text transform="scale(1,-1)" x="106.1914" y="-184.4912" font-size="9px" xml:space="preserve"><tspan x="106.1914 113.0764 115.7224 120.6904 125.7574 128.7274" y="-184.4912">Other </tspan><tspan x="104.2564 108.4414 111.0874 116.2354 119.2054 126.4774" y="-173.69119">storms</tspan></text>
  </g>
  <g transform="translate(126.49 333.42)" clip-path="url(#clipPath1072)">
   <path d="m0 0c0 12.442 10.086 22.528 22.529 22.528 12.442 0 22.529-10.086 22.529-22.528 0-12.443-10.087-22.529-22.529-22.529-12.443 0-22.529 10.086-22.529 22.529" fill="#018eca"/>
  </g>
  <g transform="translate(467.54 553.16)" clip-path="url(#clipPath1066)">
   <path d="m0 0v200.49c0 20.774-17.162 37.615-38.332 37.615h-70.591" fill="none" stroke="#06179e" stroke-miterlimit="10" stroke-width=".68"/>
  </g>
  <g transform="translate(202.69 553.16)" clip-path="url(#clipPath1060)">
   <path d="m0 0v200.49c0 20.774 17.162 37.615 38.331 37.615h70.591" fill="none" stroke="#018eca" stroke-miterlimit="10" stroke-width=".68"/>
  </g>
  <text transform="scale(1,-1)" x="175.8501" y="-549.86182" fill="#ffffff" font-family="'Proxima Nova'" font-size="17px" font-weight="bold" xml:space="preserve"><tspan x="175.8501 186.1861 196.52209 200.8741 211.0741" y="-549.86182">65.2m</tspan></text>
  <text transform="scale(1,-1)" x="172.6763" y="-540.26172" fill="#ffffff" font-family="'Proxima Nova'" font-size="8px" xml:space="preserve"><tspan x="172.6763 179.4203 183.9243 188.1403 190.49229 194.90829 199.41229 202.05229 204.1163 206.7563 211.2603 213.0603 217.27629 219.6283 224.13229" y="-540.26172">Weather related</tspan></text>
  <g clip-path="url(#clipPath320)">
   <g transform="translate(468.51 564.75)">
    <path d="m0 0c-7.777 0-14.082-6.305-14.082-14.082s6.305-14.082 14.082-14.082 14.082 6.305 14.082 14.082-6.305 14.082-14.082 14.082" fill="#06179e"/>
   </g>
  </g>
 </g>
</svg>
