<?xml version="1.0" encoding="UTF-8"?>
<!-- Created with Inkscape (http://www.inkscape.org/) -->
<svg width="707.25" height="833.64" version="1.1" viewBox="0 0 707.25 833.64" xmlns="http://www.w3.org/2000/svg">
 <defs>
  <clipPath id="clipPath18">
   <path d="M 0,841.89 H 595.276 V 0 H 0 Z"/>
  </clipPath>
  <clipPath id="clipPath50">
   <path d="M 0,841.89 H 595.276 V 0 H 0 Z"/>
  </clipPath>
  <clipPath id="clipPath74">
   <path d="M 0,841.89 H 595.276 V 0 H 0 Z"/>
  </clipPath>
  <clipPath id="clipPath216">
   <path d="M 0,841.89 H 595.276 V 0 H 0 Z"/>
  </clipPath>
  <clipPath id="clipPath556">
   <g transform="translate(-214.53 -535.38)">
    <path d="M 0,841.89 H 595.276 V 0 H 0 Z"/>
   </g>
  </clipPath>
  <clipPath id="clipPath562">
   <g transform="translate(-214.53 -397.35)">
    <path d="M 0,841.89 H 595.276 V 0 H 0 Z"/>
   </g>
  </clipPath>
  <clipPath id="clipPath575">
   <path d="M 0,841.89 H 595.276 V 0 H 0 Z"/>
  </clipPath>
  <clipPath id="clipPath600">
   <path d="M 0,841.89 H 595.276 V 0 H 0 Z"/>
  </clipPath>
  <clipPath id="clipPath615">
   <path d="M 0,841.89 H 595.276 V 0 H 0 Z"/>
  </clipPath>
  <clipPath id="clipPath630">
   <path d="M 0,841.89 H 595.276 V 0 H 0 Z"/>
  </clipPath>
  <clipPath id="clipPath645">
   <path d="M 0,841.89 H 595.276 V 0 H 0 Z"/>
  </clipPath>
  <clipPath id="clipPath680">
   <path d="M 0,841.89 H 595.276 V 0 H 0 Z"/>
  </clipPath>
  <clipPath id="clipPath695">
   <path d="M 0,841.89 H 595.276 V 0 H 0 Z"/>
  </clipPath>
  <clipPath id="clipPath733">
   <g transform="translate(-213.33 -550.67)">
    <path d="M 0,841.89 H 595.276 V 0 H 0 Z"/>
   </g>
  </clipPath>
  <clipPath id="clipPath739">
   <g transform="translate(-479.96 -550.67)">
    <path d="M 0,841.89 H 595.276 V 0 H 0 Z"/>
   </g>
  </clipPath>
  <clipPath id="clipPath745">
   <g transform="translate(-214.64 -451.55)">
    <path d="M 0,841.89 H 595.276 V 0 H 0 Z"/>
   </g>
  </clipPath>
  <clipPath id="clipPath751">
   <g transform="translate(-148.25 -333.42)">
    <path d="M 0,841.89 H 595.276 V 0 H 0 Z"/>
   </g>
  </clipPath>
 </defs>
 <g transform="matrix(1.3333 0 0 -1.3333 -35.404 1062.3)">
  <g clip-path="url(#clipPath18)">
   <g transform="translate(415.81 615.82)">
    <path d="m0 0c-39.545-34.837-99.844-31.02-134.68 8.525-34.837 39.545-31.02 99.843 8.525 134.68 39.545 34.836 99.843 31.02 134.68-8.525 34.837-39.545 31.021-99.844-8.524-134.68z" fill="none" stroke="#018eca" stroke-linecap="round" stroke-miterlimit="10" stroke-width="28"/>
   </g>
   <g transform="translate(352.2 782.63)">
    <path d="m0 0c28.089 0.186 53.664-11.267 72.232-32.344" fill="none" stroke="#06179e" stroke-linecap="round" stroke-miterlimit="10" stroke-width="28"/>
   </g>
  </g>
  <g font-family="'Proxima Nova'">
   <text transform="matrix(1 0 0 -1 355.96 660.7)" fill="#06179e" font-size="17px" font-weight="bold" xml:space="preserve"><tspan x="0 6.987 17.187 27.386999 31.739 42.278999 52.819 63.359001" y="0">122,000 </tspan></text>
   <text transform="matrix(1 0 0 -1 366.04 651.1)" fill="#06179e" font-size="8px" xml:space="preserve"><tspan x="0 5.704 10.208 14.784 19.375999 23.792 27.712 31.431999 33.231998 37.192001 41.408001" y="0">Geophysical</tspan></text>
   <text transform="matrix(1 0 0 -1 280.57 660.7)" fill="#018eca" font-size="17px" font-weight="bold" xml:space="preserve"><tspan x="0 9.2650003 19.601 29.801001 34.153 44.693001 55.233002 65.773003" y="0">792,000 </tspan></text>
   <text transform="matrix(1 0 0 -1 285.43 651.1)" fill="#018eca" font-size="8px" xml:space="preserve"><tspan x="0 6.744 11.248 15.464 17.816 22.232 26.736 29.375999 31.440001 34.080002 38.584 40.383999 44.599998 46.952 51.456001" y="0">Weather related</tspan></text>
  </g>
  <g clip-path="url(#clipPath50)">
   <g transform="translate(352.17 672.04)">
    <path d="m0 0v-21.035" fill="none" stroke="#646363" stroke-miterlimit="10" stroke-width=".5"/>
   </g>
  </g>
  <g fill="#646363" font-family="'Proxima Nova'">
   <text transform="matrix(1 0 0 -1 291.72 707.95)" font-size="31px" font-weight="bold" xml:space="preserve"><tspan x="0 18.848 31.589001 50.096001 58.032001 77.251999 96.472" y="0">914,000</tspan></text>
   <text transform="matrix(1 0 0 -1 407.41 718.27)" font-size="18.073px" font-weight="bold" xml:space="preserve"><tspan x="0" y="0">*</tspan></text>
   <text transform="matrix(1 0 0 -1 296.48 691.47)" font-size="11.077px" xml:space="preserve"><tspan x="0 7.7539001 10.246225 15.39703 21.23461 26.385414 29.642052 35.878403 39.533813 42.391678 48.760956 51.253281 56.404083 62.762283 65.254608 71.092186 76.575302 82.811653 91.761871 97.998222 104.10165 107.35828 112.50909" y="0">Disaster displacements </tspan></text>
  </g>
  <g clip-path="url(#clipPath74)">
   <g transform="translate(479.57 564.75)">
    <path d="m0 0c-7.777 0-14.082-6.305-14.082-14.082s6.305-14.082 14.082-14.082 14.082 6.305 14.082 14.082-6.305 14.082-14.082 14.082" fill="#06179e"/>
   </g>
   <g transform="translate(213.75 610.53)">
    <path d="m0 0c-33.06 0-59.86-26.8-59.86-59.86s26.8-59.86 59.86-59.86 59.86 26.8 59.86 59.86-26.8 59.86-59.86 59.86" fill="#018eca"/>
   </g>
  </g>
  <text transform="matrix(1 0 0 -1 178.73 549.86)" fill="#ffffff" font-family="'Proxima Nova'" font-size="17px" font-weight="bold" xml:space="preserve"><tspan x="0 9.2650003 19.601 29.801001 34.153 44.693001 55.233002 65.773003" y="0">792,000 </tspan></text>
  <text transform="matrix(1 0 0 -1 183.59 540.26)" fill="#ffffff" font-family="'Proxima Nova'" font-size="8px" xml:space="preserve"><tspan x="0 6.744 11.248 15.464 17.816 22.232 26.736 29.375999 31.440001 34.080002 38.584 40.383999 44.599998 46.952 51.456001" y="0">Weather related</tspan></text>
  <g transform="translate(214.53 397.35)" clip-path="url(#clipPath562)">
   <path d="m0 0v54.201c-2.406-30.607-27.378-31.13-81.425-31.12-26.516 5e-3 -35.331-15.531-37.925-29.359-0.383-2.039-0.558-4.111-0.558-6.186v-62.345" fill="none" stroke="#018eca" stroke-miterlimit="10" stroke-width=".68"/>
  </g>
  <g transform="translate(214.53 535.38)" clip-path="url(#clipPath556)">
   <path d="m0 0v-87.463c1.755-21.136 20.928-20.877 60.343-21.366 7.742-0.096 14.148-1.258 19.437-3.145 13.537-4.831 22.182-17.473 22.182-31.17v-74.369" fill="none" stroke="#018eca" stroke-miterlimit="10" stroke-width=".68"/>
  </g>
  <g fill="#06179e">
   <text transform="matrix(1 0 0 -1 449.35 517.25)" font-family="'Proxima Nova'" font-size="17px" font-weight="bold" xml:space="preserve"><tspan x="0 6.987 17.187 27.386999 31.739 42.278999 52.819 63.359001" y="0">122,000 </tspan></text>
   <text transform="matrix(1 0 0 -1 459.43 507.65)" font-family="'Proxima Nova'" font-size="8px" xml:space="preserve"><tspan x="0 5.704 10.208 14.784 19.375999 23.792 27.712 31.431999 33.231998 37.192001 41.408001" y="0">Geophysical</tspan></text>
   <path d="m411.64 437.29c0 7.879 6.387 14.266 14.266 14.266s14.265-6.387 14.265-14.266c0-7.878-6.386-14.266-14.265-14.266s-14.266 6.388-14.266 14.266" clip-path="url(#clipPath695)"/>
   <path d="m524.49 434.81c0 6.51 5.276 11.787 11.786 11.787s11.787-5.277 11.787-11.787c0-6.509-5.277-11.787-11.787-11.787s-11.786 5.278-11.786 11.787" clip-path="url(#clipPath600)"/>
  </g>
  <path d="m480.84 497.74v-10.77c0.954-10.325 12.268-9.403 33.693-9.641 4.209-0.047 7.691-0.615 10.567-1.537 7.359-2.36 11.167-9.332 11.167-16.024v-30.196" clip-path="url(#clipPath615)" fill="none" stroke="#06179e" stroke-miterlimit="10" stroke-width=".68"/>
  <g fill="#06179e" font-family="'Proxima Nova'">
   <text transform="matrix(1 0 0 -1 410.51 408.28)" font-size="10.024px" font-weight="bold" xml:space="preserve"><tspan x="0 5.4631891 9.5831356 12.14933 18.364334 24.579338 30.794342" y="0">71,000 </tspan></text>
   <text transform="matrix(1 0 0 -1 401.42 397.48)" font-size="9px" xml:space="preserve"><tspan x="0 5.1209998 9.8640003 12.834 15.48 20.448 25.614 30.573 35.316002 39.735001 44.801998" y="0">Earthquakes</tspan><tspan x="-2.4300001 2.313 7.2719998 12.447 14.769 19.08 23.264999 28.224001 33.182999 37.925999 45.198002 47.223" y="10.8">and Tsunamis</tspan></text>
   <text transform="matrix(1 0 0 -1 520.56 408.28)" font-size="10.024px" font-weight="bold" xml:space="preserve"><tspan x="0 6.0947137 10.21466 12.780855 18.995859 25.210863 31.425867" y="0">51,000 </tspan></text>
   <text transform="matrix(1 0 0 -1 515.27 397.48)" font-size="9px" xml:space="preserve"><tspan x="0 4.4640002 9.2069998 14.166 19.341 23.525999 25.551001 27.576 32.750999 37.818001" y="0">Landslides</tspan></text>
  </g>
  <g>
   <path d="m64.843 341.74c0 17.037 13.812 30.849 30.849 30.849 17.038 0 30.849-13.812 30.849-30.849 0-17.038-13.811-30.85-30.849-30.85-17.037 0-30.849 13.812-30.849 30.85" clip-path="url(#clipPath645)" fill="#73519d"/>
   <path d="m243.29 322.64c0 6.303 5.109 11.411 11.411 11.411s11.411-5.108 11.411-11.411c0-6.302-5.109-11.411-11.411-11.411s-11.411 5.109-11.411 11.411" clip-path="url(#clipPath680)" fill="#018eca"/>
   <path d="m310.01 317.8c0 3.731 3.025 6.758 6.758 6.758 3.732 0 6.758-3.027 6.758-6.758 0-3.732-3.026-6.758-6.758-6.758-3.733 0-6.758 3.026-6.758 6.758" clip-path="url(#clipPath575)" fill="#018eca"/>
  </g>
  <path d="m214.4 451.55v-54.201c-0.75-13.097-22.632-12.129-30.106-12.393-3.309-0.118-6.049-0.781-8.311-1.95-5.789-2.994-5.18-11.674-5.18-20.163v-35.832" clip-path="url(#clipPath630)" fill="none" stroke="#018eca" stroke-miterlimit="10" stroke-width=".68"/>
  <text transform="matrix(1 0 0 -1 75.714 297.57)" fill="#73519d" font-family="'Proxima Nova'" font-size="10.024px" font-weight="bold" xml:space="preserve"><tspan x="0 5.9844475 12.079161 16.600075 19.166271 25.381275 31.596279 37.811283" y="0">467,000 </tspan></text>
  <text transform="matrix(1 0 0 -1 80.948 286.77)" fill="#73519d" font-family="'Proxima Nova'" font-size="9px" xml:space="preserve"><tspan x="0 5.1209998 7.7670002 12.915 15.885 23.157" y="0">Storms</tspan></text>
  <g fill="#018eca" font-family="'Proxima Nova'">
   <text transform="matrix(1 0 0 -1 152.17 297.57)" font-size="10.024px" font-weight="bold" xml:space="preserve"><tspan x="0 6.0145202 10.134466 16.018671 18.584867 24.799871 31.014875 37.229877" y="0">213,000 </tspan></text>
   <text transform="matrix(1 0 0 -1 157.47 286.77)" font-size="9px" xml:space="preserve"><tspan x="0 4.9499998 6.9749999 12.123 17.271 22.445999" y="0">Floods</tspan></text>
   <text transform="matrix(1 0 0 -1 237.56 297.9)" font-size="10.024px" font-weight="bold" xml:space="preserve"><tspan x="0 6.0947137 10.21466 12.780855 18.995859 25.210863 31.425867" y="0">91,000 </tspan></text>
   <text transform="matrix(1 0 0 -1 236.29 287.1)" font-size="9px" xml:space="preserve"><tspan x="0 7.947 9.9720001 11.997 17.172001 21.753 24.723 29.790001" y="0">Wildfres</tspan></text>
   <text transform="matrix(1 0 0 -1 300.82 297.57)" font-size="10.024px" font-weight="bold" xml:space="preserve"><tspan x="0 6.0145202 10.134466 12.700662 18.915665 25.130669 31.345673" y="0">21,000 </tspan></text>
   <text transform="matrix(1 0 0 -1 295.49 286.77)" font-size="9px" xml:space="preserve"><tspan x="0 4.4640002 9.2069998 14.166 19.341 23.525999 25.551001 27.576 32.750999 37.818001" y="0">Landslides</tspan></text>
  </g>
  <g clip-path="url(#clipPath216)">
   <g transform="translate(481.03 497.74)">
    <path d="m0 0v-10.77c-0.954-10.325-12.268-9.403-33.694-9.641-4.208-0.047-7.691-0.615-10.566-1.537-7.359-2.36-11.167-9.332-11.167-16.024v-15.925" fill="none" stroke="#06179e" stroke-miterlimit="10" stroke-width=".68"/>
   </g>
   <g transform="translate(62.343 255.38)">
    <path d="m0 0s-2.646 14.819 10.398 14.816c14.757-3e-3 21.575 0.151 22.232 9.143" fill="none" stroke="#73519d" stroke-miterlimit="10" stroke-width=".68"/>
   </g>
   <g transform="translate(94.973 279.35)">
    <path d="m0 0c0.657-8.991 7.475-9.145 22.231-9.142 5.214 1e-3 7.921-2.366 9.292-5.208 0.748-1.551 1.056-3.279 1.056-5.001v-36.204" fill="none" stroke="#73519d" stroke-miterlimit="10" stroke-width=".68"/>
   </g>
   <g transform="translate(39.227 235.69)">
    <path d="m0 0c0 12.442 10.086 22.529 22.529 22.529 12.442 0 22.529-10.087 22.529-22.529s-10.087-22.529-22.529-22.529c-12.443 0-22.529 10.087-22.529 22.529" fill="#73519d"/>
   </g>
   <g transform="translate(120.66 219.63)">
    <path d="m0 0c0 3.57 2.894 6.465 6.464 6.465s6.464-2.895 6.464-6.465c0-3.569-2.894-6.464-6.464-6.464s-6.464 2.895-6.464 6.464" fill="#6f58a4"/>
   </g>
  </g>
  <g fill="#73519d" font-family="'Proxima Nova'">
   <text transform="matrix(1 0 0 -1 42.179 195.29)" font-size="10.024px" font-weight="bold" xml:space="preserve"><tspan x="0 5.9844475 11.868652 17.943317 20.509514 26.724518 32.939522 39.154526" y="0">438,000 </tspan></text>
   <text transform="matrix(1 0 0 -1 26.463 184.49)" font-size="9px" xml:space="preserve"><tspan x="0 4.3649998 7.335 12.483 17.649 19.674 24.129 28.872 30.896999 33.219002 37.674 42.084 46.539001 48.563999 53.712002 58.671001 63.737999 67.922997 70.586998" y="0">Tropical cyclones/ </tspan><tspan x="16.038 20.556 24.966 30.132 35.099998 40.248001 45.396 50.355" y="10.8">Typhoons</tspan></text>
   <text transform="matrix(1 0 0 -1 111 195.29)" font-size="10.024px" font-weight="bold" xml:space="preserve"><tspan x="0 6.0145202 11.898726 14.464921 20.679924 26.894928 33.109932" y="0">29,000 </tspan></text>
   <text transform="matrix(1 0 0 -1 116.28 184.49)" font-size="9px" xml:space="preserve"><tspan x="0 6.8850002 9.5310001 14.499 19.566 22.535999" y="0">Other </tspan><tspan x="-1.9349999 2.25 4.8959999 10.044 13.014 20.285999" y="10.8">storms</tspan></text>
  </g>
  <g transform="translate(148.25 333.42)" clip-path="url(#clipPath751)">
   <path d="m0 0c0 12.442 10.086 22.528 22.529 22.528 12.442 0 22.529-10.086 22.529-22.528 0-12.443-10.087-22.529-22.529-22.529-12.443 0-22.529 10.086-22.529 22.529" fill="#018eca"/>
  </g>
  <g transform="translate(214.64 451.55)" clip-path="url(#clipPath745)">
   <path d="m0 0v-54.201c0.665-13.097 20.045-12.129 26.666-12.393 2.93-0.118 5.357-0.781 7.361-1.949 5.127-2.995 4.588-11.675 4.588-20.164v-35.832" fill="none" stroke="#018eca" stroke-miterlimit="10" stroke-width=".68"/>
  </g>
  <g transform="translate(479.96 550.67)" clip-path="url(#clipPath739)">
   <path d="m0 0v200.49c0 20.774-17.441 37.615-38.956 37.615h-71.741" fill="none" stroke="#06179e" stroke-miterlimit="10" stroke-width=".68"/>
  </g>
  <g transform="translate(213.33 550.67)" clip-path="url(#clipPath733)">
   <path d="m0 0v200.49c0 20.774 17.162 37.615 38.332 37.615h70.59" fill="none" stroke="#018eca" stroke-miterlimit="10" stroke-width=".68"/>
  </g>
 </g>
</svg>
