<svg id="Layer_1" data-name="Layer 1" xmlns="http://www.w3.org/2000/svg" viewBox="0 0 537.33 640.97"><defs><style>.cls-1,.cls-12,.cls-13,.cls-15,.cls-18,.cls-19,.cls-2,.cls-31,.cls-8{fill:none;stroke-miterlimit:10;}.cls-1,.cls-18{stroke:#018eca;}.cls-1,.cls-2{stroke-linecap:round;stroke-width:28px;}.cls-19,.cls-2{stroke:#06179e;}.cls-17,.cls-3,.cls-6{font-size:17px;}.cls-14,.cls-20,.cls-3{fill:#06179e;}.cls-17,.cls-20,.cls-27,.cls-3,.cls-30,.cls-6,.cls-9{font-family:ProximaNova-Regular, Proxima Nova;}.cls-4{letter-spacing:-0.03em;}.cls-5{font-size:8px;}.cls-16,.cls-30,.cls-6{fill:#018eca;}.cls-7{letter-spacing:-0.04em;}.cls-8{stroke:#646363;stroke-width:0.5px;}.cls-9{font-size:31px;fill:#646363;}.cls-10{letter-spacing:-0.03em;}.cls-11{font-size:19px;}.cls-12{stroke:#1f8dc7;stroke-width:0.89px;}.cls-13{stroke:#f48120;}.cls-13,.cls-15,.cls-18,.cls-19,.cls-31{stroke-width:0.68px;}.cls-15{stroke:#0097d1;}.cls-17{fill:#fff;}.cls-20,.cls-27,.cls-30{font-size:10.02px;}.cls-21{letter-spacing:-0.03em;}.cls-22{font-size:9px;}.cls-23{letter-spacing:0em;}.cls-24{letter-spacing:-0.09em;}.cls-25{letter-spacing:-0.01em;}.cls-26,.cls-27{fill:#73519d;}.cls-28{letter-spacing:-0.1em;}.cls-29{letter-spacing:-0.02em;}.cls-31{stroke:#73519d;}.cls-32{fill:#6f58a4;}.cls-33{letter-spacing:-0.09em;}.cls-34{letter-spacing:-0.06em;}</style></defs><circle class="cls-1" cx="327.83" cy="109.42" r="95.42"/><path class="cls-2" d="M352.2,59.26A94,94,0,0,1,424.43,91.6" transform="translate(-24.91 -45.04)"/><text class="cls-3" transform="translate(332.56 136.14)">122<tspan class="cls-4" x="25.75" y="0">,</tspan><tspan x="29.14" y="0">000 </tspan><tspan class="cls-5"><tspan x="8.57" y="9.6">Geophysical</tspan></tspan></text><text class="cls-6" transform="translate(256.86 136.14)">792<tspan class="cls-4" x="28.8" y="0">,</tspan><tspan x="32.18" y="0">000 </tspan><tspan class="cls-5"><tspan class="cls-7" x="3.66" y="9.6">W</tspan><tspan x="10.4" y="9.6">eather related</tspan></tspan></text><line class="cls-8" x1="327.26" y1="124.8" x2="327.26" y2="145.84"/><text class="cls-9" transform="translate(270.15 88.9)">914<tspan class="cls-10" x="46.13" y="0">,</tspan><tspan x="52.3" y="0">000</tspan></text><text class="cls-9" transform="translate(379.36 78.58) scale(0.58)">*<tspan class="cls-11" x="-184.91" y="45.96">Disaster displacements </tspan></text><path class="cls-12" d="M437.79,191.61" transform="translate(-24.91 -45.04)"/><path class="cls-13" d="M479.57,256.06" transform="translate(-24.91 -45.04)"/><path class="cls-14" d="M479.57,294.08" transform="translate(-24.91 -45.04)"/><path class="cls-15" d="M245.93,261.05" transform="translate(-24.91 -45.04)"/><circle class="cls-14" cx="454.66" cy="246.18" r="14.08"/><circle class="cls-16" cx="213.75" cy="291.22" r="59.86" transform="translate(-168.23 191.4) rotate(-45)"/><text class="cls-17" transform="translate(155.01 246.98)">792<tspan class="cls-4" x="28.8" y="0">,</tspan><tspan x="32.18" y="0">000 </tspan><tspan class="cls-5"><tspan class="cls-7" x="3.66" y="9.6">W</tspan><tspan x="10.4" y="9.6">eather related</tspan></tspan></text><path class="cls-18" d="M214.53,444.54v-54.2c-2.41,30.61-27.38,31.13-81.43,31.12-26.51,0-35.33,15.53-37.92,29.36a32.89,32.89,0,0,0-.56,6.18v62.35" transform="translate(-24.91 -45.04)"/><path class="cls-18" d="M214.53,306.51V394c1.75,21.14,20.93,20.88,60.34,21.37a59.92,59.92,0,0,1,19.44,3.14,33.2,33.2,0,0,1,22.18,31.17V524" transform="translate(-24.91 -45.04)"/><text class="cls-3" transform="translate(425.95 279.6)">122<tspan class="cls-4" x="25.75" y="0">,</tspan><tspan x="29.14" y="0">000 </tspan><tspan class="cls-5"><tspan x="8.57" y="9.6">Geophysical</tspan></tspan></text><circle class="cls-14" cx="401" cy="359.56" r="14.27"/><circle class="cls-14" cx="511.36" cy="362.04" r="11.79"/><path class="cls-19" d="M480.84,344.16v10.76c1,10.33,12.27,9.41,33.7,9.65a35.65,35.65,0,0,1,10.56,1.53c7.36,2.36,11.17,9.34,11.17,16v30.19" transform="translate(-24.91 -45.04)"/><text class="cls-20" transform="translate(386.52 388.56)">71<tspan class="cls-21" x="8.56" y="0">,</tspan><tspan x="10.56" y="0">000 </tspan><tspan class="cls-22"><tspan x="-10.1" y="10.8">Earthqua</tspan><tspan class="cls-23" x="25.21" y="10.8">k</tspan><tspan x="29.81" y="10.8">es</tspan><tspan x="-12.46" y="21.6">and </tspan><tspan class="cls-24" x="4.76" y="21.6">T</tspan><tspan x="9.08" y="21.6">sunamis</tspan></tspan></text><text class="cls-20" transform="translate(496.51 388.56)">51<tspan class="cls-21" x="9.31" y="0">,</tspan><tspan x="11.31" y="0">000 </tspan><tspan class="cls-22"><tspan class="cls-25" x="-6.08" y="10.8">L</tspan><tspan x="-1.77" y="10.8">andslides</tspan></tspan></text><circle class="cls-26" cx="70.78" cy="455.1" r="30.85"/><circle class="cls-16" cx="229.79" cy="474.21" r="11.41"/><circle class="cls-16" cx="291.86" cy="479.05" r="6.76"/><path class="cls-18" d="M214.4,390.34v54.2c-.75,13.1-22.63,12.13-30.11,12.39a19.39,19.39,0,0,0-8.31,1.95c-5.79,3-5.18,11.68-5.18,20.16v35.84" transform="translate(-24.91 -45.04)"/><text class="cls-27" transform="translate(51.66 499.28)">46<tspan class="cls-28" x="11.52" y="0">7</tspan><tspan class="cls-21" x="15.71" y="0">,</tspan><tspan x="17.7" y="0">000 </tspan><tspan class="cls-22"><tspan class="cls-29" x="4.38" y="10.8">S</tspan><tspan x="9.5" y="10.8">torms</tspan></tspan></text><text class="cls-30" transform="translate(128.24 499.28)">213<tspan class="cls-21" x="14.88" y="0">,</tspan><tspan x="16.87" y="0">000 </tspan><tspan class="cls-22"><tspan x="4.32" y="10.8">Floods</tspan></tspan></text><text class="cls-30" transform="translate(213.51 498.95)">91<tspan class="cls-21" x="9.32" y="0">,</tspan><tspan x="11.32" y="0" xml:space="preserve">000  </tspan><tspan class="cls-22"><tspan x="-2.13" y="10.8">Wildfires</tspan></tspan></text><text class="cls-30" transform="translate(276.74 499.28)">21<tspan class="cls-21" x="9.29" y="0">,</tspan><tspan x="11.29" y="0">000 </tspan><tspan class="cls-22"><tspan class="cls-25" x="-6.09" y="10.8">L</tspan><tspan x="-1.78" y="10.8">andslides</tspan></tspan></text><path class="cls-19" d="M481,344.16v10.76c-.95,10.33-12.27,9.41-33.69,9.65a35.77,35.77,0,0,0-10.57,1.53c-7.36,2.36-11.17,9.34-11.17,16v15.92" transform="translate(-24.91 -45.04)"/><path class="cls-31" d="M62.34,586.5s-2.64-14.81,10.4-14.81c14.76,0,21.58-.15,22.23-9.14" transform="translate(-24.91 -45.04)"/><path class="cls-31" d="M95,562.54c.66,9,7.48,9.14,22.23,9.14,5.22,0,7.93,2.37,9.3,5.21a11.6,11.6,0,0,1,1,5v36.2" transform="translate(-24.91 -45.04)"/><circle class="cls-26" cx="36.85" cy="561.15" r="22.53"/><circle class="cls-32" cx="102.21" cy="577.22" r="6.46"/><text class="cls-27" transform="translate(18.14 601.56)">438<tspan class="cls-21" x="17.01" y="0">,</tspan><tspan x="19.01" y="0">000 </tspan><tspan class="cls-22"><tspan class="cls-33" x="-16.61" y="10.8">T</tspan><tspan x="-12.24" y="10.8">ropical cyclones/ </tspan><tspan class="cls-34" x="-0.6" y="21.6">T</tspan><tspan x="4.03" y="21.6">yphoons</tspan></tspan></text><text class="cls-27" transform="translate(86.69 601.55)">2<tspan class="cls-21" x="5.89" y="0">9,</tspan><tspan x="13.5" y="0">000 </tspan><tspan class="cls-22"><tspan x="4.69" y="10.8">Other </tspan><tspan x="2.75" y="21.6">storms</tspan></tspan></text><circle class="cls-16" cx="145.87" cy="463.42" r="22.53"/><path class="cls-18" d="M214.64,390.34v54.2c.67,13.1,20.05,12.13,26.67,12.39a15.6,15.6,0,0,1,7.36,1.95c5.13,3,4.59,11.68,4.59,20.16v35.84" transform="translate(-24.91 -45.04)"/><path class="cls-19" d="M480,291.22V90.73c0-20.77-17.44-37.61-39-37.61H369.26" transform="translate(-24.91 -45.04)"/><path class="cls-18" d="M213.33,291.22V90.73c0-20.77,17.16-37.61,38.33-37.61h70.6" transform="translate(-24.91 -45.04)"/></svg>