<svg id="Layer_1" data-name="Layer 1" xmlns="http://www.w3.org/2000/svg" viewBox="0 0 530.66 625.04"><defs><style>.cls-1,.cls-25,.cls-28,.cls-7,.cls-9{fill:#018eca;}.cls-10,.cls-18,.cls-19,.cls-2,.cls-29,.cls-3{fill:none;stroke-miterlimit:10;}.cls-18,.cls-2{stroke:#018eca;}.cls-2,.cls-3{stroke-linecap:round;stroke-width:28px;}.cls-19,.cls-3{stroke:#06179e;}.cls-11,.cls-14,.cls-15,.cls-16,.cls-17,.cls-20,.cls-22,.cls-23,.cls-24,.cls-25,.cls-28,.cls-4,.cls-6,.cls-7,.cls-8,.cls-9{isolation:isolate;}.cls-16,.cls-4,.cls-7{font-size:17px;}.cls-20,.cls-22,.cls-30,.cls-4,.cls-6{fill:#06179e;}.cls-11,.cls-14,.cls-16,.cls-20,.cls-23,.cls-25,.cls-4,.cls-7{font-family:ProximaNova-Bold, Proxima Nova;font-weight:700;}.cls-5{letter-spacing:-0.02em;}.cls-17,.cls-6,.cls-9{font-size:8px;}.cls-15,.cls-17,.cls-22,.cls-24,.cls-28,.cls-6,.cls-9{font-family:ProximaNova-Regular, Proxima Nova;}.cls-10{stroke:#646363;stroke-width:0.5px;}.cls-11{font-size:31px;}.cls-11,.cls-14,.cls-15{fill:#646363;}.cls-12{letter-spacing:-0.02em;}.cls-13{letter-spacing:0em;}.cls-14{font-size:18.07px;}.cls-15{font-size:11.08px;}.cls-16,.cls-17{fill:#fff;}.cls-18,.cls-19,.cls-29{stroke-width:0.68px;}.cls-20,.cls-23,.cls-25{font-size:10.02px;}.cls-21{letter-spacing:-0.02em;}.cls-22,.cls-24,.cls-28{font-size:9px;}.cls-23,.cls-24,.cls-31{fill:#73519d;}.cls-26{letter-spacing:-0.02em;}.cls-27{letter-spacing:0em;}.cls-29{stroke:#73519d;}.cls-32{fill:#6f58a4;}</style></defs><g id="tp-weather-related"><path class="cls-1" d="M187.3,186.3a59.9,59.9,0,1,0,59.9,59.9,59.88,59.88,0,0,0-59.9-59.9"/></g><g id="tp-all"><circle class="cls-2" cx="326.3" cy="109.4" r="95.4"/><path class="cls-3" d="M325.7,14.2a94,94,0,0,1,72.2,32.3"/><text class="cls-4" transform="translate(329.5 136.14)">122<tspan class="cls-5" x="27.39" y="0">,</tspan><tspan x="31.36" y="0">000 </tspan></text><text class="cls-6" transform="translate(339.57 145.74)">Geophysical</text><text class="cls-7" transform="translate(254.11 136.14)">792<tspan class="cls-5" x="29.8" y="0">,</tspan><tspan x="33.78" y="0">000 </tspan></text><g class="cls-8"><text class="cls-9" transform="translate(258.97 145.74)">W</text><text class="cls-9" transform="translate(265.67 145.74)">eather related</text></g><line class="cls-10" x1="325.7" y1="124.8" x2="325.7" y2="145.8"/><text class="cls-11" transform="translate(265.26 88.9)">914<tspan class="cls-12" x="50.09" y="0">,</tspan><tspan class="cls-13" x="57.35" y="0">000</tspan></text><text class="cls-14" transform="translate(380.95 78.58)">*</text><text class="cls-15" transform="translate(270.02 105.37)">Disaster displacements </text><text class="cls-16" transform="translate(154.27 246.98)">792<tspan class="cls-5" x="29.8" y="0">,</tspan><tspan x="33.78" y="0">000 </tspan></text><g class="cls-8"><text class="cls-17" transform="translate(159.12 256.58)">W</text><text class="cls-17" transform="translate(165.82 256.58)">eather related</text></g><path class="cls-18" d="M188.1,399.5V345.3c-2.4,30.6-27.4,31.1-81.4,31.1-26.5,0-35.3,15.5-37.9,29.4a31.79,31.79,0,0,0-.6,6.2v62.3"/><path class="cls-18" d="M188.1,261.5V349c1.8,21.1,20.9,20.9,60.3,21.4a62.52,62.52,0,0,1,19.4,3.1A33.27,33.27,0,0,1,290,404.7V479"/><text class="cls-4" transform="translate(422.89 279.6)">122<tspan class="cls-5" x="27.39" y="0">,</tspan><tspan x="31.36" y="0">000 </tspan></text><text class="cls-6" transform="translate(432.97 289.2)">Geophysical</text><path class="cls-19" d="M454.4,299.1v10.8c1,10.3,12.3,9.4,33.7,9.6a35.56,35.56,0,0,1,10.6,1.5c7.4,2.4,11.2,9.3,11.2,16v30.2"/><text class="cls-20" transform="translate(384.05 388.56)">71<tspan class="cls-21" x="9.58" y="0">,</tspan><tspan x="11.93" y="0">000 </tspan></text><g class="cls-8"><text class="cls-22" transform="translate(374.95 399.36)">Earthqua</text><text class="cls-22" transform="translate(410.25 399.36)">k</text><text class="cls-22" transform="translate(414.65 399.36)">es</text></g><g class="cls-8"><text class="cls-22" transform="translate(372.52 410.16)">and </text><text class="cls-22" transform="translate(389.72 410.16)">T</text><text class="cls-22" transform="translate(394.02 410.16)">sunamis</text></g><text class="cls-20" transform="translate(494.1 388.56)">51<tspan class="cls-21" x="10.21" y="0">,</tspan><tspan x="12.56" y="0">000 </tspan></text><g class="cls-8"><text class="cls-22" transform="translate(488.81 399.36)">L</text><text class="cls-22" transform="translate(493.11 399.36)">andslides</text></g><path class="cls-18" d="M187.9,345.3v54.2c-.8,13.1-22.6,12.1-30.1,12.4a20.31,20.31,0,0,0-8.3,1.9c-5.8,3-5.2,11.7-5.2,20.2v35.8"/><g class="cls-8"><text class="cls-23" transform="translate(49.25 499.28)">46</text><text class="cls-23" transform="translate(61.35 499.28)">7</text><text class="cls-23" transform="translate(65.85 499.28)"><tspan class="cls-21">,</tspan><tspan x="2.35" y="0">000 </tspan></text></g><g class="cls-8"><text class="cls-24" transform="translate(54.49 510.08)">S</text><text class="cls-24" transform="translate(59.59 510.08)">torms</text></g><text class="cls-25" transform="translate(125.7 499.28)">213<tspan class="cls-26" x="16.02" y="0">,</tspan><tspan class="cls-27" x="18.36" y="0">000 </tspan></text><text class="cls-28" transform="translate(131 510.08)">Floods</text><text class="cls-25" transform="translate(211.1 498.95)">91<tspan class="cls-21" x="10.21" y="0">,</tspan><tspan x="12.56" y="0" xml:space="preserve">000  </tspan></text><text class="cls-28" transform="translate(209.82 509.75)">Wildﬁres</text><text class="cls-25" transform="translate(274.35 499.28)">21<tspan class="cls-21" x="10.13" y="0">,</tspan><tspan x="12.48" y="0">000 </tspan></text><g class="cls-8"><text class="cls-28" transform="translate(269.02 510.08)">L</text><text class="cls-28" transform="translate(273.32 510.08)">andslides</text></g><path class="cls-19" d="M454.6,299.1v10.8c-1,10.3-12.3,9.4-33.7,9.6a35.56,35.56,0,0,0-10.6,1.5c-7.4,2.4-11.2,9.3-11.2,16v16"/><path class="cls-29" d="M35.9,541.5s-2.6-14.8,10.4-14.8c14.8,0,21.6-.2,22.2-9.1"/><path class="cls-29" d="M68.5,517.5c.7,9,7.5,9.1,22.2,9.1,5.2,0,7.9,2.4,9.3,5.2a12.52,12.52,0,0,1,1.1,5V573"/><text class="cls-23" transform="translate(15.72 601.56)">438<tspan class="cls-21" x="17.94" y="0">,</tspan><tspan x="20.29" y="0">000 </tspan></text><g class="cls-8"><text class="cls-24" transform="translate(0 612.36)">T</text><text class="cls-24" transform="translate(4.4 612.36)">ropical cyclones/ </text></g><g class="cls-8"><text class="cls-24" transform="translate(16.04 623.16)">T</text><text class="cls-24" transform="translate(20.54 623.16)">yphoons</text></g><g class="cls-8"><text class="cls-23" transform="translate(84.53 601.55)">2</text><text class="cls-23" transform="translate(90.53 601.55)">9</text><text class="cls-23" transform="translate(96.43 601.55)"><tspan class="cls-21">,</tspan><tspan x="2.35" y="0">000 </tspan></text></g><text class="cls-24" transform="translate(89.82 612.35)">Other </text><text class="cls-24" transform="translate(87.89 623.15)">storms</text><path class="cls-18" d="M188.2,345.3v54.2c.7,13.1,20,12.1,26.7,12.4a16.48,16.48,0,0,1,7.4,1.9c5.1,3,4.6,11.7,4.6,20.2v35.8"/><path class="cls-19" d="M453.5,246.2V45.7c0-20.8-17.4-37.6-39-37.6H342.8"/><path class="cls-18" d="M186.9,246.2V45.7c0-20.8,17.2-37.6,38.3-37.6h70.6"/></g><g id="all-geophysical"><path class="cls-30" d="M453.1,232.1a14.1,14.1,0,1,0,14.1,14.1,14.08,14.08,0,0,0-14.1-14.1"/></g><g id="tp-storrms"><path class="cls-31" d="M38.4,455.1A30.8,30.8,0,1,1,69.2,486a30.81,30.81,0,0,1-30.8-30.9"/></g><g id="tp-floods"><path class="cls-1" d="M121.8,463.4a22.5,22.5,0,1,1,22.5,22.5,22.53,22.53,0,0,1-22.5-22.5"/></g><g id="tp-wildfires"><path class="cls-1" d="M216.8,474.2a11.4,11.4,0,1,1,11.4,11.4,11.39,11.39,0,0,1-11.4-11.4"/></g><g id="tp-landslides"><path class="cls-1" d="M283.5,479a6.8,6.8,0,1,1,6.8,6.8,6.81,6.81,0,0,1-6.8-6.8"/></g><g id="tp-tropical"><path class="cls-31" d="M12.8,561.2a22.5,22.5,0,1,1,22.5,22.5,22.53,22.53,0,0,1-22.5-22.5"/></g><g id="tp-other-storms"><path class="cls-32" d="M94.2,577.2a6.5,6.5,0,1,1,6.5,6.5,6.49,6.49,0,0,1-6.5-6.5"/></g><g id="tp-earthquakes"><path class="cls-30" d="M385.2,359.6a14.3,14.3,0,1,1,14.3,14.3,14.3,14.3,0,0,1-14.3-14.3"/></g><g id="tp-geophysical-landslides"><path class="cls-30" d="M498,362a11.8,11.8,0,1,1,11.8,11.8A11.82,11.82,0,0,1,498,362"/></g></svg>